G04 EAGLE Gerber RS-274X export*
G75*
%MOMM*%
%FSLAX34Y34*%
%LPD*%
%INBottom Copper*%
%IPPOS*%
%AMOC8*
5,1,8,0,0,1.08239X$1,22.5*%
G01*
%ADD10R,1.308000X1.308000*%
%ADD11C,1.308000*%
%ADD12C,1.524000*%
%ADD13C,1.524000*%
%ADD14R,1.508000X1.508000*%
%ADD15C,1.508000*%
%ADD16C,1.981200*%
%ADD17C,0.152400*%
%ADD18C,0.756400*%
%ADD19C,4.016000*%

G36*
X941398Y10164D02*
X941398Y10164D01*
X941417Y10162D01*
X941519Y10184D01*
X941621Y10200D01*
X941638Y10210D01*
X941658Y10214D01*
X941747Y10267D01*
X941838Y10316D01*
X941852Y10330D01*
X941869Y10340D01*
X941936Y10419D01*
X942008Y10494D01*
X942016Y10512D01*
X942029Y10527D01*
X942068Y10623D01*
X942111Y10717D01*
X942113Y10737D01*
X942121Y10755D01*
X942139Y10922D01*
X942139Y671578D01*
X942136Y671598D01*
X942138Y671617D01*
X942116Y671718D01*
X942100Y671821D01*
X942090Y671838D01*
X942086Y671858D01*
X942033Y671947D01*
X941984Y672038D01*
X941970Y672052D01*
X941960Y672069D01*
X941881Y672136D01*
X941806Y672208D01*
X941788Y672216D01*
X941773Y672229D01*
X941677Y672268D01*
X941583Y672311D01*
X941563Y672313D01*
X941545Y672321D01*
X941378Y672339D01*
X10922Y672339D01*
X10902Y672336D01*
X10883Y672338D01*
X10781Y672316D01*
X10679Y672300D01*
X10662Y672290D01*
X10642Y672286D01*
X10553Y672233D01*
X10462Y672184D01*
X10448Y672170D01*
X10431Y672160D01*
X10364Y672081D01*
X10292Y672006D01*
X10284Y671988D01*
X10271Y671973D01*
X10232Y671877D01*
X10189Y671783D01*
X10187Y671763D01*
X10179Y671745D01*
X10161Y671578D01*
X10161Y10922D01*
X10164Y10902D01*
X10162Y10883D01*
X10184Y10781D01*
X10200Y10679D01*
X10210Y10662D01*
X10214Y10642D01*
X10267Y10553D01*
X10316Y10462D01*
X10330Y10448D01*
X10340Y10431D01*
X10419Y10364D01*
X10494Y10292D01*
X10512Y10284D01*
X10527Y10271D01*
X10623Y10232D01*
X10717Y10189D01*
X10737Y10187D01*
X10755Y10179D01*
X10922Y10161D01*
X941378Y10161D01*
X941398Y10164D01*
G37*
%LPC*%
G36*
X340879Y307339D02*
X340879Y307339D01*
X337144Y308886D01*
X334286Y311744D01*
X332739Y315479D01*
X332739Y319521D01*
X333191Y320613D01*
X333208Y320683D01*
X333234Y320749D01*
X333236Y320801D01*
X333248Y320852D01*
X333241Y320924D01*
X333244Y320995D01*
X333229Y321045D01*
X333225Y321097D01*
X333195Y321163D01*
X333175Y321231D01*
X333146Y321274D01*
X333125Y321322D01*
X333076Y321375D01*
X333035Y321434D01*
X332993Y321465D01*
X332958Y321503D01*
X332895Y321538D01*
X332838Y321580D01*
X332788Y321596D01*
X332743Y321622D01*
X332672Y321634D01*
X332604Y321656D01*
X332552Y321656D01*
X332501Y321665D01*
X332430Y321655D01*
X332358Y321654D01*
X332289Y321634D01*
X332257Y321629D01*
X332236Y321619D01*
X332197Y321607D01*
X328411Y320039D01*
X324369Y320039D01*
X320634Y321586D01*
X317776Y324444D01*
X316229Y328179D01*
X316229Y332221D01*
X317776Y335956D01*
X320634Y338814D01*
X324369Y340361D01*
X328411Y340361D01*
X332197Y338793D01*
X332267Y338776D01*
X332334Y338751D01*
X332386Y338748D01*
X332436Y338736D01*
X332508Y338743D01*
X332579Y338740D01*
X332629Y338755D01*
X332681Y338760D01*
X332747Y338789D01*
X332816Y338809D01*
X332858Y338838D01*
X332906Y338860D01*
X332959Y338908D01*
X333018Y338949D01*
X333049Y338991D01*
X333087Y339026D01*
X333122Y339089D01*
X333164Y339146D01*
X333180Y339196D01*
X333206Y339241D01*
X333218Y339312D01*
X333241Y339380D01*
X333240Y339432D01*
X333249Y339484D01*
X333239Y339554D01*
X333238Y339626D01*
X333218Y339695D01*
X333214Y339727D01*
X333203Y339748D01*
X333191Y339787D01*
X332739Y340879D01*
X332739Y344921D01*
X334286Y348656D01*
X336628Y350998D01*
X336670Y351056D01*
X336720Y351108D01*
X336741Y351155D01*
X336772Y351197D01*
X336793Y351266D01*
X336823Y351331D01*
X336829Y351383D01*
X336844Y351433D01*
X336842Y351504D01*
X336850Y351575D01*
X336839Y351626D01*
X336838Y351678D01*
X336813Y351746D01*
X336798Y351816D01*
X336771Y351861D01*
X336753Y351909D01*
X336709Y351965D01*
X336672Y352027D01*
X336632Y352061D01*
X336600Y352101D01*
X336539Y352140D01*
X336485Y352187D01*
X336437Y352206D01*
X336393Y352234D01*
X336323Y352252D01*
X336257Y352279D01*
X336185Y352287D01*
X336154Y352295D01*
X336131Y352293D01*
X336090Y352297D01*
X328832Y352297D01*
X326674Y354455D01*
X322334Y358796D01*
X322240Y358863D01*
X322145Y358934D01*
X322139Y358936D01*
X322134Y358939D01*
X322023Y358973D01*
X321911Y359010D01*
X321905Y359010D01*
X321899Y359012D01*
X321782Y359008D01*
X321665Y359007D01*
X321658Y359005D01*
X321653Y359005D01*
X321635Y358999D01*
X321504Y358961D01*
X319521Y358139D01*
X315479Y358139D01*
X311744Y359686D01*
X308886Y362544D01*
X307339Y366279D01*
X307339Y370321D01*
X308886Y374056D01*
X311744Y376914D01*
X313727Y377735D01*
X313827Y377797D01*
X313927Y377857D01*
X313931Y377862D01*
X313936Y377865D01*
X314011Y377954D01*
X314087Y378044D01*
X314089Y378049D01*
X314093Y378054D01*
X314135Y378162D01*
X314179Y378272D01*
X314180Y378279D01*
X314181Y378284D01*
X314182Y378302D01*
X314197Y378439D01*
X314197Y392017D01*
X314183Y392107D01*
X314175Y392198D01*
X314163Y392227D01*
X314158Y392259D01*
X314115Y392340D01*
X314079Y392424D01*
X314053Y392456D01*
X314042Y392477D01*
X314019Y392499D01*
X313974Y392555D01*
X278255Y428274D01*
X278181Y428327D01*
X278112Y428387D01*
X278081Y428399D01*
X278055Y428418D01*
X277968Y428445D01*
X277883Y428479D01*
X277842Y428483D01*
X277820Y428490D01*
X277788Y428489D01*
X277717Y428497D01*
X176432Y428497D01*
X163955Y440974D01*
X162507Y442422D01*
X162470Y442449D01*
X162439Y442482D01*
X162371Y442520D01*
X162308Y442565D01*
X162264Y442579D01*
X162224Y442601D01*
X162147Y442615D01*
X162073Y442638D01*
X162027Y442637D01*
X161982Y442645D01*
X161904Y442633D01*
X161827Y442631D01*
X161784Y442616D01*
X161738Y442609D01*
X161669Y442574D01*
X161596Y442547D01*
X161560Y442518D01*
X161519Y442497D01*
X161464Y442442D01*
X161404Y442393D01*
X161379Y442355D01*
X161347Y442322D01*
X161281Y442202D01*
X161271Y442186D01*
X161269Y442181D01*
X161266Y442175D01*
X160098Y439356D01*
X157544Y436802D01*
X154206Y435419D01*
X150594Y435419D01*
X147256Y436802D01*
X144702Y439356D01*
X143319Y442694D01*
X143319Y446306D01*
X144702Y449644D01*
X147256Y452198D01*
X150594Y453581D01*
X154206Y453581D01*
X157544Y452198D01*
X160098Y449644D01*
X160333Y449078D01*
X160384Y448995D01*
X160430Y448909D01*
X160449Y448891D01*
X160462Y448869D01*
X160537Y448807D01*
X160608Y448740D01*
X160632Y448729D01*
X160652Y448712D01*
X160743Y448677D01*
X160831Y448636D01*
X160857Y448633D01*
X160881Y448624D01*
X160979Y448620D01*
X161075Y448609D01*
X161101Y448614D01*
X161127Y448613D01*
X161221Y448640D01*
X161316Y448661D01*
X161338Y448675D01*
X161363Y448682D01*
X161443Y448737D01*
X161527Y448787D01*
X161544Y448807D01*
X161565Y448822D01*
X161624Y448900D01*
X161687Y448974D01*
X161697Y448999D01*
X161712Y449020D01*
X161742Y449112D01*
X161779Y449202D01*
X161782Y449235D01*
X161788Y449253D01*
X161788Y449286D01*
X161797Y449369D01*
X161797Y557117D01*
X161783Y557207D01*
X161775Y557298D01*
X161763Y557327D01*
X161758Y557359D01*
X161715Y557440D01*
X161679Y557524D01*
X161653Y557556D01*
X161642Y557577D01*
X161619Y557599D01*
X161574Y557655D01*
X131007Y588222D01*
X130912Y588290D01*
X130818Y588360D01*
X130812Y588362D01*
X130807Y588366D01*
X130696Y588400D01*
X130584Y588436D01*
X130578Y588436D01*
X130572Y588438D01*
X130455Y588435D01*
X130339Y588434D01*
X130331Y588432D01*
X130326Y588432D01*
X130309Y588425D01*
X130177Y588387D01*
X128806Y587819D01*
X125194Y587819D01*
X121856Y589202D01*
X119302Y591756D01*
X117919Y595094D01*
X117919Y598706D01*
X119302Y602044D01*
X121856Y604598D01*
X125194Y605981D01*
X128806Y605981D01*
X132144Y604598D01*
X134698Y602044D01*
X136081Y598706D01*
X136081Y595094D01*
X135513Y593723D01*
X135486Y593609D01*
X135458Y593495D01*
X135458Y593489D01*
X135457Y593483D01*
X135468Y593367D01*
X135477Y593250D01*
X135479Y593245D01*
X135480Y593238D01*
X135528Y593131D01*
X135573Y593024D01*
X135578Y593018D01*
X135580Y593014D01*
X135592Y593000D01*
X135678Y592893D01*
X168403Y560168D01*
X168403Y449369D01*
X168404Y449363D01*
X168404Y449362D01*
X168418Y449273D01*
X168428Y449176D01*
X168438Y449152D01*
X168442Y449126D01*
X168488Y449041D01*
X168528Y448951D01*
X168545Y448932D01*
X168558Y448909D01*
X168628Y448842D01*
X168694Y448770D01*
X168717Y448758D01*
X168736Y448740D01*
X168824Y448699D01*
X168910Y448652D01*
X168935Y448647D01*
X168959Y448636D01*
X169056Y448625D01*
X169152Y448608D01*
X169178Y448612D01*
X169203Y448609D01*
X169298Y448630D01*
X169395Y448644D01*
X169418Y448656D01*
X169444Y448661D01*
X169528Y448711D01*
X169614Y448755D01*
X169632Y448774D01*
X169655Y448787D01*
X169718Y448861D01*
X169786Y448931D01*
X169802Y448959D01*
X169815Y448974D01*
X169827Y449005D01*
X169867Y449078D01*
X170102Y449644D01*
X172656Y452198D01*
X175994Y453581D01*
X179606Y453581D01*
X180977Y453013D01*
X181091Y452986D01*
X181205Y452958D01*
X181211Y452958D01*
X181217Y452957D01*
X181334Y452968D01*
X181450Y452977D01*
X181455Y452979D01*
X181462Y452980D01*
X181569Y453028D01*
X181676Y453073D01*
X181682Y453078D01*
X181687Y453080D01*
X181700Y453092D01*
X181807Y453178D01*
X189132Y460503D01*
X280909Y460503D01*
X294734Y446678D01*
X294771Y446651D01*
X294802Y446617D01*
X294871Y446580D01*
X294934Y446534D01*
X294977Y446521D01*
X295018Y446499D01*
X295094Y446485D01*
X295169Y446462D01*
X295215Y446463D01*
X295260Y446455D01*
X295337Y446466D01*
X295415Y446468D01*
X295458Y446484D01*
X295503Y446491D01*
X295572Y446526D01*
X295646Y446553D01*
X295681Y446582D01*
X295722Y446602D01*
X295777Y446658D01*
X295838Y446707D01*
X295862Y446745D01*
X295895Y446778D01*
X295961Y446898D01*
X295971Y446913D01*
X295972Y446918D01*
X295976Y446925D01*
X297102Y449644D01*
X299656Y452198D01*
X302994Y453581D01*
X306606Y453581D01*
X309944Y452198D01*
X312498Y449644D01*
X313881Y446306D01*
X313881Y442694D01*
X312498Y439356D01*
X309944Y436802D01*
X307125Y435634D01*
X307086Y435610D01*
X307043Y435594D01*
X306995Y435556D01*
X306974Y435545D01*
X306964Y435535D01*
X306916Y435505D01*
X306887Y435469D01*
X306851Y435441D01*
X306809Y435375D01*
X306759Y435315D01*
X306743Y435272D01*
X306718Y435234D01*
X306699Y435158D01*
X306671Y435085D01*
X306669Y435040D01*
X306658Y434995D01*
X306664Y434918D01*
X306661Y434840D01*
X306673Y434796D01*
X306677Y434750D01*
X306707Y434678D01*
X306729Y434604D01*
X306755Y434566D01*
X306773Y434524D01*
X306859Y434417D01*
X306869Y434401D01*
X306873Y434398D01*
X306878Y434393D01*
X331345Y409926D01*
X331419Y409873D01*
X331488Y409813D01*
X331519Y409801D01*
X331545Y409782D01*
X331632Y409755D01*
X331717Y409721D01*
X331758Y409717D01*
X331780Y409710D01*
X331812Y409711D01*
X331883Y409703D01*
X433168Y409703D01*
X460503Y382368D01*
X460503Y378439D01*
X460522Y378324D01*
X460539Y378208D01*
X460541Y378202D01*
X460542Y378196D01*
X460597Y378093D01*
X460650Y377988D01*
X460655Y377984D01*
X460658Y377978D01*
X460742Y377899D01*
X460826Y377816D01*
X460832Y377812D01*
X460836Y377809D01*
X460853Y377801D01*
X460973Y377735D01*
X462956Y376914D01*
X465814Y374056D01*
X467361Y370321D01*
X467361Y366279D01*
X465814Y362544D01*
X463472Y360202D01*
X463430Y360144D01*
X463380Y360092D01*
X463359Y360045D01*
X463328Y360003D01*
X463307Y359934D01*
X463277Y359869D01*
X463271Y359817D01*
X463256Y359767D01*
X463258Y359696D01*
X463250Y359625D01*
X463261Y359574D01*
X463262Y359522D01*
X463287Y359454D01*
X463302Y359384D01*
X463329Y359339D01*
X463347Y359291D01*
X463391Y359235D01*
X463428Y359173D01*
X463468Y359139D01*
X463500Y359099D01*
X463561Y359060D01*
X463615Y359013D01*
X463663Y358994D01*
X463707Y358966D01*
X463777Y358948D01*
X463843Y358921D01*
X463915Y358913D01*
X463946Y358905D01*
X463969Y358907D01*
X464010Y358903D01*
X475790Y358903D01*
X475861Y358914D01*
X475932Y358916D01*
X475981Y358934D01*
X476033Y358942D01*
X476096Y358976D01*
X476163Y359001D01*
X476204Y359033D01*
X476250Y359058D01*
X476299Y359110D01*
X476355Y359154D01*
X476384Y359198D01*
X476420Y359236D01*
X476450Y359301D01*
X476488Y359361D01*
X476501Y359412D01*
X476523Y359459D01*
X476531Y359530D01*
X476549Y359600D01*
X476544Y359652D01*
X476550Y359703D01*
X476535Y359774D01*
X476529Y359845D01*
X476509Y359893D01*
X476498Y359944D01*
X476461Y360005D01*
X476433Y360071D01*
X476388Y360127D01*
X476372Y360155D01*
X476354Y360170D01*
X476328Y360202D01*
X473986Y362544D01*
X472439Y366279D01*
X472439Y370321D01*
X473986Y374056D01*
X476844Y376914D01*
X480579Y378461D01*
X484621Y378461D01*
X488356Y376914D01*
X491214Y374056D01*
X492761Y370321D01*
X492761Y366279D01*
X491214Y362544D01*
X488872Y360202D01*
X488830Y360144D01*
X488780Y360092D01*
X488759Y360045D01*
X488728Y360003D01*
X488707Y359934D01*
X488677Y359869D01*
X488671Y359817D01*
X488656Y359767D01*
X488658Y359696D01*
X488650Y359625D01*
X488661Y359574D01*
X488662Y359522D01*
X488687Y359454D01*
X488702Y359384D01*
X488729Y359339D01*
X488747Y359291D01*
X488791Y359235D01*
X488828Y359173D01*
X488868Y359139D01*
X488900Y359099D01*
X488961Y359060D01*
X489015Y359013D01*
X489063Y358994D01*
X489107Y358966D01*
X489177Y358948D01*
X489243Y358921D01*
X489315Y358913D01*
X489346Y358905D01*
X489369Y358907D01*
X489410Y358903D01*
X501190Y358903D01*
X501261Y358914D01*
X501332Y358916D01*
X501381Y358934D01*
X501433Y358942D01*
X501496Y358976D01*
X501563Y359001D01*
X501604Y359033D01*
X501650Y359058D01*
X501699Y359110D01*
X501755Y359154D01*
X501784Y359198D01*
X501820Y359236D01*
X501850Y359301D01*
X501888Y359361D01*
X501901Y359412D01*
X501923Y359459D01*
X501931Y359530D01*
X501949Y359600D01*
X501944Y359652D01*
X501950Y359703D01*
X501935Y359774D01*
X501929Y359845D01*
X501909Y359893D01*
X501898Y359944D01*
X501861Y360005D01*
X501833Y360071D01*
X501788Y360127D01*
X501772Y360155D01*
X501754Y360170D01*
X501728Y360202D01*
X499386Y362544D01*
X497839Y366279D01*
X497839Y370321D01*
X499386Y374056D01*
X502244Y376914D01*
X505979Y378461D01*
X510021Y378461D01*
X513756Y376914D01*
X516614Y374056D01*
X518161Y370321D01*
X518161Y366279D01*
X516614Y362544D01*
X514272Y360202D01*
X514230Y360144D01*
X514180Y360092D01*
X514159Y360045D01*
X514128Y360003D01*
X514107Y359934D01*
X514077Y359869D01*
X514071Y359817D01*
X514056Y359767D01*
X514058Y359696D01*
X514050Y359625D01*
X514061Y359574D01*
X514062Y359522D01*
X514087Y359454D01*
X514102Y359384D01*
X514129Y359339D01*
X514147Y359291D01*
X514191Y359235D01*
X514228Y359173D01*
X514268Y359139D01*
X514300Y359099D01*
X514361Y359060D01*
X514415Y359013D01*
X514463Y358994D01*
X514507Y358966D01*
X514577Y358948D01*
X514643Y358921D01*
X514715Y358913D01*
X514746Y358905D01*
X514769Y358907D01*
X514810Y358903D01*
X526590Y358903D01*
X526661Y358914D01*
X526732Y358916D01*
X526781Y358934D01*
X526833Y358942D01*
X526896Y358976D01*
X526963Y359001D01*
X527004Y359033D01*
X527050Y359058D01*
X527099Y359110D01*
X527155Y359154D01*
X527184Y359198D01*
X527220Y359236D01*
X527250Y359301D01*
X527288Y359361D01*
X527301Y359412D01*
X527323Y359459D01*
X527331Y359530D01*
X527349Y359600D01*
X527344Y359652D01*
X527350Y359703D01*
X527335Y359774D01*
X527329Y359845D01*
X527309Y359893D01*
X527298Y359944D01*
X527261Y360005D01*
X527233Y360071D01*
X527188Y360127D01*
X527172Y360155D01*
X527154Y360170D01*
X527128Y360202D01*
X524786Y362544D01*
X523239Y366279D01*
X523239Y370321D01*
X524786Y374056D01*
X527644Y376914D01*
X529627Y377735D01*
X529727Y377797D01*
X529827Y377857D01*
X529831Y377862D01*
X529836Y377865D01*
X529911Y377954D01*
X529987Y378044D01*
X529989Y378049D01*
X529993Y378054D01*
X530035Y378162D01*
X530079Y378272D01*
X530080Y378279D01*
X530081Y378284D01*
X530082Y378302D01*
X530097Y378439D01*
X530097Y379317D01*
X530083Y379406D01*
X530075Y379498D01*
X530063Y379527D01*
X530058Y379559D01*
X530015Y379640D01*
X529979Y379724D01*
X529953Y379756D01*
X529942Y379777D01*
X529919Y379799D01*
X529874Y379855D01*
X467307Y442422D01*
X467270Y442449D01*
X467239Y442482D01*
X467171Y442520D01*
X467108Y442565D01*
X467064Y442579D01*
X467024Y442601D01*
X466947Y442615D01*
X466873Y442638D01*
X466827Y442637D01*
X466782Y442645D01*
X466704Y442633D01*
X466627Y442631D01*
X466584Y442616D01*
X466538Y442609D01*
X466469Y442574D01*
X466396Y442547D01*
X466360Y442518D01*
X466319Y442497D01*
X466264Y442442D01*
X466204Y442393D01*
X466179Y442355D01*
X466147Y442322D01*
X466081Y442202D01*
X466071Y442186D01*
X466069Y442181D01*
X466066Y442175D01*
X464898Y439356D01*
X462344Y436802D01*
X459006Y435419D01*
X455394Y435419D01*
X452056Y436802D01*
X449502Y439356D01*
X448119Y442694D01*
X448119Y446306D01*
X449502Y449644D01*
X452056Y452198D01*
X454875Y453366D01*
X454914Y453390D01*
X454957Y453406D01*
X455018Y453454D01*
X455084Y453495D01*
X455113Y453531D01*
X455149Y453559D01*
X455191Y453625D01*
X455241Y453685D01*
X455257Y453728D01*
X455282Y453766D01*
X455301Y453842D01*
X455329Y453915D01*
X455331Y453960D01*
X455342Y454005D01*
X455336Y454082D01*
X455339Y454160D01*
X455327Y454204D01*
X455323Y454250D01*
X455293Y454322D01*
X455271Y454396D01*
X455245Y454434D01*
X455227Y454476D01*
X455141Y454583D01*
X455131Y454599D01*
X455127Y454602D01*
X455122Y454607D01*
X354455Y555274D01*
X354381Y555327D01*
X354312Y555387D01*
X354281Y555399D01*
X354255Y555418D01*
X354168Y555445D01*
X354083Y555479D01*
X354042Y555483D01*
X354020Y555490D01*
X353988Y555489D01*
X353917Y555497D01*
X265332Y555497D01*
X263174Y557655D01*
X232607Y588222D01*
X232513Y588290D01*
X232418Y588360D01*
X232412Y588362D01*
X232407Y588366D01*
X232296Y588400D01*
X232185Y588436D01*
X232178Y588436D01*
X232172Y588438D01*
X232055Y588435D01*
X231939Y588434D01*
X231931Y588432D01*
X231926Y588432D01*
X231909Y588425D01*
X231777Y588387D01*
X230406Y587819D01*
X226794Y587819D01*
X223456Y589202D01*
X220902Y591756D01*
X219519Y595094D01*
X219519Y598706D01*
X220902Y602044D01*
X223456Y604598D01*
X226794Y605981D01*
X230406Y605981D01*
X233744Y604598D01*
X236298Y602044D01*
X237681Y598706D01*
X237681Y595094D01*
X237113Y593723D01*
X237086Y593609D01*
X237058Y593495D01*
X237058Y593489D01*
X237057Y593483D01*
X237068Y593366D01*
X237077Y593250D01*
X237079Y593245D01*
X237080Y593238D01*
X237128Y593131D01*
X237173Y593024D01*
X237178Y593018D01*
X237180Y593013D01*
X237192Y593000D01*
X237278Y592893D01*
X267845Y562326D01*
X267919Y562273D01*
X267988Y562213D01*
X268019Y562201D01*
X268045Y562182D01*
X268132Y562155D01*
X268217Y562121D01*
X268258Y562117D01*
X268280Y562110D01*
X268312Y562111D01*
X268383Y562103D01*
X356968Y562103D01*
X536703Y382368D01*
X536703Y378439D01*
X536722Y378324D01*
X536739Y378208D01*
X536741Y378202D01*
X536742Y378196D01*
X536797Y378093D01*
X536850Y377988D01*
X536855Y377984D01*
X536858Y377978D01*
X536942Y377899D01*
X537026Y377816D01*
X537032Y377812D01*
X537036Y377809D01*
X537053Y377801D01*
X537173Y377735D01*
X539156Y376914D01*
X542014Y374056D01*
X543561Y370321D01*
X543561Y366279D01*
X542014Y362544D01*
X539672Y360202D01*
X539630Y360144D01*
X539580Y360092D01*
X539559Y360045D01*
X539528Y360003D01*
X539507Y359934D01*
X539477Y359869D01*
X539471Y359817D01*
X539456Y359767D01*
X539458Y359696D01*
X539450Y359625D01*
X539461Y359574D01*
X539462Y359522D01*
X539487Y359454D01*
X539502Y359384D01*
X539529Y359339D01*
X539547Y359291D01*
X539591Y359235D01*
X539628Y359173D01*
X539668Y359139D01*
X539700Y359099D01*
X539761Y359060D01*
X539815Y359013D01*
X539863Y358994D01*
X539907Y358966D01*
X539977Y358948D01*
X540043Y358921D01*
X540115Y358913D01*
X540146Y358905D01*
X540169Y358907D01*
X540210Y358903D01*
X551990Y358903D01*
X552061Y358914D01*
X552132Y358916D01*
X552181Y358934D01*
X552233Y358942D01*
X552296Y358976D01*
X552363Y359001D01*
X552404Y359033D01*
X552450Y359058D01*
X552499Y359110D01*
X552555Y359154D01*
X552584Y359198D01*
X552620Y359236D01*
X552650Y359301D01*
X552688Y359361D01*
X552701Y359412D01*
X552723Y359459D01*
X552731Y359530D01*
X552749Y359600D01*
X552744Y359652D01*
X552750Y359703D01*
X552735Y359774D01*
X552729Y359845D01*
X552709Y359893D01*
X552698Y359944D01*
X552661Y360005D01*
X552633Y360071D01*
X552588Y360127D01*
X552572Y360155D01*
X552554Y360170D01*
X552528Y360202D01*
X550186Y362544D01*
X548639Y366279D01*
X548639Y370321D01*
X550186Y374056D01*
X553044Y376914D01*
X556779Y378461D01*
X560821Y378461D01*
X562804Y377639D01*
X562918Y377613D01*
X563031Y377584D01*
X563037Y377585D01*
X563044Y377583D01*
X563160Y377594D01*
X563276Y377603D01*
X563282Y377606D01*
X563288Y377606D01*
X563396Y377654D01*
X563503Y377700D01*
X563509Y377704D01*
X563513Y377706D01*
X563527Y377719D01*
X563634Y377804D01*
X580674Y394845D01*
X582832Y397003D01*
X801468Y397003D01*
X820666Y377804D01*
X820760Y377737D01*
X820855Y377666D01*
X820861Y377664D01*
X820866Y377661D01*
X820977Y377627D01*
X821089Y377590D01*
X821095Y377590D01*
X821101Y377588D01*
X821218Y377592D01*
X821335Y377593D01*
X821342Y377595D01*
X821347Y377595D01*
X821364Y377601D01*
X821496Y377639D01*
X823479Y378461D01*
X827521Y378461D01*
X831256Y376914D01*
X834114Y374056D01*
X835661Y370321D01*
X835661Y366279D01*
X834114Y362544D01*
X831772Y360202D01*
X831730Y360144D01*
X831680Y360092D01*
X831659Y360045D01*
X831628Y360003D01*
X831607Y359934D01*
X831577Y359869D01*
X831571Y359817D01*
X831556Y359767D01*
X831558Y359696D01*
X831550Y359625D01*
X831561Y359574D01*
X831562Y359522D01*
X831587Y359454D01*
X831602Y359384D01*
X831629Y359339D01*
X831647Y359291D01*
X831691Y359235D01*
X831728Y359173D01*
X831768Y359139D01*
X831800Y359099D01*
X831861Y359060D01*
X831915Y359013D01*
X831963Y358994D01*
X832007Y358966D01*
X832077Y358948D01*
X832143Y358921D01*
X832215Y358913D01*
X832246Y358905D01*
X832269Y358907D01*
X832310Y358903D01*
X836517Y358903D01*
X836607Y358917D01*
X836698Y358925D01*
X836727Y358937D01*
X836759Y358942D01*
X836840Y358985D01*
X836924Y359021D01*
X836956Y359047D01*
X836977Y359058D01*
X836999Y359081D01*
X837055Y359126D01*
X841396Y363466D01*
X841463Y363561D01*
X841534Y363655D01*
X841536Y363661D01*
X841539Y363666D01*
X841573Y363777D01*
X841610Y363889D01*
X841610Y363895D01*
X841612Y363901D01*
X841608Y364018D01*
X841607Y364135D01*
X841605Y364142D01*
X841605Y364147D01*
X841599Y364164D01*
X841561Y364296D01*
X840739Y366279D01*
X840739Y370321D01*
X842286Y374056D01*
X845144Y376914D01*
X848879Y378461D01*
X852921Y378461D01*
X856656Y376914D01*
X859514Y374056D01*
X861061Y370321D01*
X861061Y366279D01*
X859514Y362544D01*
X856656Y359686D01*
X852921Y358139D01*
X848879Y358139D01*
X846896Y358961D01*
X846782Y358987D01*
X846669Y359016D01*
X846663Y359015D01*
X846656Y359017D01*
X846540Y359006D01*
X846424Y358997D01*
X846418Y358994D01*
X846412Y358994D01*
X846304Y358946D01*
X846197Y358900D01*
X846191Y358896D01*
X846187Y358894D01*
X846173Y358881D01*
X846066Y358796D01*
X841726Y354455D01*
X839568Y352297D01*
X616410Y352297D01*
X616339Y352286D01*
X616268Y352284D01*
X616219Y352266D01*
X616167Y352258D01*
X616104Y352224D01*
X616037Y352199D01*
X615996Y352167D01*
X615950Y352142D01*
X615901Y352090D01*
X615845Y352046D01*
X615816Y352002D01*
X615780Y351964D01*
X615750Y351899D01*
X615712Y351839D01*
X615699Y351788D01*
X615677Y351741D01*
X615669Y351670D01*
X615651Y351600D01*
X615656Y351548D01*
X615650Y351497D01*
X615665Y351426D01*
X615671Y351355D01*
X615691Y351307D01*
X615702Y351256D01*
X615739Y351195D01*
X615767Y351129D01*
X615812Y351073D01*
X615828Y351045D01*
X615846Y351030D01*
X615872Y350998D01*
X618214Y348656D01*
X619761Y344921D01*
X619761Y340879D01*
X618214Y337144D01*
X615356Y334286D01*
X611621Y332739D01*
X607579Y332739D01*
X603793Y334307D01*
X603723Y334324D01*
X603656Y334349D01*
X603604Y334352D01*
X603554Y334364D01*
X603482Y334357D01*
X603411Y334360D01*
X603361Y334345D01*
X603309Y334340D01*
X603243Y334311D01*
X603174Y334291D01*
X603132Y334262D01*
X603084Y334240D01*
X603031Y334192D01*
X602972Y334151D01*
X602941Y334109D01*
X602903Y334074D01*
X602868Y334011D01*
X602826Y333954D01*
X602810Y333904D01*
X602784Y333859D01*
X602772Y333788D01*
X602749Y333720D01*
X602750Y333668D01*
X602741Y333616D01*
X602751Y333546D01*
X602752Y333474D01*
X602772Y333405D01*
X602776Y333373D01*
X602787Y333352D01*
X602799Y333313D01*
X603251Y332221D01*
X603251Y328179D01*
X602799Y327087D01*
X602790Y327052D01*
X602787Y327046D01*
X602786Y327034D01*
X602782Y327017D01*
X602756Y326951D01*
X602754Y326899D01*
X602742Y326848D01*
X602749Y326776D01*
X602746Y326705D01*
X602761Y326655D01*
X602765Y326603D01*
X602795Y326537D01*
X602815Y326469D01*
X602844Y326426D01*
X602865Y326378D01*
X602914Y326325D01*
X602955Y326266D01*
X602997Y326235D01*
X603032Y326197D01*
X603095Y326162D01*
X603152Y326120D01*
X603202Y326104D01*
X603247Y326078D01*
X603318Y326066D01*
X603386Y326044D01*
X603438Y326044D01*
X603489Y326035D01*
X603560Y326045D01*
X603632Y326046D01*
X603701Y326066D01*
X603733Y326071D01*
X603754Y326081D01*
X603793Y326093D01*
X607579Y327661D01*
X611621Y327661D01*
X615356Y326114D01*
X618214Y323256D01*
X619761Y319521D01*
X619761Y315479D01*
X618214Y311744D01*
X615356Y308886D01*
X611621Y307339D01*
X607579Y307339D01*
X603844Y308886D01*
X600986Y311744D01*
X599439Y315479D01*
X599439Y319521D01*
X599891Y320613D01*
X599908Y320683D01*
X599934Y320749D01*
X599936Y320801D01*
X599948Y320852D01*
X599941Y320924D01*
X599944Y320995D01*
X599929Y321045D01*
X599925Y321097D01*
X599895Y321163D01*
X599875Y321231D01*
X599846Y321274D01*
X599825Y321322D01*
X599776Y321375D01*
X599735Y321434D01*
X599693Y321465D01*
X599658Y321503D01*
X599595Y321538D01*
X599538Y321580D01*
X599488Y321596D01*
X599443Y321622D01*
X599372Y321634D01*
X599304Y321656D01*
X599252Y321656D01*
X599201Y321665D01*
X599130Y321655D01*
X599058Y321654D01*
X598989Y321634D01*
X598957Y321629D01*
X598936Y321619D01*
X598897Y321607D01*
X595111Y320039D01*
X591069Y320039D01*
X587334Y321586D01*
X584476Y324444D01*
X582929Y328179D01*
X582929Y332221D01*
X584476Y335956D01*
X587334Y338814D01*
X591069Y340361D01*
X595111Y340361D01*
X598897Y338793D01*
X598967Y338776D01*
X599034Y338751D01*
X599086Y338748D01*
X599136Y338736D01*
X599208Y338743D01*
X599279Y338740D01*
X599329Y338755D01*
X599381Y338760D01*
X599447Y338789D01*
X599516Y338809D01*
X599558Y338838D01*
X599606Y338860D01*
X599659Y338908D01*
X599718Y338949D01*
X599749Y338991D01*
X599787Y339026D01*
X599822Y339089D01*
X599864Y339146D01*
X599880Y339196D01*
X599906Y339241D01*
X599918Y339312D01*
X599941Y339380D01*
X599940Y339432D01*
X599949Y339484D01*
X599939Y339554D01*
X599938Y339626D01*
X599918Y339695D01*
X599914Y339727D01*
X599903Y339748D01*
X599891Y339787D01*
X599439Y340879D01*
X599439Y344921D01*
X600986Y348656D01*
X603328Y350998D01*
X603370Y351056D01*
X603420Y351108D01*
X603441Y351155D01*
X603472Y351197D01*
X603493Y351266D01*
X603523Y351331D01*
X603529Y351383D01*
X603544Y351433D01*
X603542Y351504D01*
X603550Y351575D01*
X603539Y351626D01*
X603538Y351678D01*
X603513Y351746D01*
X603498Y351816D01*
X603471Y351861D01*
X603453Y351909D01*
X603409Y351965D01*
X603372Y352027D01*
X603332Y352061D01*
X603300Y352101D01*
X603239Y352140D01*
X603185Y352187D01*
X603137Y352206D01*
X603093Y352234D01*
X603023Y352252D01*
X602957Y352279D01*
X602885Y352287D01*
X602854Y352295D01*
X602831Y352293D01*
X602790Y352297D01*
X595532Y352297D01*
X593374Y354455D01*
X589034Y358796D01*
X588940Y358863D01*
X588845Y358934D01*
X588839Y358936D01*
X588834Y358939D01*
X588723Y358973D01*
X588611Y359010D01*
X588605Y359010D01*
X588599Y359012D01*
X588482Y359008D01*
X588365Y359007D01*
X588358Y359005D01*
X588353Y359005D01*
X588336Y358999D01*
X588204Y358961D01*
X586221Y358139D01*
X582179Y358139D01*
X580196Y358961D01*
X580082Y358987D01*
X579969Y359016D01*
X579963Y359015D01*
X579956Y359017D01*
X579840Y359006D01*
X579724Y358997D01*
X579718Y358994D01*
X579712Y358994D01*
X579604Y358946D01*
X579497Y358900D01*
X579491Y358896D01*
X579487Y358894D01*
X579473Y358881D01*
X579366Y358796D01*
X575026Y354455D01*
X572868Y352297D01*
X349710Y352297D01*
X349639Y352286D01*
X349568Y352284D01*
X349519Y352266D01*
X349467Y352258D01*
X349404Y352224D01*
X349337Y352199D01*
X349296Y352167D01*
X349250Y352142D01*
X349201Y352090D01*
X349145Y352046D01*
X349116Y352002D01*
X349080Y351964D01*
X349050Y351899D01*
X349012Y351839D01*
X348999Y351788D01*
X348977Y351741D01*
X348969Y351670D01*
X348951Y351600D01*
X348956Y351548D01*
X348950Y351497D01*
X348965Y351426D01*
X348971Y351355D01*
X348991Y351307D01*
X349002Y351256D01*
X349039Y351195D01*
X349067Y351129D01*
X349112Y351073D01*
X349128Y351045D01*
X349146Y351030D01*
X349172Y350998D01*
X351514Y348656D01*
X353061Y344921D01*
X353061Y340879D01*
X351514Y337144D01*
X348656Y334286D01*
X344921Y332739D01*
X340879Y332739D01*
X337093Y334307D01*
X337023Y334324D01*
X336956Y334349D01*
X336904Y334352D01*
X336854Y334364D01*
X336782Y334357D01*
X336711Y334360D01*
X336661Y334345D01*
X336609Y334340D01*
X336543Y334311D01*
X336474Y334291D01*
X336432Y334262D01*
X336384Y334240D01*
X336331Y334192D01*
X336272Y334151D01*
X336241Y334109D01*
X336203Y334074D01*
X336168Y334011D01*
X336126Y333954D01*
X336110Y333904D01*
X336084Y333859D01*
X336072Y333788D01*
X336049Y333720D01*
X336050Y333668D01*
X336041Y333616D01*
X336051Y333546D01*
X336052Y333474D01*
X336072Y333405D01*
X336076Y333373D01*
X336087Y333352D01*
X336099Y333313D01*
X336551Y332221D01*
X336551Y328179D01*
X336099Y327087D01*
X336090Y327052D01*
X336087Y327046D01*
X336086Y327034D01*
X336082Y327017D01*
X336056Y326951D01*
X336054Y326899D01*
X336042Y326848D01*
X336049Y326776D01*
X336046Y326705D01*
X336061Y326655D01*
X336065Y326603D01*
X336095Y326537D01*
X336115Y326469D01*
X336144Y326426D01*
X336165Y326378D01*
X336214Y326325D01*
X336255Y326266D01*
X336297Y326235D01*
X336332Y326197D01*
X336395Y326162D01*
X336452Y326120D01*
X336502Y326104D01*
X336547Y326078D01*
X336618Y326066D01*
X336686Y326044D01*
X336738Y326044D01*
X336789Y326035D01*
X336860Y326045D01*
X336932Y326046D01*
X337001Y326066D01*
X337033Y326071D01*
X337054Y326081D01*
X337093Y326093D01*
X340879Y327661D01*
X344921Y327661D01*
X348656Y326114D01*
X351514Y323256D01*
X353061Y319521D01*
X353061Y315479D01*
X351514Y311744D01*
X348656Y308886D01*
X344921Y307339D01*
X340879Y307339D01*
G37*
%LPD*%
%LPC*%
G36*
X643192Y28447D02*
X643192Y28447D01*
X638617Y30342D01*
X635116Y33843D01*
X633221Y38418D01*
X633221Y63182D01*
X635116Y67757D01*
X638617Y71258D01*
X641895Y72616D01*
X641995Y72677D01*
X642095Y72737D01*
X642099Y72742D01*
X642104Y72745D01*
X642179Y72835D01*
X642255Y72924D01*
X642257Y72930D01*
X642261Y72935D01*
X642303Y73043D01*
X642347Y73152D01*
X642348Y73160D01*
X642349Y73164D01*
X642350Y73183D01*
X642365Y73319D01*
X642365Y139036D01*
X739796Y236466D01*
X739863Y236560D01*
X739876Y236577D01*
X739883Y236585D01*
X739886Y236591D01*
X739934Y236655D01*
X739936Y236661D01*
X739939Y236666D01*
X739973Y236777D01*
X739975Y236783D01*
X739987Y236808D01*
X739989Y236824D01*
X740010Y236889D01*
X740010Y236895D01*
X740012Y236901D01*
X740009Y237006D01*
X740014Y237053D01*
X740008Y237081D01*
X740007Y237135D01*
X740005Y237142D01*
X740005Y237147D01*
X739999Y237165D01*
X739962Y237290D01*
X739962Y237293D01*
X739961Y237294D01*
X739961Y237296D01*
X739139Y239279D01*
X739139Y243321D01*
X740686Y247056D01*
X743028Y249398D01*
X743070Y249456D01*
X743120Y249508D01*
X743141Y249555D01*
X743172Y249597D01*
X743193Y249666D01*
X743223Y249731D01*
X743229Y249783D01*
X743244Y249833D01*
X743242Y249904D01*
X743250Y249975D01*
X743239Y250026D01*
X743238Y250078D01*
X743213Y250146D01*
X743198Y250216D01*
X743171Y250261D01*
X743153Y250309D01*
X743109Y250365D01*
X743072Y250427D01*
X743032Y250461D01*
X743000Y250501D01*
X742939Y250540D01*
X742885Y250587D01*
X742837Y250606D01*
X742793Y250634D01*
X742723Y250652D01*
X742657Y250679D01*
X742585Y250687D01*
X742554Y250695D01*
X742531Y250693D01*
X742490Y250697D01*
X738283Y250697D01*
X738193Y250683D01*
X738102Y250675D01*
X738073Y250663D01*
X738041Y250658D01*
X737960Y250615D01*
X737876Y250579D01*
X737844Y250553D01*
X737823Y250542D01*
X737801Y250519D01*
X737745Y250474D01*
X733404Y246134D01*
X733336Y246039D01*
X733266Y245945D01*
X733264Y245939D01*
X733261Y245934D01*
X733227Y245823D01*
X733190Y245711D01*
X733190Y245705D01*
X733188Y245699D01*
X733192Y245582D01*
X733193Y245465D01*
X733195Y245458D01*
X733195Y245453D01*
X733201Y245436D01*
X733239Y245304D01*
X734061Y243321D01*
X734061Y239279D01*
X732514Y235544D01*
X729656Y232686D01*
X725921Y231139D01*
X721879Y231139D01*
X718144Y232686D01*
X715286Y235544D01*
X713739Y239279D01*
X713739Y243321D01*
X715286Y247056D01*
X718144Y249914D01*
X721879Y251461D01*
X725921Y251461D01*
X727904Y250639D01*
X728018Y250613D01*
X728131Y250584D01*
X728137Y250585D01*
X728144Y250583D01*
X728260Y250594D01*
X728376Y250603D01*
X728382Y250606D01*
X728388Y250606D01*
X728496Y250654D01*
X728603Y250700D01*
X728609Y250704D01*
X728613Y250706D01*
X728627Y250719D01*
X728734Y250804D01*
X733074Y255145D01*
X735232Y257303D01*
X900017Y257303D01*
X900107Y257317D01*
X900198Y257325D01*
X900227Y257337D01*
X900259Y257342D01*
X900340Y257385D01*
X900424Y257421D01*
X900456Y257447D01*
X900477Y257458D01*
X900499Y257481D01*
X900555Y257526D01*
X910874Y267845D01*
X910927Y267919D01*
X910987Y267988D01*
X910999Y268019D01*
X911018Y268045D01*
X911045Y268132D01*
X911079Y268217D01*
X911083Y268258D01*
X911090Y268280D01*
X911089Y268312D01*
X911097Y268383D01*
X911097Y468217D01*
X911083Y468307D01*
X911075Y468398D01*
X911063Y468427D01*
X911058Y468459D01*
X911015Y468540D01*
X910979Y468624D01*
X910953Y468656D01*
X910942Y468677D01*
X910919Y468699D01*
X910874Y468755D01*
X887855Y491774D01*
X887781Y491827D01*
X887712Y491887D01*
X887681Y491899D01*
X887655Y491918D01*
X887568Y491945D01*
X887483Y491979D01*
X887442Y491983D01*
X887420Y491990D01*
X887388Y491989D01*
X887317Y491997D01*
X750983Y491997D01*
X750893Y491983D01*
X750802Y491975D01*
X750773Y491963D01*
X750741Y491958D01*
X750660Y491915D01*
X750576Y491879D01*
X750544Y491853D01*
X750523Y491842D01*
X750501Y491819D01*
X750445Y491774D01*
X743146Y484475D01*
X743093Y484401D01*
X743033Y484332D01*
X743021Y484301D01*
X743002Y484275D01*
X742975Y484188D01*
X742941Y484103D01*
X742937Y484062D01*
X742930Y484040D01*
X742931Y484008D01*
X742923Y483937D01*
X742923Y481342D01*
X741960Y479018D01*
X740182Y477240D01*
X737858Y476277D01*
X735342Y476277D01*
X733018Y477240D01*
X731240Y479018D01*
X730277Y481342D01*
X730277Y483858D01*
X731240Y486182D01*
X733018Y487960D01*
X735342Y488923D01*
X737937Y488923D01*
X738027Y488937D01*
X738118Y488945D01*
X738147Y488957D01*
X738179Y488962D01*
X738260Y489005D01*
X738344Y489041D01*
X738376Y489067D01*
X738397Y489078D01*
X738419Y489101D01*
X738475Y489146D01*
X747932Y498603D01*
X890368Y498603D01*
X917703Y471268D01*
X917703Y265332D01*
X903068Y250697D01*
X883110Y250697D01*
X883039Y250686D01*
X882968Y250684D01*
X882919Y250666D01*
X882867Y250658D01*
X882804Y250624D01*
X882737Y250599D01*
X882696Y250567D01*
X882650Y250542D01*
X882601Y250490D01*
X882545Y250446D01*
X882516Y250402D01*
X882480Y250364D01*
X882450Y250299D01*
X882412Y250239D01*
X882399Y250188D01*
X882377Y250141D01*
X882369Y250070D01*
X882351Y250000D01*
X882356Y249948D01*
X882350Y249897D01*
X882365Y249826D01*
X882371Y249755D01*
X882391Y249707D01*
X882402Y249656D01*
X882439Y249595D01*
X882467Y249529D01*
X882512Y249473D01*
X882528Y249445D01*
X882546Y249430D01*
X882572Y249398D01*
X884914Y247056D01*
X886461Y243321D01*
X886461Y239279D01*
X884914Y235544D01*
X882056Y232686D01*
X878321Y231139D01*
X874279Y231139D01*
X870544Y232686D01*
X867686Y235544D01*
X866139Y239279D01*
X866139Y243321D01*
X867686Y247056D01*
X870028Y249398D01*
X870070Y249456D01*
X870120Y249508D01*
X870141Y249555D01*
X870172Y249597D01*
X870193Y249666D01*
X870223Y249731D01*
X870229Y249783D01*
X870244Y249833D01*
X870242Y249904D01*
X870250Y249975D01*
X870239Y250026D01*
X870238Y250078D01*
X870213Y250146D01*
X870198Y250216D01*
X870171Y250261D01*
X870153Y250309D01*
X870109Y250365D01*
X870072Y250427D01*
X870032Y250461D01*
X870000Y250501D01*
X869939Y250540D01*
X869885Y250587D01*
X869837Y250606D01*
X869793Y250634D01*
X869723Y250652D01*
X869657Y250679D01*
X869585Y250687D01*
X869554Y250695D01*
X869531Y250693D01*
X869490Y250697D01*
X857595Y250697D01*
X857587Y250696D01*
X857579Y250697D01*
X857466Y250676D01*
X857352Y250658D01*
X857345Y250654D01*
X857337Y250652D01*
X857236Y250596D01*
X857135Y250542D01*
X857129Y250537D01*
X857122Y250533D01*
X857045Y250448D01*
X856966Y250364D01*
X856962Y250357D01*
X856957Y250351D01*
X856911Y250246D01*
X856862Y250141D01*
X856861Y250133D01*
X856858Y250126D01*
X856848Y250011D01*
X856835Y249897D01*
X856837Y249889D01*
X856836Y249881D01*
X856863Y249768D01*
X856887Y249656D01*
X856891Y249649D01*
X856893Y249642D01*
X856954Y249544D01*
X857013Y249445D01*
X857019Y249440D01*
X857024Y249433D01*
X857148Y249320D01*
X857519Y249050D01*
X858650Y247919D01*
X859590Y246625D01*
X860316Y245200D01*
X860811Y243679D01*
X860946Y242823D01*
X851662Y242823D01*
X851642Y242820D01*
X851623Y242822D01*
X851521Y242800D01*
X851419Y242783D01*
X851402Y242774D01*
X851382Y242770D01*
X851293Y242717D01*
X851202Y242668D01*
X851188Y242654D01*
X851171Y242644D01*
X851104Y242565D01*
X851033Y242490D01*
X851024Y242472D01*
X851011Y242457D01*
X850972Y242360D01*
X850929Y242267D01*
X850927Y242247D01*
X850919Y242229D01*
X850901Y242062D01*
X850901Y241299D01*
X850899Y241299D01*
X850899Y242062D01*
X850896Y242082D01*
X850898Y242101D01*
X850876Y242203D01*
X850859Y242305D01*
X850850Y242322D01*
X850846Y242342D01*
X850793Y242431D01*
X850744Y242522D01*
X850730Y242536D01*
X850720Y242553D01*
X850641Y242620D01*
X850566Y242691D01*
X850548Y242700D01*
X850533Y242713D01*
X850437Y242752D01*
X850343Y242795D01*
X850323Y242797D01*
X850305Y242805D01*
X850138Y242823D01*
X840854Y242823D01*
X840989Y243679D01*
X841484Y245200D01*
X842210Y246625D01*
X843150Y247919D01*
X844281Y249050D01*
X844652Y249320D01*
X844658Y249326D01*
X844665Y249330D01*
X844744Y249413D01*
X844825Y249495D01*
X844829Y249502D01*
X844834Y249508D01*
X844883Y249613D01*
X844934Y249716D01*
X844935Y249724D01*
X844938Y249731D01*
X844951Y249845D01*
X844966Y249960D01*
X844964Y249968D01*
X844965Y249975D01*
X844941Y250088D01*
X844919Y250201D01*
X844915Y250208D01*
X844913Y250216D01*
X844854Y250314D01*
X844797Y250415D01*
X844791Y250420D01*
X844787Y250427D01*
X844700Y250501D01*
X844613Y250578D01*
X844606Y250582D01*
X844600Y250587D01*
X844492Y250630D01*
X844387Y250675D01*
X844379Y250676D01*
X844372Y250679D01*
X844205Y250697D01*
X832310Y250697D01*
X832239Y250686D01*
X832168Y250684D01*
X832119Y250666D01*
X832067Y250658D01*
X832004Y250624D01*
X831937Y250599D01*
X831896Y250567D01*
X831850Y250542D01*
X831801Y250490D01*
X831745Y250446D01*
X831716Y250402D01*
X831680Y250364D01*
X831650Y250299D01*
X831612Y250239D01*
X831599Y250188D01*
X831577Y250141D01*
X831569Y250070D01*
X831551Y250000D01*
X831556Y249948D01*
X831550Y249897D01*
X831565Y249826D01*
X831571Y249755D01*
X831591Y249707D01*
X831602Y249656D01*
X831639Y249595D01*
X831667Y249529D01*
X831712Y249473D01*
X831728Y249445D01*
X831746Y249430D01*
X831772Y249398D01*
X834114Y247056D01*
X835661Y243321D01*
X835661Y239279D01*
X834114Y235544D01*
X831256Y232686D01*
X827521Y231139D01*
X823479Y231139D01*
X821496Y231961D01*
X821382Y231987D01*
X821269Y232016D01*
X821263Y232015D01*
X821257Y232017D01*
X821140Y232006D01*
X821024Y231997D01*
X821018Y231994D01*
X821012Y231994D01*
X820904Y231946D01*
X820797Y231900D01*
X820792Y231896D01*
X820787Y231894D01*
X820773Y231881D01*
X820666Y231796D01*
X799562Y210691D01*
X799509Y210617D01*
X799449Y210548D01*
X799437Y210517D01*
X799418Y210491D01*
X799391Y210404D01*
X799357Y210319D01*
X799353Y210278D01*
X799346Y210256D01*
X799347Y210224D01*
X799339Y210153D01*
X799339Y73319D01*
X799340Y73310D01*
X799340Y73305D01*
X799345Y73282D01*
X799358Y73204D01*
X799375Y73088D01*
X799377Y73082D01*
X799378Y73076D01*
X799433Y72973D01*
X799486Y72869D01*
X799491Y72864D01*
X799494Y72859D01*
X799578Y72779D01*
X799662Y72696D01*
X799668Y72693D01*
X799672Y72689D01*
X799689Y72682D01*
X799809Y72616D01*
X803087Y71258D01*
X806588Y67757D01*
X808483Y63182D01*
X808483Y38418D01*
X806588Y33843D01*
X803087Y30342D01*
X798512Y28447D01*
X793560Y28447D01*
X788985Y30342D01*
X785484Y33843D01*
X783589Y38418D01*
X783589Y63182D01*
X785484Y67757D01*
X788985Y71258D01*
X792263Y72616D01*
X792363Y72677D01*
X792463Y72737D01*
X792467Y72742D01*
X792472Y72745D01*
X792547Y72835D01*
X792623Y72924D01*
X792625Y72930D01*
X792629Y72935D01*
X792671Y73043D01*
X792715Y73152D01*
X792716Y73160D01*
X792717Y73164D01*
X792718Y73183D01*
X792733Y73319D01*
X792733Y213204D01*
X815996Y236466D01*
X816063Y236560D01*
X816076Y236577D01*
X816083Y236585D01*
X816086Y236591D01*
X816134Y236655D01*
X816136Y236661D01*
X816139Y236666D01*
X816173Y236777D01*
X816175Y236783D01*
X816187Y236808D01*
X816189Y236824D01*
X816210Y236889D01*
X816210Y236895D01*
X816212Y236901D01*
X816209Y237006D01*
X816214Y237053D01*
X816208Y237081D01*
X816207Y237135D01*
X816205Y237142D01*
X816205Y237147D01*
X816199Y237165D01*
X816162Y237290D01*
X816162Y237293D01*
X816161Y237294D01*
X816161Y237296D01*
X815339Y239279D01*
X815339Y243321D01*
X816886Y247056D01*
X819228Y249398D01*
X819270Y249456D01*
X819320Y249508D01*
X819341Y249555D01*
X819372Y249597D01*
X819393Y249666D01*
X819423Y249731D01*
X819429Y249783D01*
X819444Y249833D01*
X819442Y249904D01*
X819450Y249975D01*
X819439Y250026D01*
X819438Y250078D01*
X819413Y250146D01*
X819398Y250216D01*
X819371Y250261D01*
X819353Y250309D01*
X819309Y250365D01*
X819272Y250427D01*
X819232Y250461D01*
X819200Y250501D01*
X819139Y250540D01*
X819085Y250587D01*
X819037Y250606D01*
X818993Y250634D01*
X818923Y250652D01*
X818857Y250679D01*
X818785Y250687D01*
X818754Y250695D01*
X818731Y250693D01*
X818690Y250697D01*
X806910Y250697D01*
X806839Y250686D01*
X806768Y250684D01*
X806719Y250666D01*
X806667Y250658D01*
X806604Y250624D01*
X806537Y250599D01*
X806496Y250567D01*
X806450Y250542D01*
X806401Y250490D01*
X806345Y250446D01*
X806316Y250402D01*
X806280Y250364D01*
X806250Y250299D01*
X806212Y250239D01*
X806199Y250188D01*
X806177Y250141D01*
X806169Y250070D01*
X806151Y250000D01*
X806156Y249948D01*
X806150Y249897D01*
X806165Y249826D01*
X806171Y249755D01*
X806191Y249707D01*
X806202Y249656D01*
X806239Y249595D01*
X806267Y249529D01*
X806312Y249473D01*
X806328Y249445D01*
X806346Y249430D01*
X806372Y249398D01*
X808714Y247056D01*
X810261Y243321D01*
X810261Y239279D01*
X808714Y235544D01*
X805856Y232686D01*
X802121Y231139D01*
X798079Y231139D01*
X796096Y231961D01*
X795982Y231987D01*
X795869Y232016D01*
X795863Y232015D01*
X795857Y232017D01*
X795740Y232006D01*
X795624Y231997D01*
X795618Y231994D01*
X795612Y231994D01*
X795504Y231946D01*
X795397Y231900D01*
X795392Y231896D01*
X795387Y231894D01*
X795373Y231881D01*
X795266Y231796D01*
X749524Y186053D01*
X749471Y185979D01*
X749411Y185910D01*
X749399Y185879D01*
X749380Y185853D01*
X749353Y185766D01*
X749319Y185681D01*
X749315Y185640D01*
X749308Y185618D01*
X749309Y185586D01*
X749301Y185515D01*
X749301Y73319D01*
X749302Y73310D01*
X749302Y73305D01*
X749307Y73282D01*
X749320Y73204D01*
X749337Y73088D01*
X749339Y73082D01*
X749340Y73076D01*
X749395Y72973D01*
X749448Y72869D01*
X749453Y72864D01*
X749456Y72859D01*
X749540Y72779D01*
X749624Y72696D01*
X749630Y72693D01*
X749634Y72689D01*
X749651Y72682D01*
X749771Y72616D01*
X753049Y71258D01*
X756550Y67757D01*
X758445Y63182D01*
X758445Y38418D01*
X756550Y33843D01*
X753049Y30342D01*
X748474Y28447D01*
X743522Y28447D01*
X738947Y30342D01*
X735446Y33843D01*
X733551Y38418D01*
X733551Y63182D01*
X735446Y67757D01*
X738947Y71258D01*
X742225Y72616D01*
X742325Y72677D01*
X742425Y72737D01*
X742429Y72742D01*
X742434Y72745D01*
X742509Y72835D01*
X742585Y72924D01*
X742587Y72930D01*
X742591Y72935D01*
X742633Y73043D01*
X742677Y73152D01*
X742678Y73160D01*
X742679Y73164D01*
X742680Y73183D01*
X742695Y73319D01*
X742695Y188566D01*
X790596Y236466D01*
X790663Y236560D01*
X790676Y236577D01*
X790683Y236585D01*
X790686Y236591D01*
X790734Y236655D01*
X790736Y236661D01*
X790739Y236666D01*
X790773Y236777D01*
X790775Y236783D01*
X790787Y236808D01*
X790789Y236824D01*
X790810Y236889D01*
X790810Y236895D01*
X790812Y236901D01*
X790809Y237006D01*
X790814Y237053D01*
X790808Y237081D01*
X790807Y237135D01*
X790805Y237142D01*
X790805Y237147D01*
X790799Y237165D01*
X790762Y237290D01*
X790762Y237293D01*
X790761Y237294D01*
X790761Y237296D01*
X789939Y239279D01*
X789939Y243321D01*
X791486Y247056D01*
X793828Y249398D01*
X793870Y249456D01*
X793920Y249508D01*
X793941Y249555D01*
X793972Y249597D01*
X793993Y249666D01*
X794023Y249731D01*
X794029Y249783D01*
X794044Y249833D01*
X794042Y249904D01*
X794050Y249975D01*
X794039Y250026D01*
X794038Y250078D01*
X794013Y250146D01*
X793998Y250216D01*
X793971Y250261D01*
X793953Y250309D01*
X793909Y250365D01*
X793872Y250427D01*
X793832Y250461D01*
X793800Y250501D01*
X793739Y250540D01*
X793685Y250587D01*
X793637Y250606D01*
X793593Y250634D01*
X793523Y250652D01*
X793457Y250679D01*
X793385Y250687D01*
X793354Y250695D01*
X793331Y250693D01*
X793290Y250697D01*
X781510Y250697D01*
X781439Y250686D01*
X781368Y250684D01*
X781319Y250666D01*
X781267Y250658D01*
X781204Y250624D01*
X781137Y250599D01*
X781096Y250567D01*
X781050Y250542D01*
X781001Y250490D01*
X780945Y250446D01*
X780916Y250402D01*
X780880Y250364D01*
X780850Y250299D01*
X780812Y250239D01*
X780799Y250188D01*
X780777Y250141D01*
X780769Y250070D01*
X780751Y250000D01*
X780756Y249948D01*
X780750Y249897D01*
X780765Y249826D01*
X780771Y249755D01*
X780791Y249707D01*
X780802Y249656D01*
X780839Y249595D01*
X780867Y249529D01*
X780912Y249473D01*
X780928Y249445D01*
X780946Y249430D01*
X780972Y249398D01*
X783314Y247056D01*
X784861Y243321D01*
X784861Y239279D01*
X783314Y235544D01*
X780456Y232686D01*
X776721Y231139D01*
X772679Y231139D01*
X770696Y231961D01*
X770582Y231987D01*
X770469Y232016D01*
X770463Y232015D01*
X770457Y232017D01*
X770340Y232006D01*
X770224Y231997D01*
X770218Y231994D01*
X770212Y231994D01*
X770104Y231946D01*
X769997Y231900D01*
X769992Y231896D01*
X769987Y231894D01*
X769973Y231881D01*
X769866Y231796D01*
X699486Y161415D01*
X699442Y161354D01*
X699406Y161316D01*
X699400Y161303D01*
X699373Y161272D01*
X699361Y161241D01*
X699342Y161215D01*
X699315Y161128D01*
X699281Y161043D01*
X699277Y161002D01*
X699270Y160980D01*
X699271Y160948D01*
X699263Y160877D01*
X699263Y73319D01*
X699264Y73310D01*
X699264Y73305D01*
X699269Y73282D01*
X699282Y73204D01*
X699299Y73088D01*
X699301Y73082D01*
X699302Y73076D01*
X699357Y72973D01*
X699410Y72869D01*
X699415Y72864D01*
X699418Y72859D01*
X699502Y72779D01*
X699586Y72696D01*
X699592Y72693D01*
X699596Y72689D01*
X699613Y72682D01*
X699733Y72616D01*
X703011Y71258D01*
X706512Y67757D01*
X708407Y63182D01*
X708407Y38418D01*
X706512Y33843D01*
X703011Y30342D01*
X698436Y28447D01*
X693484Y28447D01*
X688909Y30342D01*
X685408Y33843D01*
X683513Y38418D01*
X683513Y63182D01*
X685408Y67757D01*
X688909Y71258D01*
X692187Y72616D01*
X692287Y72677D01*
X692387Y72737D01*
X692391Y72742D01*
X692396Y72745D01*
X692471Y72835D01*
X692547Y72924D01*
X692549Y72930D01*
X692553Y72935D01*
X692595Y73043D01*
X692639Y73152D01*
X692640Y73160D01*
X692641Y73164D01*
X692642Y73183D01*
X692657Y73319D01*
X692657Y163928D01*
X765196Y236466D01*
X765263Y236560D01*
X765276Y236577D01*
X765283Y236585D01*
X765286Y236591D01*
X765334Y236655D01*
X765336Y236661D01*
X765339Y236666D01*
X765373Y236777D01*
X765375Y236783D01*
X765387Y236808D01*
X765389Y236824D01*
X765410Y236889D01*
X765410Y236895D01*
X765412Y236901D01*
X765409Y237006D01*
X765414Y237053D01*
X765408Y237081D01*
X765407Y237135D01*
X765405Y237142D01*
X765405Y237147D01*
X765399Y237165D01*
X765362Y237290D01*
X765362Y237293D01*
X765361Y237294D01*
X765361Y237296D01*
X764539Y239279D01*
X764539Y243321D01*
X766086Y247056D01*
X768428Y249398D01*
X768470Y249456D01*
X768520Y249508D01*
X768541Y249555D01*
X768572Y249597D01*
X768593Y249666D01*
X768623Y249731D01*
X768629Y249783D01*
X768644Y249833D01*
X768642Y249904D01*
X768650Y249975D01*
X768639Y250026D01*
X768638Y250078D01*
X768613Y250146D01*
X768598Y250216D01*
X768571Y250261D01*
X768553Y250309D01*
X768509Y250365D01*
X768472Y250427D01*
X768432Y250461D01*
X768400Y250501D01*
X768339Y250540D01*
X768285Y250587D01*
X768237Y250606D01*
X768193Y250634D01*
X768123Y250652D01*
X768057Y250679D01*
X767985Y250687D01*
X767954Y250695D01*
X767931Y250693D01*
X767890Y250697D01*
X756110Y250697D01*
X756039Y250686D01*
X755968Y250684D01*
X755919Y250666D01*
X755867Y250658D01*
X755804Y250624D01*
X755737Y250599D01*
X755696Y250567D01*
X755650Y250542D01*
X755601Y250490D01*
X755545Y250446D01*
X755516Y250402D01*
X755480Y250364D01*
X755450Y250299D01*
X755412Y250239D01*
X755399Y250188D01*
X755377Y250141D01*
X755369Y250070D01*
X755351Y250000D01*
X755356Y249948D01*
X755350Y249897D01*
X755365Y249826D01*
X755371Y249755D01*
X755391Y249707D01*
X755402Y249656D01*
X755439Y249595D01*
X755467Y249529D01*
X755512Y249473D01*
X755528Y249445D01*
X755546Y249430D01*
X755572Y249398D01*
X757914Y247056D01*
X759461Y243321D01*
X759461Y239279D01*
X757914Y235544D01*
X755056Y232686D01*
X751321Y231139D01*
X747279Y231139D01*
X745296Y231961D01*
X745182Y231987D01*
X745069Y232016D01*
X745063Y232015D01*
X745057Y232017D01*
X744940Y232006D01*
X744824Y231997D01*
X744818Y231994D01*
X744812Y231994D01*
X744704Y231946D01*
X744597Y231900D01*
X744592Y231896D01*
X744587Y231894D01*
X744573Y231881D01*
X744466Y231796D01*
X649194Y136523D01*
X649141Y136449D01*
X649081Y136380D01*
X649069Y136349D01*
X649050Y136323D01*
X649023Y136236D01*
X648989Y136151D01*
X648985Y136110D01*
X648978Y136088D01*
X648979Y136056D01*
X648971Y135985D01*
X648971Y73319D01*
X648972Y73310D01*
X648972Y73305D01*
X648977Y73282D01*
X648990Y73204D01*
X649007Y73088D01*
X649009Y73082D01*
X649010Y73076D01*
X649065Y72973D01*
X649118Y72869D01*
X649123Y72864D01*
X649126Y72859D01*
X649210Y72779D01*
X649294Y72696D01*
X649300Y72693D01*
X649304Y72689D01*
X649321Y72682D01*
X649441Y72616D01*
X652719Y71258D01*
X656220Y67757D01*
X658115Y63182D01*
X658115Y38418D01*
X656220Y33843D01*
X652719Y30342D01*
X648144Y28447D01*
X643192Y28447D01*
G37*
%LPD*%
%LPC*%
G36*
X810779Y502919D02*
X810779Y502919D01*
X807044Y504466D01*
X804186Y507324D01*
X802639Y511059D01*
X802639Y516636D01*
X802636Y516656D01*
X802638Y516675D01*
X802616Y516777D01*
X802600Y516879D01*
X802590Y516896D01*
X802586Y516916D01*
X802533Y517005D01*
X802484Y517096D01*
X802470Y517110D01*
X802460Y517127D01*
X802381Y517194D01*
X802306Y517266D01*
X802288Y517274D01*
X802273Y517287D01*
X802177Y517326D01*
X802083Y517369D01*
X802063Y517371D01*
X802045Y517379D01*
X801878Y517397D01*
X789083Y517397D01*
X788993Y517383D01*
X788902Y517375D01*
X788873Y517363D01*
X788841Y517358D01*
X788760Y517315D01*
X788676Y517279D01*
X788644Y517253D01*
X788623Y517242D01*
X788601Y517219D01*
X788545Y517174D01*
X776068Y504697D01*
X455832Y504697D01*
X379855Y580674D01*
X379781Y580727D01*
X379712Y580787D01*
X379681Y580799D01*
X379655Y580818D01*
X379568Y580845D01*
X379483Y580879D01*
X379442Y580883D01*
X379420Y580890D01*
X379388Y580889D01*
X379317Y580897D01*
X290732Y580897D01*
X288574Y583055D01*
X283407Y588222D01*
X283313Y588290D01*
X283218Y588360D01*
X283212Y588362D01*
X283207Y588366D01*
X283096Y588400D01*
X282985Y588436D01*
X282978Y588436D01*
X282972Y588438D01*
X282855Y588435D01*
X282739Y588434D01*
X282731Y588432D01*
X282726Y588432D01*
X282709Y588425D01*
X282577Y588387D01*
X281206Y587819D01*
X277594Y587819D01*
X274256Y589202D01*
X271702Y591756D01*
X270319Y595094D01*
X270319Y598706D01*
X271702Y602044D01*
X274256Y604598D01*
X277594Y605981D01*
X281206Y605981D01*
X284544Y604598D01*
X287098Y602044D01*
X288481Y598706D01*
X288481Y595094D01*
X287913Y593723D01*
X287886Y593609D01*
X287858Y593495D01*
X287858Y593489D01*
X287857Y593483D01*
X287868Y593366D01*
X287877Y593250D01*
X287879Y593245D01*
X287880Y593238D01*
X287928Y593131D01*
X287973Y593024D01*
X287978Y593018D01*
X287980Y593013D01*
X287992Y593000D01*
X288078Y592893D01*
X293245Y587726D01*
X293319Y587673D01*
X293388Y587613D01*
X293419Y587601D01*
X293445Y587582D01*
X293532Y587555D01*
X293617Y587521D01*
X293658Y587517D01*
X293680Y587510D01*
X293712Y587511D01*
X293783Y587503D01*
X299931Y587503D01*
X300027Y587518D01*
X300124Y587528D01*
X300148Y587538D01*
X300174Y587542D01*
X300259Y587588D01*
X300349Y587628D01*
X300368Y587645D01*
X300391Y587658D01*
X300458Y587728D01*
X300530Y587794D01*
X300542Y587817D01*
X300560Y587836D01*
X300601Y587924D01*
X300648Y588010D01*
X300653Y588035D01*
X300664Y588059D01*
X300675Y588156D01*
X300692Y588252D01*
X300688Y588278D01*
X300691Y588303D01*
X300670Y588398D01*
X300656Y588495D01*
X300644Y588518D01*
X300639Y588544D01*
X300589Y588628D01*
X300545Y588714D01*
X300526Y588732D01*
X300513Y588755D01*
X300439Y588818D01*
X300369Y588886D01*
X300341Y588902D01*
X300326Y588915D01*
X300295Y588927D01*
X300222Y588967D01*
X299656Y589202D01*
X297102Y591756D01*
X295719Y595094D01*
X295719Y598706D01*
X297102Y602044D01*
X299656Y604598D01*
X302994Y605981D01*
X306606Y605981D01*
X309944Y604598D01*
X312498Y602044D01*
X313881Y598706D01*
X313881Y595094D01*
X312498Y591756D01*
X309944Y589202D01*
X309378Y588967D01*
X309295Y588916D01*
X309209Y588870D01*
X309191Y588851D01*
X309169Y588838D01*
X309107Y588763D01*
X309040Y588692D01*
X309029Y588668D01*
X309012Y588648D01*
X308977Y588557D01*
X308936Y588469D01*
X308933Y588443D01*
X308924Y588419D01*
X308920Y588321D01*
X308909Y588225D01*
X308914Y588199D01*
X308913Y588173D01*
X308940Y588079D01*
X308961Y587984D01*
X308975Y587962D01*
X308982Y587937D01*
X309037Y587857D01*
X309087Y587773D01*
X309107Y587756D01*
X309122Y587735D01*
X309200Y587676D01*
X309274Y587613D01*
X309299Y587603D01*
X309320Y587588D01*
X309412Y587558D01*
X309502Y587521D01*
X309535Y587518D01*
X309553Y587512D01*
X309586Y587512D01*
X309669Y587503D01*
X325331Y587503D01*
X325427Y587518D01*
X325524Y587528D01*
X325548Y587538D01*
X325574Y587542D01*
X325659Y587588D01*
X325749Y587628D01*
X325768Y587645D01*
X325791Y587658D01*
X325858Y587728D01*
X325930Y587794D01*
X325942Y587817D01*
X325960Y587836D01*
X326001Y587924D01*
X326048Y588010D01*
X326053Y588035D01*
X326064Y588059D01*
X326075Y588156D01*
X326092Y588252D01*
X326088Y588278D01*
X326091Y588303D01*
X326070Y588398D01*
X326056Y588495D01*
X326044Y588518D01*
X326039Y588544D01*
X325989Y588628D01*
X325945Y588714D01*
X325926Y588732D01*
X325913Y588755D01*
X325839Y588818D01*
X325769Y588886D01*
X325741Y588902D01*
X325726Y588915D01*
X325695Y588927D01*
X325622Y588967D01*
X325056Y589202D01*
X322502Y591756D01*
X321119Y595094D01*
X321119Y598706D01*
X322502Y602044D01*
X325056Y604598D01*
X326427Y605166D01*
X326527Y605228D01*
X326627Y605288D01*
X326631Y605293D01*
X326636Y605296D01*
X326711Y605385D01*
X326787Y605475D01*
X326789Y605481D01*
X326793Y605485D01*
X326835Y605593D01*
X326879Y605703D01*
X326880Y605710D01*
X326881Y605715D01*
X326882Y605733D01*
X326897Y605870D01*
X326897Y610968D01*
X354232Y638303D01*
X776068Y638303D01*
X803602Y610768D01*
X803619Y610757D01*
X803631Y610741D01*
X803718Y610685D01*
X803802Y610625D01*
X803821Y610619D01*
X803838Y610608D01*
X803938Y610583D01*
X804037Y610552D01*
X804057Y610553D01*
X804076Y610548D01*
X804179Y610556D01*
X804283Y610559D01*
X804302Y610566D01*
X804322Y610567D01*
X804417Y610608D01*
X804514Y610643D01*
X804530Y610656D01*
X804548Y610664D01*
X804679Y610768D01*
X807044Y613134D01*
X810779Y614681D01*
X814821Y614681D01*
X818556Y613134D01*
X821414Y610276D01*
X822961Y606541D01*
X822961Y587259D01*
X821414Y583524D01*
X818556Y580666D01*
X814821Y579119D01*
X810779Y579119D01*
X807044Y580666D01*
X804186Y583524D01*
X802639Y587259D01*
X802639Y602075D01*
X802625Y602165D01*
X802617Y602256D01*
X802605Y602285D01*
X802600Y602317D01*
X802557Y602398D01*
X802521Y602482D01*
X802495Y602514D01*
X802484Y602535D01*
X802461Y602557D01*
X802416Y602613D01*
X773555Y631474D01*
X773481Y631527D01*
X773412Y631587D01*
X773381Y631599D01*
X773355Y631618D01*
X773268Y631645D01*
X773183Y631679D01*
X773142Y631683D01*
X773120Y631690D01*
X773088Y631689D01*
X773017Y631697D01*
X357283Y631697D01*
X357193Y631683D01*
X357102Y631675D01*
X357073Y631663D01*
X357041Y631658D01*
X356960Y631615D01*
X356876Y631579D01*
X356844Y631553D01*
X356823Y631542D01*
X356801Y631519D01*
X356745Y631474D01*
X333726Y608455D01*
X333673Y608381D01*
X333613Y608312D01*
X333601Y608281D01*
X333582Y608255D01*
X333555Y608168D01*
X333521Y608083D01*
X333517Y608042D01*
X333510Y608020D01*
X333511Y607988D01*
X333503Y607917D01*
X333503Y605870D01*
X333522Y605755D01*
X333539Y605639D01*
X333541Y605633D01*
X333542Y605627D01*
X333597Y605524D01*
X333650Y605419D01*
X333655Y605415D01*
X333658Y605409D01*
X333742Y605330D01*
X333826Y605247D01*
X333832Y605243D01*
X333836Y605240D01*
X333853Y605232D01*
X333973Y605166D01*
X335344Y604598D01*
X337898Y602044D01*
X339281Y598706D01*
X339281Y595094D01*
X337898Y591756D01*
X335344Y589202D01*
X334778Y588967D01*
X334695Y588916D01*
X334609Y588870D01*
X334591Y588851D01*
X334569Y588838D01*
X334507Y588763D01*
X334440Y588692D01*
X334429Y588668D01*
X334412Y588648D01*
X334377Y588557D01*
X334336Y588469D01*
X334333Y588443D01*
X334324Y588419D01*
X334320Y588321D01*
X334309Y588225D01*
X334314Y588199D01*
X334313Y588173D01*
X334340Y588079D01*
X334361Y587984D01*
X334375Y587962D01*
X334382Y587937D01*
X334437Y587857D01*
X334487Y587773D01*
X334507Y587756D01*
X334522Y587735D01*
X334600Y587676D01*
X334674Y587613D01*
X334699Y587603D01*
X334720Y587588D01*
X334812Y587558D01*
X334902Y587521D01*
X334935Y587518D01*
X334953Y587512D01*
X334986Y587512D01*
X335069Y587503D01*
X350731Y587503D01*
X350827Y587518D01*
X350924Y587528D01*
X350948Y587538D01*
X350974Y587542D01*
X351059Y587588D01*
X351149Y587628D01*
X351168Y587645D01*
X351191Y587658D01*
X351258Y587728D01*
X351330Y587794D01*
X351342Y587817D01*
X351360Y587836D01*
X351401Y587924D01*
X351448Y588010D01*
X351453Y588035D01*
X351464Y588059D01*
X351475Y588156D01*
X351492Y588252D01*
X351488Y588278D01*
X351491Y588303D01*
X351470Y588398D01*
X351456Y588495D01*
X351444Y588518D01*
X351439Y588544D01*
X351389Y588628D01*
X351345Y588714D01*
X351326Y588732D01*
X351313Y588755D01*
X351239Y588818D01*
X351169Y588886D01*
X351141Y588902D01*
X351126Y588915D01*
X351095Y588927D01*
X351022Y588967D01*
X350456Y589202D01*
X347902Y591756D01*
X346519Y595094D01*
X346519Y598706D01*
X347902Y602044D01*
X350456Y604598D01*
X353794Y605981D01*
X357406Y605981D01*
X360744Y604598D01*
X363298Y602044D01*
X364681Y598706D01*
X364681Y595094D01*
X363298Y591756D01*
X360744Y589202D01*
X360178Y588967D01*
X360095Y588916D01*
X360009Y588870D01*
X359991Y588851D01*
X359969Y588838D01*
X359907Y588763D01*
X359840Y588692D01*
X359829Y588668D01*
X359812Y588648D01*
X359777Y588557D01*
X359736Y588469D01*
X359733Y588443D01*
X359724Y588419D01*
X359720Y588321D01*
X359709Y588225D01*
X359714Y588199D01*
X359713Y588173D01*
X359740Y588079D01*
X359761Y587984D01*
X359775Y587962D01*
X359782Y587937D01*
X359837Y587857D01*
X359887Y587773D01*
X359907Y587756D01*
X359922Y587735D01*
X360000Y587676D01*
X360074Y587613D01*
X360099Y587603D01*
X360120Y587588D01*
X360212Y587558D01*
X360302Y587521D01*
X360335Y587518D01*
X360353Y587512D01*
X360386Y587512D01*
X360469Y587503D01*
X376210Y587503D01*
X376232Y587506D01*
X376255Y587504D01*
X376353Y587526D01*
X376452Y587542D01*
X376473Y587553D01*
X376495Y587558D01*
X376581Y587611D01*
X376670Y587658D01*
X376686Y587674D01*
X376705Y587686D01*
X376770Y587763D01*
X376839Y587836D01*
X376849Y587857D01*
X376864Y587874D01*
X376900Y587968D01*
X376943Y588059D01*
X376945Y588082D01*
X376954Y588103D01*
X376959Y588204D01*
X376970Y588303D01*
X376965Y588326D01*
X376966Y588349D01*
X376939Y588446D01*
X376918Y588544D01*
X376906Y588564D01*
X376900Y588586D01*
X376843Y588669D01*
X376791Y588755D01*
X376774Y588770D01*
X376761Y588789D01*
X376633Y588897D01*
X375211Y589847D01*
X373947Y591111D01*
X372953Y592599D01*
X372268Y594251D01*
X372044Y595377D01*
X380238Y595377D01*
X380258Y595380D01*
X380277Y595378D01*
X380379Y595400D01*
X380481Y595417D01*
X380498Y595426D01*
X380518Y595430D01*
X380607Y595483D01*
X380698Y595532D01*
X380712Y595546D01*
X380729Y595556D01*
X380796Y595635D01*
X380867Y595710D01*
X380876Y595728D01*
X380889Y595743D01*
X380927Y595839D01*
X380971Y595933D01*
X380973Y595953D01*
X380981Y595971D01*
X380999Y596138D01*
X380999Y596901D01*
X381001Y596901D01*
X381001Y596138D01*
X381004Y596118D01*
X381002Y596099D01*
X381024Y595997D01*
X381041Y595895D01*
X381050Y595878D01*
X381054Y595858D01*
X381107Y595769D01*
X381156Y595678D01*
X381170Y595664D01*
X381180Y595647D01*
X381259Y595580D01*
X381334Y595509D01*
X381352Y595500D01*
X381367Y595487D01*
X381463Y595448D01*
X381557Y595405D01*
X381577Y595403D01*
X381595Y595395D01*
X381762Y595377D01*
X389956Y595377D01*
X389732Y594251D01*
X389047Y592599D01*
X388053Y591111D01*
X386789Y589847D01*
X385301Y588853D01*
X383649Y588168D01*
X383422Y588123D01*
X383310Y588081D01*
X383197Y588040D01*
X383195Y588038D01*
X383192Y588037D01*
X383098Y587960D01*
X383005Y587886D01*
X383004Y587884D01*
X383001Y587882D01*
X382937Y587780D01*
X382872Y587679D01*
X382872Y587676D01*
X382870Y587674D01*
X382842Y587558D01*
X382812Y587441D01*
X382812Y587438D01*
X382812Y587435D01*
X382822Y587315D01*
X382831Y587196D01*
X382833Y587193D01*
X382833Y587190D01*
X382881Y587078D01*
X382928Y586969D01*
X382930Y586966D01*
X382931Y586964D01*
X382938Y586956D01*
X383032Y586838D01*
X458345Y511526D01*
X458419Y511473D01*
X458488Y511413D01*
X458519Y511401D01*
X458545Y511382D01*
X458632Y511355D01*
X458717Y511321D01*
X458758Y511317D01*
X458780Y511310D01*
X458812Y511311D01*
X458883Y511303D01*
X773017Y511303D01*
X773107Y511317D01*
X773198Y511325D01*
X773227Y511337D01*
X773259Y511342D01*
X773340Y511385D01*
X773424Y511421D01*
X773456Y511447D01*
X773477Y511458D01*
X773499Y511481D01*
X773555Y511526D01*
X786032Y524003D01*
X801878Y524003D01*
X801898Y524006D01*
X801917Y524004D01*
X802019Y524026D01*
X802121Y524042D01*
X802138Y524052D01*
X802158Y524056D01*
X802247Y524109D01*
X802338Y524158D01*
X802352Y524172D01*
X802369Y524182D01*
X802436Y524261D01*
X802508Y524336D01*
X802516Y524354D01*
X802529Y524369D01*
X802568Y524465D01*
X802611Y524559D01*
X802613Y524579D01*
X802621Y524597D01*
X802639Y524764D01*
X802639Y530341D01*
X804186Y534076D01*
X807044Y536934D01*
X810779Y538481D01*
X814821Y538481D01*
X818556Y536934D01*
X821414Y534076D01*
X822961Y530341D01*
X822961Y511059D01*
X821414Y507324D01*
X818556Y504466D01*
X814821Y502919D01*
X810779Y502919D01*
G37*
%LPD*%
G36*
X336213Y358904D02*
X336213Y358904D01*
X336221Y358903D01*
X336334Y358924D01*
X336448Y358942D01*
X336455Y358946D01*
X336463Y358948D01*
X336564Y359004D01*
X336665Y359058D01*
X336671Y359063D01*
X336678Y359067D01*
X336755Y359152D01*
X336834Y359236D01*
X336838Y359243D01*
X336843Y359249D01*
X336889Y359354D01*
X336938Y359459D01*
X336939Y359467D01*
X336942Y359474D01*
X336952Y359589D01*
X336965Y359703D01*
X336963Y359711D01*
X336964Y359719D01*
X336937Y359832D01*
X336913Y359944D01*
X336909Y359951D01*
X336907Y359958D01*
X336846Y360056D01*
X336787Y360155D01*
X336781Y360160D01*
X336776Y360167D01*
X336652Y360280D01*
X336281Y360550D01*
X335150Y361681D01*
X334210Y362975D01*
X333484Y364400D01*
X332989Y365921D01*
X332854Y366777D01*
X342138Y366777D01*
X342158Y366780D01*
X342177Y366778D01*
X342279Y366800D01*
X342381Y366817D01*
X342398Y366826D01*
X342418Y366830D01*
X342507Y366883D01*
X342598Y366932D01*
X342612Y366946D01*
X342629Y366956D01*
X342696Y367035D01*
X342767Y367110D01*
X342776Y367128D01*
X342789Y367143D01*
X342827Y367239D01*
X342871Y367333D01*
X342873Y367353D01*
X342881Y367371D01*
X342899Y367538D01*
X342899Y368301D01*
X342901Y368301D01*
X342901Y367538D01*
X342904Y367518D01*
X342902Y367499D01*
X342924Y367397D01*
X342941Y367295D01*
X342950Y367278D01*
X342954Y367258D01*
X343007Y367169D01*
X343056Y367078D01*
X343070Y367064D01*
X343080Y367047D01*
X343159Y366980D01*
X343234Y366909D01*
X343252Y366900D01*
X343267Y366887D01*
X343363Y366848D01*
X343457Y366805D01*
X343477Y366803D01*
X343495Y366795D01*
X343662Y366777D01*
X352946Y366777D01*
X352811Y365921D01*
X352316Y364400D01*
X351590Y362975D01*
X350650Y361681D01*
X349519Y360550D01*
X349148Y360280D01*
X349142Y360274D01*
X349135Y360270D01*
X349056Y360187D01*
X348975Y360105D01*
X348971Y360098D01*
X348966Y360092D01*
X348917Y359987D01*
X348866Y359884D01*
X348865Y359876D01*
X348862Y359869D01*
X348849Y359755D01*
X348834Y359640D01*
X348836Y359632D01*
X348835Y359625D01*
X348860Y359511D01*
X348881Y359399D01*
X348885Y359392D01*
X348887Y359384D01*
X348946Y359286D01*
X349003Y359185D01*
X349009Y359180D01*
X349013Y359173D01*
X349101Y359098D01*
X349187Y359022D01*
X349194Y359018D01*
X349200Y359013D01*
X349308Y358970D01*
X349413Y358925D01*
X349421Y358924D01*
X349428Y358921D01*
X349595Y358903D01*
X424990Y358903D01*
X425061Y358914D01*
X425132Y358916D01*
X425181Y358934D01*
X425233Y358942D01*
X425296Y358976D01*
X425363Y359001D01*
X425404Y359033D01*
X425450Y359058D01*
X425499Y359110D01*
X425555Y359154D01*
X425584Y359198D01*
X425620Y359236D01*
X425650Y359301D01*
X425688Y359361D01*
X425701Y359412D01*
X425723Y359459D01*
X425731Y359530D01*
X425749Y359600D01*
X425744Y359652D01*
X425750Y359703D01*
X425735Y359774D01*
X425729Y359845D01*
X425709Y359893D01*
X425698Y359944D01*
X425661Y360005D01*
X425633Y360071D01*
X425588Y360127D01*
X425572Y360155D01*
X425554Y360170D01*
X425528Y360202D01*
X423186Y362544D01*
X421639Y366279D01*
X421639Y370321D01*
X423186Y374056D01*
X426044Y376914D01*
X429779Y378461D01*
X433821Y378461D01*
X437556Y376914D01*
X440414Y374056D01*
X441961Y370321D01*
X441961Y366279D01*
X440414Y362544D01*
X438072Y360202D01*
X438030Y360144D01*
X437980Y360092D01*
X437959Y360045D01*
X437928Y360003D01*
X437907Y359934D01*
X437877Y359869D01*
X437871Y359817D01*
X437856Y359767D01*
X437858Y359696D01*
X437850Y359625D01*
X437861Y359574D01*
X437862Y359522D01*
X437887Y359454D01*
X437902Y359384D01*
X437929Y359339D01*
X437947Y359291D01*
X437991Y359235D01*
X438028Y359173D01*
X438068Y359139D01*
X438100Y359099D01*
X438161Y359060D01*
X438215Y359013D01*
X438263Y358994D01*
X438307Y358966D01*
X438377Y358948D01*
X438443Y358921D01*
X438515Y358913D01*
X438546Y358905D01*
X438569Y358907D01*
X438610Y358903D01*
X450390Y358903D01*
X450461Y358914D01*
X450532Y358916D01*
X450581Y358934D01*
X450633Y358942D01*
X450696Y358976D01*
X450763Y359001D01*
X450804Y359033D01*
X450850Y359058D01*
X450899Y359110D01*
X450955Y359154D01*
X450984Y359198D01*
X451020Y359236D01*
X451050Y359301D01*
X451088Y359361D01*
X451101Y359412D01*
X451123Y359459D01*
X451131Y359530D01*
X451149Y359600D01*
X451144Y359652D01*
X451150Y359703D01*
X451135Y359774D01*
X451129Y359845D01*
X451109Y359893D01*
X451098Y359944D01*
X451061Y360005D01*
X451033Y360071D01*
X450988Y360127D01*
X450972Y360155D01*
X450954Y360170D01*
X450928Y360202D01*
X448586Y362544D01*
X447039Y366279D01*
X447039Y370321D01*
X448586Y374056D01*
X451444Y376914D01*
X453427Y377735D01*
X453527Y377797D01*
X453627Y377857D01*
X453631Y377862D01*
X453636Y377865D01*
X453711Y377954D01*
X453787Y378044D01*
X453789Y378049D01*
X453793Y378054D01*
X453835Y378162D01*
X453879Y378272D01*
X453880Y378279D01*
X453881Y378284D01*
X453882Y378302D01*
X453897Y378439D01*
X453897Y379317D01*
X453883Y379406D01*
X453875Y379498D01*
X453863Y379527D01*
X453858Y379559D01*
X453815Y379640D01*
X453779Y379724D01*
X453753Y379756D01*
X453742Y379777D01*
X453719Y379799D01*
X453674Y379855D01*
X430655Y402874D01*
X430581Y402927D01*
X430512Y402987D01*
X430481Y402999D01*
X430455Y403018D01*
X430368Y403045D01*
X430283Y403079D01*
X430242Y403083D01*
X430220Y403090D01*
X430188Y403089D01*
X430117Y403097D01*
X328832Y403097D01*
X300035Y431894D01*
X299961Y431947D01*
X299892Y432007D01*
X299861Y432019D01*
X299835Y432038D01*
X299748Y432065D01*
X299707Y432081D01*
X292411Y439377D01*
X292403Y439428D01*
X292395Y439519D01*
X292383Y439548D01*
X292378Y439580D01*
X292335Y439661D01*
X292299Y439745D01*
X292273Y439777D01*
X292262Y439798D01*
X292239Y439820D01*
X292194Y439876D01*
X289549Y442522D01*
X289511Y442548D01*
X289480Y442582D01*
X289412Y442620D01*
X289349Y442665D01*
X289305Y442679D01*
X289265Y442701D01*
X289188Y442715D01*
X289114Y442737D01*
X289068Y442736D01*
X289023Y442744D01*
X288946Y442733D01*
X288868Y442731D01*
X288825Y442715D01*
X288779Y442709D01*
X288710Y442673D01*
X288637Y442647D01*
X288601Y442618D01*
X288560Y442597D01*
X288506Y442542D01*
X288445Y442493D01*
X288420Y442454D01*
X288388Y442422D01*
X288322Y442302D01*
X288312Y442286D01*
X288311Y442281D01*
X288307Y442275D01*
X287098Y439356D01*
X284544Y436802D01*
X281725Y435634D01*
X281686Y435610D01*
X281643Y435594D01*
X281595Y435556D01*
X281574Y435545D01*
X281564Y435535D01*
X281516Y435505D01*
X281487Y435469D01*
X281451Y435441D01*
X281409Y435375D01*
X281359Y435315D01*
X281343Y435272D01*
X281318Y435234D01*
X281299Y435158D01*
X281271Y435085D01*
X281269Y435040D01*
X281258Y434995D01*
X281264Y434918D01*
X281261Y434840D01*
X281273Y434796D01*
X281277Y434750D01*
X281307Y434678D01*
X281329Y434604D01*
X281355Y434566D01*
X281373Y434524D01*
X281459Y434417D01*
X281469Y434401D01*
X281473Y434398D01*
X281478Y434393D01*
X282926Y432945D01*
X320803Y395068D01*
X320803Y378439D01*
X320822Y378324D01*
X320839Y378208D01*
X320841Y378202D01*
X320842Y378196D01*
X320897Y378093D01*
X320950Y377988D01*
X320955Y377984D01*
X320958Y377978D01*
X321042Y377899D01*
X321126Y377816D01*
X321132Y377812D01*
X321136Y377809D01*
X321153Y377801D01*
X321273Y377735D01*
X323256Y376914D01*
X326114Y374056D01*
X327661Y370321D01*
X327661Y366279D01*
X326839Y364296D01*
X326813Y364182D01*
X326784Y364069D01*
X326785Y364063D01*
X326783Y364056D01*
X326794Y363940D01*
X326803Y363824D01*
X326806Y363818D01*
X326806Y363812D01*
X326854Y363704D01*
X326900Y363597D01*
X326904Y363591D01*
X326906Y363587D01*
X326919Y363573D01*
X327004Y363466D01*
X331345Y359126D01*
X331419Y359073D01*
X331488Y359013D01*
X331519Y359001D01*
X331545Y358982D01*
X331632Y358955D01*
X331717Y358921D01*
X331758Y358917D01*
X331780Y358910D01*
X331812Y358911D01*
X331883Y358903D01*
X336205Y358903D01*
X336213Y358904D01*
G37*
G36*
X569907Y358917D02*
X569907Y358917D01*
X569998Y358925D01*
X570027Y358937D01*
X570059Y358942D01*
X570140Y358985D01*
X570224Y359021D01*
X570256Y359047D01*
X570277Y359058D01*
X570299Y359081D01*
X570355Y359126D01*
X574696Y363466D01*
X574763Y363561D01*
X574834Y363655D01*
X574836Y363661D01*
X574839Y363666D01*
X574873Y363777D01*
X574910Y363889D01*
X574910Y363895D01*
X574912Y363901D01*
X574908Y364018D01*
X574907Y364135D01*
X574905Y364142D01*
X574905Y364147D01*
X574899Y364164D01*
X574861Y364296D01*
X574039Y366279D01*
X574039Y370321D01*
X575586Y374056D01*
X578444Y376914D01*
X582179Y378461D01*
X586221Y378461D01*
X589956Y376914D01*
X592814Y374056D01*
X594361Y370321D01*
X594361Y366279D01*
X593539Y364296D01*
X593513Y364182D01*
X593484Y364069D01*
X593485Y364063D01*
X593483Y364056D01*
X593494Y363940D01*
X593503Y363824D01*
X593506Y363818D01*
X593506Y363812D01*
X593554Y363704D01*
X593600Y363597D01*
X593604Y363591D01*
X593606Y363587D01*
X593619Y363573D01*
X593704Y363466D01*
X598045Y359126D01*
X598119Y359073D01*
X598188Y359013D01*
X598219Y359001D01*
X598245Y358982D01*
X598332Y358955D01*
X598417Y358921D01*
X598458Y358917D01*
X598480Y358910D01*
X598512Y358911D01*
X598583Y358903D01*
X602905Y358903D01*
X602913Y358904D01*
X602921Y358903D01*
X603034Y358924D01*
X603148Y358942D01*
X603155Y358946D01*
X603163Y358948D01*
X603264Y359004D01*
X603365Y359058D01*
X603371Y359063D01*
X603378Y359067D01*
X603455Y359152D01*
X603534Y359236D01*
X603538Y359243D01*
X603543Y359249D01*
X603589Y359354D01*
X603638Y359459D01*
X603639Y359467D01*
X603642Y359474D01*
X603652Y359589D01*
X603665Y359703D01*
X603663Y359711D01*
X603664Y359719D01*
X603637Y359832D01*
X603613Y359944D01*
X603609Y359951D01*
X603607Y359958D01*
X603546Y360056D01*
X603487Y360155D01*
X603481Y360160D01*
X603476Y360167D01*
X603352Y360280D01*
X602981Y360550D01*
X601850Y361681D01*
X600910Y362975D01*
X600184Y364400D01*
X599689Y365921D01*
X599554Y366777D01*
X608838Y366777D01*
X608858Y366780D01*
X608877Y366778D01*
X608979Y366800D01*
X609081Y366817D01*
X609098Y366826D01*
X609118Y366830D01*
X609207Y366883D01*
X609298Y366932D01*
X609312Y366946D01*
X609329Y366956D01*
X609396Y367035D01*
X609467Y367110D01*
X609476Y367128D01*
X609489Y367143D01*
X609527Y367239D01*
X609571Y367333D01*
X609573Y367353D01*
X609581Y367371D01*
X609599Y367538D01*
X609599Y368301D01*
X609601Y368301D01*
X609601Y367538D01*
X609604Y367518D01*
X609602Y367499D01*
X609624Y367397D01*
X609641Y367295D01*
X609650Y367278D01*
X609654Y367258D01*
X609707Y367169D01*
X609756Y367078D01*
X609770Y367064D01*
X609780Y367047D01*
X609859Y366980D01*
X609934Y366909D01*
X609952Y366900D01*
X609967Y366887D01*
X610063Y366848D01*
X610157Y366805D01*
X610177Y366803D01*
X610195Y366795D01*
X610362Y366777D01*
X619646Y366777D01*
X619511Y365921D01*
X619016Y364400D01*
X618290Y362975D01*
X617350Y361681D01*
X616219Y360550D01*
X615848Y360280D01*
X615842Y360274D01*
X615835Y360270D01*
X615756Y360187D01*
X615675Y360105D01*
X615671Y360098D01*
X615666Y360092D01*
X615617Y359987D01*
X615566Y359884D01*
X615565Y359876D01*
X615562Y359869D01*
X615549Y359755D01*
X615534Y359640D01*
X615536Y359632D01*
X615535Y359625D01*
X615560Y359511D01*
X615581Y359399D01*
X615585Y359392D01*
X615587Y359384D01*
X615646Y359286D01*
X615703Y359185D01*
X615709Y359180D01*
X615713Y359173D01*
X615801Y359098D01*
X615887Y359022D01*
X615894Y359018D01*
X615900Y359013D01*
X616008Y358970D01*
X616113Y358925D01*
X616121Y358924D01*
X616128Y358921D01*
X616295Y358903D01*
X691690Y358903D01*
X691761Y358914D01*
X691832Y358916D01*
X691881Y358934D01*
X691933Y358942D01*
X691996Y358976D01*
X692063Y359001D01*
X692104Y359033D01*
X692150Y359058D01*
X692199Y359110D01*
X692255Y359154D01*
X692284Y359198D01*
X692320Y359236D01*
X692350Y359301D01*
X692388Y359361D01*
X692401Y359412D01*
X692423Y359459D01*
X692431Y359530D01*
X692449Y359600D01*
X692444Y359652D01*
X692450Y359703D01*
X692435Y359774D01*
X692429Y359845D01*
X692409Y359893D01*
X692398Y359944D01*
X692361Y360005D01*
X692333Y360071D01*
X692288Y360127D01*
X692272Y360155D01*
X692254Y360170D01*
X692228Y360202D01*
X689886Y362544D01*
X688339Y366279D01*
X688339Y370321D01*
X689886Y374056D01*
X692744Y376914D01*
X696479Y378461D01*
X700521Y378461D01*
X704256Y376914D01*
X707114Y374056D01*
X708661Y370321D01*
X708661Y366279D01*
X707114Y362544D01*
X704772Y360202D01*
X704730Y360144D01*
X704680Y360092D01*
X704659Y360045D01*
X704628Y360003D01*
X704607Y359934D01*
X704577Y359869D01*
X704571Y359817D01*
X704556Y359767D01*
X704558Y359696D01*
X704550Y359625D01*
X704561Y359574D01*
X704562Y359522D01*
X704587Y359454D01*
X704602Y359384D01*
X704629Y359339D01*
X704647Y359291D01*
X704691Y359235D01*
X704728Y359173D01*
X704768Y359139D01*
X704800Y359099D01*
X704861Y359060D01*
X704915Y359013D01*
X704963Y358994D01*
X705007Y358966D01*
X705077Y358948D01*
X705143Y358921D01*
X705215Y358913D01*
X705246Y358905D01*
X705269Y358907D01*
X705310Y358903D01*
X717090Y358903D01*
X717161Y358914D01*
X717232Y358916D01*
X717281Y358934D01*
X717333Y358942D01*
X717396Y358976D01*
X717463Y359001D01*
X717504Y359033D01*
X717550Y359058D01*
X717599Y359110D01*
X717655Y359154D01*
X717684Y359198D01*
X717720Y359236D01*
X717750Y359301D01*
X717788Y359361D01*
X717801Y359412D01*
X717823Y359459D01*
X717831Y359530D01*
X717849Y359600D01*
X717844Y359652D01*
X717850Y359703D01*
X717835Y359774D01*
X717829Y359845D01*
X717809Y359893D01*
X717798Y359944D01*
X717761Y360005D01*
X717733Y360071D01*
X717688Y360127D01*
X717672Y360155D01*
X717654Y360170D01*
X717628Y360202D01*
X715286Y362544D01*
X713739Y366279D01*
X713739Y370321D01*
X715286Y374056D01*
X718144Y376914D01*
X721879Y378461D01*
X725921Y378461D01*
X729656Y376914D01*
X732514Y374056D01*
X734061Y370321D01*
X734061Y366279D01*
X732514Y362544D01*
X730172Y360202D01*
X730130Y360144D01*
X730080Y360092D01*
X730059Y360045D01*
X730028Y360003D01*
X730007Y359934D01*
X729977Y359869D01*
X729971Y359817D01*
X729956Y359767D01*
X729958Y359696D01*
X729950Y359625D01*
X729961Y359574D01*
X729962Y359522D01*
X729987Y359454D01*
X730002Y359384D01*
X730029Y359339D01*
X730047Y359291D01*
X730091Y359235D01*
X730128Y359173D01*
X730168Y359139D01*
X730200Y359099D01*
X730261Y359060D01*
X730315Y359013D01*
X730363Y358994D01*
X730407Y358966D01*
X730477Y358948D01*
X730543Y358921D01*
X730615Y358913D01*
X730646Y358905D01*
X730669Y358907D01*
X730710Y358903D01*
X742490Y358903D01*
X742561Y358914D01*
X742632Y358916D01*
X742681Y358934D01*
X742733Y358942D01*
X742796Y358976D01*
X742863Y359001D01*
X742904Y359033D01*
X742950Y359058D01*
X742999Y359110D01*
X743055Y359154D01*
X743084Y359198D01*
X743120Y359236D01*
X743150Y359301D01*
X743188Y359361D01*
X743201Y359412D01*
X743223Y359459D01*
X743231Y359530D01*
X743249Y359600D01*
X743244Y359652D01*
X743250Y359703D01*
X743235Y359774D01*
X743229Y359845D01*
X743209Y359893D01*
X743198Y359944D01*
X743161Y360005D01*
X743133Y360071D01*
X743088Y360127D01*
X743072Y360155D01*
X743054Y360170D01*
X743028Y360202D01*
X740686Y362544D01*
X739139Y366279D01*
X739139Y370321D01*
X740686Y374056D01*
X743544Y376914D01*
X747279Y378461D01*
X751321Y378461D01*
X755056Y376914D01*
X757914Y374056D01*
X759461Y370321D01*
X759461Y366279D01*
X757914Y362544D01*
X755572Y360202D01*
X755530Y360144D01*
X755480Y360092D01*
X755459Y360045D01*
X755428Y360003D01*
X755407Y359934D01*
X755377Y359869D01*
X755371Y359817D01*
X755356Y359767D01*
X755358Y359696D01*
X755350Y359625D01*
X755361Y359574D01*
X755362Y359522D01*
X755387Y359454D01*
X755402Y359384D01*
X755429Y359339D01*
X755447Y359291D01*
X755491Y359235D01*
X755528Y359173D01*
X755568Y359139D01*
X755600Y359099D01*
X755661Y359060D01*
X755715Y359013D01*
X755763Y358994D01*
X755807Y358966D01*
X755877Y358948D01*
X755943Y358921D01*
X756015Y358913D01*
X756046Y358905D01*
X756069Y358907D01*
X756110Y358903D01*
X767890Y358903D01*
X767961Y358914D01*
X768032Y358916D01*
X768081Y358934D01*
X768133Y358942D01*
X768196Y358976D01*
X768263Y359001D01*
X768304Y359033D01*
X768350Y359058D01*
X768399Y359110D01*
X768455Y359154D01*
X768484Y359198D01*
X768520Y359236D01*
X768550Y359301D01*
X768588Y359361D01*
X768601Y359412D01*
X768623Y359459D01*
X768631Y359530D01*
X768649Y359600D01*
X768644Y359652D01*
X768650Y359703D01*
X768635Y359774D01*
X768629Y359845D01*
X768609Y359893D01*
X768598Y359944D01*
X768561Y360005D01*
X768533Y360071D01*
X768488Y360127D01*
X768472Y360155D01*
X768454Y360170D01*
X768428Y360202D01*
X766086Y362544D01*
X764539Y366279D01*
X764539Y370321D01*
X766086Y374056D01*
X768944Y376914D01*
X772679Y378461D01*
X776721Y378461D01*
X780456Y376914D01*
X783314Y374056D01*
X784861Y370321D01*
X784861Y366279D01*
X783314Y362544D01*
X780972Y360202D01*
X780930Y360144D01*
X780880Y360092D01*
X780859Y360045D01*
X780828Y360003D01*
X780807Y359934D01*
X780777Y359869D01*
X780771Y359817D01*
X780756Y359767D01*
X780758Y359696D01*
X780750Y359625D01*
X780761Y359574D01*
X780762Y359522D01*
X780787Y359454D01*
X780802Y359384D01*
X780829Y359339D01*
X780847Y359291D01*
X780891Y359235D01*
X780928Y359173D01*
X780968Y359139D01*
X781000Y359099D01*
X781061Y359060D01*
X781115Y359013D01*
X781163Y358994D01*
X781207Y358966D01*
X781277Y358948D01*
X781343Y358921D01*
X781415Y358913D01*
X781446Y358905D01*
X781469Y358907D01*
X781510Y358903D01*
X793290Y358903D01*
X793361Y358914D01*
X793432Y358916D01*
X793481Y358934D01*
X793533Y358942D01*
X793596Y358976D01*
X793663Y359001D01*
X793704Y359033D01*
X793750Y359058D01*
X793799Y359110D01*
X793855Y359154D01*
X793884Y359198D01*
X793920Y359236D01*
X793950Y359301D01*
X793988Y359361D01*
X794001Y359412D01*
X794023Y359459D01*
X794031Y359530D01*
X794049Y359600D01*
X794044Y359652D01*
X794050Y359703D01*
X794035Y359774D01*
X794029Y359845D01*
X794009Y359893D01*
X793998Y359944D01*
X793961Y360005D01*
X793933Y360071D01*
X793888Y360127D01*
X793872Y360155D01*
X793854Y360170D01*
X793828Y360202D01*
X791486Y362544D01*
X789939Y366279D01*
X789939Y370321D01*
X791486Y374056D01*
X794344Y376914D01*
X798079Y378461D01*
X802121Y378461D01*
X805856Y376914D01*
X808714Y374056D01*
X810261Y370321D01*
X810261Y366279D01*
X808714Y362544D01*
X806372Y360202D01*
X806330Y360144D01*
X806280Y360092D01*
X806259Y360045D01*
X806228Y360003D01*
X806207Y359934D01*
X806177Y359869D01*
X806171Y359817D01*
X806156Y359767D01*
X806158Y359696D01*
X806150Y359625D01*
X806161Y359574D01*
X806162Y359522D01*
X806187Y359454D01*
X806202Y359384D01*
X806229Y359339D01*
X806247Y359291D01*
X806291Y359235D01*
X806328Y359173D01*
X806368Y359139D01*
X806400Y359099D01*
X806461Y359060D01*
X806515Y359013D01*
X806563Y358994D01*
X806607Y358966D01*
X806677Y358948D01*
X806743Y358921D01*
X806815Y358913D01*
X806846Y358905D01*
X806869Y358907D01*
X806910Y358903D01*
X818690Y358903D01*
X818761Y358914D01*
X818832Y358916D01*
X818881Y358934D01*
X818933Y358942D01*
X818996Y358976D01*
X819063Y359001D01*
X819104Y359033D01*
X819150Y359058D01*
X819199Y359110D01*
X819255Y359154D01*
X819284Y359198D01*
X819320Y359236D01*
X819350Y359301D01*
X819388Y359361D01*
X819401Y359412D01*
X819423Y359459D01*
X819431Y359530D01*
X819449Y359600D01*
X819444Y359652D01*
X819450Y359703D01*
X819435Y359774D01*
X819429Y359845D01*
X819409Y359893D01*
X819398Y359944D01*
X819361Y360005D01*
X819333Y360071D01*
X819288Y360127D01*
X819272Y360155D01*
X819254Y360170D01*
X819228Y360202D01*
X816886Y362544D01*
X815339Y366279D01*
X815339Y370321D01*
X816161Y372304D01*
X816187Y372418D01*
X816216Y372531D01*
X816215Y372537D01*
X816217Y372544D01*
X816206Y372660D01*
X816197Y372776D01*
X816194Y372782D01*
X816194Y372788D01*
X816146Y372896D01*
X816100Y373003D01*
X816096Y373009D01*
X816094Y373013D01*
X816081Y373027D01*
X815996Y373134D01*
X798955Y390174D01*
X798881Y390227D01*
X798812Y390287D01*
X798781Y390299D01*
X798755Y390318D01*
X798668Y390345D01*
X798583Y390379D01*
X798542Y390383D01*
X798520Y390390D01*
X798488Y390389D01*
X798417Y390397D01*
X585883Y390397D01*
X585793Y390383D01*
X585702Y390375D01*
X585673Y390363D01*
X585641Y390358D01*
X585560Y390315D01*
X585476Y390279D01*
X585444Y390253D01*
X585423Y390242D01*
X585401Y390219D01*
X585345Y390174D01*
X568304Y373134D01*
X568237Y373040D01*
X568166Y372945D01*
X568164Y372939D01*
X568161Y372934D01*
X568127Y372823D01*
X568090Y372711D01*
X568090Y372705D01*
X568088Y372699D01*
X568092Y372582D01*
X568093Y372465D01*
X568095Y372458D01*
X568095Y372453D01*
X568101Y372436D01*
X568139Y372304D01*
X568961Y370321D01*
X568961Y366279D01*
X567414Y362544D01*
X565072Y360202D01*
X565030Y360144D01*
X564980Y360092D01*
X564959Y360045D01*
X564928Y360003D01*
X564907Y359934D01*
X564877Y359869D01*
X564871Y359817D01*
X564856Y359767D01*
X564858Y359696D01*
X564850Y359625D01*
X564861Y359574D01*
X564862Y359522D01*
X564887Y359454D01*
X564902Y359384D01*
X564929Y359339D01*
X564947Y359291D01*
X564991Y359235D01*
X565028Y359173D01*
X565068Y359139D01*
X565100Y359099D01*
X565161Y359060D01*
X565215Y359013D01*
X565263Y358994D01*
X565307Y358966D01*
X565377Y358948D01*
X565443Y358921D01*
X565515Y358913D01*
X565546Y358905D01*
X565569Y358907D01*
X565610Y358903D01*
X569817Y358903D01*
X569907Y358917D01*
G37*
%LPC*%
G36*
X810779Y426719D02*
X810779Y426719D01*
X807044Y428266D01*
X804186Y431124D01*
X802639Y434859D01*
X802639Y440436D01*
X802636Y440456D01*
X802638Y440475D01*
X802616Y440577D01*
X802600Y440679D01*
X802590Y440696D01*
X802586Y440716D01*
X802533Y440805D01*
X802484Y440896D01*
X802470Y440910D01*
X802460Y440927D01*
X802381Y440994D01*
X802306Y441066D01*
X802288Y441074D01*
X802273Y441087D01*
X802177Y441126D01*
X802083Y441169D01*
X802063Y441171D01*
X802045Y441179D01*
X801878Y441197D01*
X493932Y441197D01*
X367155Y567974D01*
X367081Y568027D01*
X367012Y568087D01*
X366981Y568099D01*
X366955Y568118D01*
X366868Y568145D01*
X366783Y568179D01*
X366742Y568183D01*
X366720Y568190D01*
X366688Y568189D01*
X366617Y568197D01*
X278032Y568197D01*
X275874Y570355D01*
X258007Y588222D01*
X257913Y588290D01*
X257818Y588360D01*
X257812Y588362D01*
X257807Y588366D01*
X257696Y588400D01*
X257585Y588436D01*
X257578Y588436D01*
X257572Y588438D01*
X257455Y588435D01*
X257339Y588434D01*
X257331Y588432D01*
X257326Y588432D01*
X257309Y588425D01*
X257177Y588387D01*
X255806Y587819D01*
X252194Y587819D01*
X248856Y589202D01*
X246302Y591756D01*
X244919Y595094D01*
X244919Y598706D01*
X246302Y602044D01*
X248856Y604598D01*
X252194Y605981D01*
X255806Y605981D01*
X259144Y604598D01*
X261698Y602044D01*
X263081Y598706D01*
X263081Y595094D01*
X262513Y593723D01*
X262486Y593609D01*
X262458Y593495D01*
X262458Y593489D01*
X262457Y593483D01*
X262468Y593366D01*
X262477Y593250D01*
X262479Y593245D01*
X262480Y593238D01*
X262528Y593131D01*
X262573Y593024D01*
X262578Y593018D01*
X262580Y593013D01*
X262592Y593000D01*
X262678Y592893D01*
X280545Y575026D01*
X280619Y574973D01*
X280688Y574913D01*
X280719Y574901D01*
X280745Y574882D01*
X280832Y574855D01*
X280917Y574821D01*
X280958Y574817D01*
X280980Y574810D01*
X281012Y574811D01*
X281083Y574803D01*
X369668Y574803D01*
X496445Y448026D01*
X496519Y447973D01*
X496588Y447913D01*
X496619Y447901D01*
X496645Y447882D01*
X496732Y447855D01*
X496817Y447821D01*
X496858Y447817D01*
X496880Y447810D01*
X496912Y447811D01*
X496983Y447803D01*
X801878Y447803D01*
X801898Y447806D01*
X801917Y447804D01*
X802019Y447826D01*
X802121Y447842D01*
X802138Y447852D01*
X802158Y447856D01*
X802247Y447909D01*
X802338Y447958D01*
X802352Y447972D01*
X802369Y447982D01*
X802436Y448061D01*
X802508Y448136D01*
X802516Y448154D01*
X802529Y448169D01*
X802568Y448265D01*
X802611Y448359D01*
X802613Y448379D01*
X802621Y448397D01*
X802639Y448564D01*
X802639Y454141D01*
X804186Y457876D01*
X807044Y460734D01*
X810779Y462281D01*
X814821Y462281D01*
X818556Y460734D01*
X821414Y457876D01*
X822961Y454141D01*
X822961Y434859D01*
X821414Y431124D01*
X818556Y428266D01*
X814821Y426719D01*
X810779Y426719D01*
G37*
%LPD*%
%LPC*%
G36*
X264679Y358139D02*
X264679Y358139D01*
X260944Y359686D01*
X258086Y362544D01*
X256539Y366279D01*
X256539Y370321D01*
X258086Y374056D01*
X260944Y376914D01*
X262927Y377735D01*
X263027Y377797D01*
X263127Y377857D01*
X263131Y377862D01*
X263136Y377865D01*
X263211Y377954D01*
X263287Y378044D01*
X263289Y378049D01*
X263293Y378054D01*
X263335Y378162D01*
X263379Y378272D01*
X263380Y378279D01*
X263381Y378284D01*
X263382Y378302D01*
X263397Y378439D01*
X263397Y379317D01*
X263383Y379406D01*
X263375Y379498D01*
X263363Y379527D01*
X263358Y379559D01*
X263315Y379640D01*
X263279Y379724D01*
X263253Y379756D01*
X263242Y379777D01*
X263219Y379799D01*
X263174Y379855D01*
X252855Y390174D01*
X252781Y390227D01*
X252712Y390287D01*
X252681Y390299D01*
X252655Y390318D01*
X252568Y390345D01*
X252483Y390379D01*
X252442Y390383D01*
X252420Y390390D01*
X252388Y390389D01*
X252317Y390397D01*
X62132Y390397D01*
X34797Y417732D01*
X34797Y610968D01*
X49432Y625603D01*
X128368Y625603D01*
X130526Y623445D01*
X148393Y605578D01*
X148487Y605510D01*
X148582Y605440D01*
X148588Y605438D01*
X148593Y605434D01*
X148704Y605400D01*
X148815Y605364D01*
X148822Y605364D01*
X148828Y605362D01*
X148945Y605365D01*
X149061Y605366D01*
X149069Y605368D01*
X149074Y605368D01*
X149091Y605375D01*
X149223Y605413D01*
X150594Y605981D01*
X154206Y605981D01*
X157544Y604598D01*
X160098Y602044D01*
X161481Y598706D01*
X161481Y595094D01*
X160098Y591756D01*
X157544Y589202D01*
X154206Y587819D01*
X150594Y587819D01*
X147256Y589202D01*
X144702Y591756D01*
X143319Y595094D01*
X143319Y598706D01*
X143887Y600077D01*
X143914Y600191D01*
X143942Y600305D01*
X143942Y600311D01*
X143943Y600317D01*
X143932Y600434D01*
X143923Y600550D01*
X143921Y600555D01*
X143920Y600562D01*
X143872Y600669D01*
X143827Y600776D01*
X143822Y600782D01*
X143820Y600787D01*
X143808Y600800D01*
X143722Y600907D01*
X125855Y618774D01*
X125781Y618827D01*
X125712Y618887D01*
X125681Y618899D01*
X125655Y618918D01*
X125568Y618945D01*
X125483Y618979D01*
X125442Y618983D01*
X125420Y618990D01*
X125388Y618989D01*
X125317Y618997D01*
X52483Y618997D01*
X52393Y618983D01*
X52302Y618975D01*
X52273Y618963D01*
X52241Y618958D01*
X52160Y618915D01*
X52076Y618879D01*
X52044Y618853D01*
X52023Y618842D01*
X52001Y618819D01*
X51945Y618774D01*
X41626Y608455D01*
X41573Y608381D01*
X41513Y608312D01*
X41501Y608281D01*
X41482Y608255D01*
X41455Y608168D01*
X41421Y608083D01*
X41417Y608042D01*
X41410Y608020D01*
X41411Y607988D01*
X41403Y607917D01*
X41403Y420783D01*
X41417Y420693D01*
X41425Y420602D01*
X41437Y420573D01*
X41442Y420541D01*
X41485Y420460D01*
X41521Y420376D01*
X41547Y420344D01*
X41558Y420323D01*
X41581Y420301D01*
X41626Y420245D01*
X64645Y397226D01*
X64719Y397173D01*
X64788Y397113D01*
X64819Y397101D01*
X64845Y397082D01*
X64932Y397055D01*
X65017Y397021D01*
X65058Y397017D01*
X65080Y397010D01*
X65112Y397011D01*
X65183Y397003D01*
X255368Y397003D01*
X270003Y382368D01*
X270003Y378439D01*
X270022Y378324D01*
X270039Y378208D01*
X270041Y378202D01*
X270042Y378196D01*
X270097Y378093D01*
X270150Y377988D01*
X270155Y377984D01*
X270158Y377978D01*
X270242Y377899D01*
X270326Y377816D01*
X270332Y377812D01*
X270336Y377809D01*
X270353Y377801D01*
X270473Y377735D01*
X272456Y376914D01*
X275314Y374056D01*
X276861Y370321D01*
X276861Y366279D01*
X275314Y362544D01*
X272456Y359686D01*
X268721Y358139D01*
X264679Y358139D01*
G37*
%LPD*%
%LPC*%
G36*
X393256Y28447D02*
X393256Y28447D01*
X388681Y30342D01*
X385180Y33843D01*
X383285Y38418D01*
X383285Y63182D01*
X385180Y67757D01*
X388681Y71258D01*
X391959Y72616D01*
X392059Y72677D01*
X392159Y72737D01*
X392163Y72742D01*
X392168Y72745D01*
X392243Y72835D01*
X392319Y72924D01*
X392321Y72930D01*
X392325Y72935D01*
X392367Y73043D01*
X392411Y73152D01*
X392412Y73160D01*
X392413Y73164D01*
X392414Y73183D01*
X392429Y73319D01*
X392429Y135985D01*
X392415Y136075D01*
X392407Y136166D01*
X392395Y136195D01*
X392390Y136227D01*
X392347Y136308D01*
X392311Y136392D01*
X392285Y136424D01*
X392274Y136445D01*
X392251Y136467D01*
X392206Y136523D01*
X296934Y231796D01*
X296840Y231863D01*
X296745Y231934D01*
X296739Y231936D01*
X296734Y231939D01*
X296623Y231973D01*
X296511Y232010D01*
X296505Y232010D01*
X296499Y232012D01*
X296382Y232008D01*
X296265Y232007D01*
X296258Y232005D01*
X296253Y232005D01*
X296235Y231999D01*
X296104Y231961D01*
X294121Y231139D01*
X290079Y231139D01*
X286344Y232686D01*
X283486Y235544D01*
X281939Y239279D01*
X281939Y243321D01*
X283486Y247056D01*
X286344Y249914D01*
X290079Y251461D01*
X294121Y251461D01*
X297856Y249914D01*
X300714Y247056D01*
X302261Y243321D01*
X302261Y239279D01*
X301439Y237296D01*
X301429Y237253D01*
X301413Y237218D01*
X301406Y237157D01*
X301384Y237069D01*
X301385Y237063D01*
X301383Y237056D01*
X301389Y236998D01*
X301386Y236974D01*
X301395Y236934D01*
X301403Y236824D01*
X301406Y236818D01*
X301406Y236812D01*
X301436Y236746D01*
X301438Y236733D01*
X301449Y236715D01*
X301454Y236704D01*
X301500Y236597D01*
X301504Y236591D01*
X301506Y236587D01*
X301519Y236573D01*
X301604Y236466D01*
X396877Y141194D01*
X399035Y139036D01*
X399035Y73319D01*
X399036Y73310D01*
X399036Y73305D01*
X399041Y73282D01*
X399054Y73204D01*
X399071Y73088D01*
X399073Y73082D01*
X399074Y73076D01*
X399129Y72973D01*
X399182Y72869D01*
X399187Y72864D01*
X399190Y72859D01*
X399274Y72779D01*
X399358Y72696D01*
X399364Y72693D01*
X399368Y72689D01*
X399385Y72682D01*
X399505Y72616D01*
X402783Y71258D01*
X406284Y67757D01*
X408179Y63182D01*
X408179Y38418D01*
X406284Y33843D01*
X402783Y30342D01*
X398208Y28447D01*
X393256Y28447D01*
G37*
%LPD*%
%LPC*%
G36*
X342964Y28447D02*
X342964Y28447D01*
X338389Y30342D01*
X334888Y33843D01*
X332993Y38418D01*
X332993Y63182D01*
X334888Y67757D01*
X338389Y71258D01*
X341667Y72616D01*
X341767Y72677D01*
X341867Y72737D01*
X341871Y72742D01*
X341876Y72745D01*
X341951Y72835D01*
X342027Y72924D01*
X342029Y72930D01*
X342033Y72935D01*
X342075Y73043D01*
X342119Y73152D01*
X342120Y73160D01*
X342121Y73164D01*
X342122Y73183D01*
X342137Y73319D01*
X342137Y160877D01*
X342123Y160967D01*
X342115Y161058D01*
X342103Y161087D01*
X342098Y161119D01*
X342073Y161166D01*
X342072Y161168D01*
X342067Y161177D01*
X342055Y161200D01*
X342019Y161284D01*
X341993Y161316D01*
X341982Y161337D01*
X341959Y161359D01*
X341956Y161363D01*
X341946Y161379D01*
X341936Y161388D01*
X341914Y161415D01*
X271534Y231796D01*
X271440Y231863D01*
X271345Y231934D01*
X271339Y231936D01*
X271334Y231939D01*
X271223Y231973D01*
X271111Y232010D01*
X271105Y232010D01*
X271099Y232012D01*
X270982Y232008D01*
X270865Y232007D01*
X270858Y232005D01*
X270853Y232005D01*
X270835Y231999D01*
X270704Y231961D01*
X268721Y231139D01*
X264679Y231139D01*
X260944Y232686D01*
X258086Y235544D01*
X256539Y239279D01*
X256539Y243321D01*
X258086Y247056D01*
X260944Y249914D01*
X264679Y251461D01*
X268721Y251461D01*
X272456Y249914D01*
X275314Y247056D01*
X276861Y243321D01*
X276861Y239279D01*
X276039Y237296D01*
X276029Y237253D01*
X276013Y237218D01*
X276006Y237157D01*
X275984Y237069D01*
X275985Y237063D01*
X275983Y237056D01*
X275989Y236998D01*
X275986Y236974D01*
X275995Y236934D01*
X276003Y236824D01*
X276006Y236818D01*
X276006Y236812D01*
X276036Y236746D01*
X276038Y236733D01*
X276049Y236715D01*
X276054Y236704D01*
X276100Y236597D01*
X276104Y236591D01*
X276106Y236587D01*
X276119Y236573D01*
X276204Y236466D01*
X346585Y166086D01*
X348743Y163928D01*
X348743Y73319D01*
X348744Y73310D01*
X348744Y73305D01*
X348749Y73282D01*
X348762Y73204D01*
X348779Y73088D01*
X348781Y73082D01*
X348782Y73076D01*
X348837Y72973D01*
X348890Y72869D01*
X348895Y72864D01*
X348898Y72859D01*
X348982Y72779D01*
X349066Y72696D01*
X349072Y72693D01*
X349076Y72689D01*
X349093Y72682D01*
X349213Y72616D01*
X352491Y71258D01*
X355992Y67757D01*
X357887Y63182D01*
X357887Y38418D01*
X355992Y33843D01*
X352491Y30342D01*
X347916Y28447D01*
X342964Y28447D01*
G37*
%LPD*%
%LPC*%
G36*
X292926Y28447D02*
X292926Y28447D01*
X288351Y30342D01*
X284850Y33843D01*
X282955Y38418D01*
X282955Y63182D01*
X284850Y67757D01*
X288351Y71258D01*
X291629Y72616D01*
X291729Y72677D01*
X291829Y72737D01*
X291833Y72742D01*
X291838Y72745D01*
X291913Y72835D01*
X291989Y72924D01*
X291991Y72930D01*
X291995Y72935D01*
X292037Y73043D01*
X292081Y73152D01*
X292082Y73160D01*
X292083Y73164D01*
X292084Y73183D01*
X292099Y73319D01*
X292099Y185515D01*
X292085Y185605D01*
X292077Y185696D01*
X292065Y185725D01*
X292060Y185757D01*
X292017Y185838D01*
X291981Y185922D01*
X291955Y185954D01*
X291944Y185975D01*
X291921Y185997D01*
X291876Y186053D01*
X246134Y231796D01*
X246040Y231863D01*
X245945Y231934D01*
X245939Y231936D01*
X245934Y231939D01*
X245823Y231973D01*
X245711Y232010D01*
X245705Y232010D01*
X245699Y232012D01*
X245582Y232008D01*
X245465Y232007D01*
X245458Y232005D01*
X245453Y232005D01*
X245436Y231999D01*
X245304Y231961D01*
X243321Y231139D01*
X239279Y231139D01*
X235544Y232686D01*
X232686Y235544D01*
X231139Y239279D01*
X231139Y243321D01*
X232686Y247056D01*
X235544Y249914D01*
X239279Y251461D01*
X243321Y251461D01*
X247056Y249914D01*
X249914Y247056D01*
X251461Y243321D01*
X251461Y239279D01*
X250639Y237296D01*
X250629Y237253D01*
X250613Y237218D01*
X250606Y237157D01*
X250584Y237069D01*
X250585Y237063D01*
X250583Y237056D01*
X250589Y236998D01*
X250586Y236974D01*
X250595Y236934D01*
X250603Y236824D01*
X250606Y236818D01*
X250606Y236812D01*
X250636Y236746D01*
X250638Y236733D01*
X250649Y236715D01*
X250654Y236704D01*
X250700Y236597D01*
X250704Y236591D01*
X250706Y236587D01*
X250719Y236573D01*
X250804Y236466D01*
X296547Y190724D01*
X298705Y188566D01*
X298705Y73319D01*
X298706Y73310D01*
X298706Y73305D01*
X298711Y73282D01*
X298724Y73204D01*
X298741Y73088D01*
X298743Y73082D01*
X298744Y73076D01*
X298799Y72973D01*
X298852Y72869D01*
X298857Y72864D01*
X298860Y72859D01*
X298944Y72779D01*
X299028Y72696D01*
X299034Y72693D01*
X299038Y72689D01*
X299055Y72682D01*
X299175Y72616D01*
X302453Y71258D01*
X305954Y67757D01*
X307849Y63182D01*
X307849Y38418D01*
X305954Y33843D01*
X302453Y30342D01*
X297878Y28447D01*
X292926Y28447D01*
G37*
%LPD*%
%LPC*%
G36*
X443294Y28447D02*
X443294Y28447D01*
X438719Y30342D01*
X435218Y33843D01*
X433323Y38418D01*
X433323Y63182D01*
X435218Y67757D01*
X438719Y71258D01*
X440727Y72090D01*
X440827Y72151D01*
X440927Y72211D01*
X440931Y72216D01*
X440936Y72219D01*
X441011Y72309D01*
X441087Y72398D01*
X441089Y72404D01*
X441093Y72409D01*
X441135Y72517D01*
X441179Y72626D01*
X441180Y72634D01*
X441181Y72638D01*
X441182Y72657D01*
X441197Y72793D01*
X441197Y141068D01*
X479074Y178945D01*
X479127Y179019D01*
X479187Y179088D01*
X479199Y179119D01*
X479218Y179145D01*
X479245Y179232D01*
X479279Y179317D01*
X479283Y179358D01*
X479290Y179380D01*
X479289Y179412D01*
X479297Y179483D01*
X479297Y231162D01*
X479278Y231276D01*
X479261Y231392D01*
X479259Y231398D01*
X479258Y231404D01*
X479203Y231507D01*
X479150Y231612D01*
X479145Y231616D01*
X479142Y231622D01*
X479058Y231701D01*
X478974Y231784D01*
X478968Y231788D01*
X478964Y231791D01*
X478947Y231799D01*
X478827Y231865D01*
X476844Y232686D01*
X473986Y235544D01*
X472439Y239279D01*
X472439Y243321D01*
X473986Y247056D01*
X476844Y249914D01*
X480579Y251461D01*
X484621Y251461D01*
X488356Y249914D01*
X491214Y247056D01*
X492761Y243321D01*
X492761Y239279D01*
X491214Y235544D01*
X488356Y232686D01*
X486373Y231865D01*
X486273Y231803D01*
X486173Y231743D01*
X486169Y231739D01*
X486164Y231735D01*
X486089Y231645D01*
X486013Y231556D01*
X486011Y231551D01*
X486007Y231546D01*
X485965Y231437D01*
X485921Y231328D01*
X485920Y231321D01*
X485919Y231316D01*
X485918Y231298D01*
X485903Y231162D01*
X485903Y176432D01*
X448026Y138555D01*
X447979Y138489D01*
X447969Y138479D01*
X447966Y138473D01*
X447913Y138412D01*
X447901Y138381D01*
X447882Y138355D01*
X447855Y138268D01*
X447821Y138183D01*
X447817Y138142D01*
X447810Y138120D01*
X447811Y138088D01*
X447803Y138017D01*
X447803Y73845D01*
X447822Y73730D01*
X447839Y73614D01*
X447841Y73608D01*
X447842Y73602D01*
X447897Y73500D01*
X447950Y73395D01*
X447955Y73390D01*
X447958Y73385D01*
X448042Y73305D01*
X448126Y73222D01*
X448132Y73219D01*
X448136Y73215D01*
X448153Y73208D01*
X448273Y73142D01*
X452821Y71258D01*
X456322Y67757D01*
X458217Y63182D01*
X458217Y38418D01*
X456322Y33843D01*
X452821Y30342D01*
X448246Y28447D01*
X443294Y28447D01*
G37*
%LPD*%
%LPC*%
G36*
X593154Y28447D02*
X593154Y28447D01*
X588579Y30342D01*
X585078Y33843D01*
X583183Y38418D01*
X583183Y63182D01*
X585078Y67757D01*
X588579Y71258D01*
X593127Y73142D01*
X593227Y73204D01*
X593327Y73263D01*
X593331Y73268D01*
X593336Y73271D01*
X593411Y73362D01*
X593487Y73450D01*
X593489Y73456D01*
X593493Y73461D01*
X593535Y73569D01*
X593579Y73678D01*
X593580Y73686D01*
X593581Y73690D01*
X593582Y73709D01*
X593597Y73845D01*
X593597Y138017D01*
X593583Y138107D01*
X593575Y138198D01*
X593563Y138227D01*
X593558Y138259D01*
X593515Y138340D01*
X593479Y138424D01*
X593453Y138456D01*
X593442Y138477D01*
X593419Y138499D01*
X593374Y138555D01*
X555497Y176432D01*
X555497Y231162D01*
X555478Y231276D01*
X555461Y231392D01*
X555459Y231398D01*
X555458Y231404D01*
X555403Y231507D01*
X555350Y231612D01*
X555345Y231616D01*
X555342Y231622D01*
X555258Y231701D01*
X555174Y231784D01*
X555168Y231788D01*
X555164Y231791D01*
X555147Y231799D01*
X555027Y231865D01*
X553044Y232686D01*
X550186Y235544D01*
X548639Y239279D01*
X548639Y243321D01*
X550186Y247056D01*
X553044Y249914D01*
X556779Y251461D01*
X560821Y251461D01*
X564556Y249914D01*
X567414Y247056D01*
X568961Y243321D01*
X568961Y239279D01*
X567414Y235544D01*
X564556Y232686D01*
X562573Y231865D01*
X562473Y231803D01*
X562373Y231743D01*
X562369Y231739D01*
X562364Y231735D01*
X562289Y231645D01*
X562213Y231556D01*
X562211Y231551D01*
X562207Y231546D01*
X562165Y231437D01*
X562121Y231328D01*
X562120Y231321D01*
X562119Y231316D01*
X562118Y231298D01*
X562103Y231162D01*
X562103Y179483D01*
X562117Y179393D01*
X562125Y179302D01*
X562137Y179273D01*
X562142Y179241D01*
X562185Y179160D01*
X562221Y179076D01*
X562247Y179044D01*
X562258Y179023D01*
X562281Y179001D01*
X562326Y178945D01*
X600203Y141068D01*
X600203Y72793D01*
X600222Y72678D01*
X600239Y72562D01*
X600241Y72556D01*
X600242Y72550D01*
X600297Y72447D01*
X600350Y72343D01*
X600355Y72338D01*
X600358Y72333D01*
X600442Y72253D01*
X600526Y72170D01*
X600532Y72167D01*
X600536Y72163D01*
X600553Y72155D01*
X600673Y72089D01*
X602681Y71258D01*
X606182Y67757D01*
X608077Y63182D01*
X608077Y38418D01*
X606182Y33843D01*
X602681Y30342D01*
X598106Y28447D01*
X593154Y28447D01*
G37*
%LPD*%
%LPC*%
G36*
X242888Y28447D02*
X242888Y28447D01*
X238313Y30342D01*
X234812Y33843D01*
X232917Y38418D01*
X232917Y63182D01*
X234812Y67757D01*
X238313Y71258D01*
X241591Y72616D01*
X241691Y72677D01*
X241791Y72737D01*
X241795Y72742D01*
X241800Y72745D01*
X241875Y72835D01*
X241951Y72924D01*
X241953Y72930D01*
X241957Y72935D01*
X241999Y73043D01*
X242043Y73152D01*
X242044Y73160D01*
X242045Y73164D01*
X242046Y73183D01*
X242061Y73319D01*
X242061Y210153D01*
X242047Y210243D01*
X242039Y210334D01*
X242027Y210363D01*
X242022Y210395D01*
X241979Y210476D01*
X241943Y210560D01*
X241917Y210592D01*
X241906Y210613D01*
X241883Y210635D01*
X241838Y210691D01*
X220734Y231796D01*
X220640Y231863D01*
X220545Y231934D01*
X220539Y231936D01*
X220534Y231939D01*
X220423Y231973D01*
X220311Y232010D01*
X220305Y232010D01*
X220299Y232012D01*
X220182Y232008D01*
X220065Y232007D01*
X220058Y232005D01*
X220053Y232005D01*
X220036Y231999D01*
X219904Y231961D01*
X217921Y231139D01*
X213879Y231139D01*
X210144Y232686D01*
X207286Y235544D01*
X205739Y239279D01*
X205739Y243321D01*
X207286Y247056D01*
X210144Y249914D01*
X213879Y251461D01*
X217921Y251461D01*
X221656Y249914D01*
X224514Y247056D01*
X226061Y243321D01*
X226061Y239279D01*
X225239Y237296D01*
X225229Y237253D01*
X225213Y237218D01*
X225206Y237157D01*
X225184Y237069D01*
X225185Y237063D01*
X225183Y237056D01*
X225189Y236998D01*
X225186Y236974D01*
X225195Y236934D01*
X225203Y236824D01*
X225206Y236818D01*
X225206Y236812D01*
X225236Y236746D01*
X225238Y236733D01*
X225249Y236715D01*
X225254Y236704D01*
X225300Y236597D01*
X225304Y236591D01*
X225306Y236587D01*
X225319Y236573D01*
X225404Y236466D01*
X246509Y215362D01*
X248667Y213204D01*
X248667Y73319D01*
X248668Y73310D01*
X248668Y73305D01*
X248673Y73282D01*
X248686Y73204D01*
X248703Y73088D01*
X248705Y73082D01*
X248706Y73076D01*
X248761Y72973D01*
X248814Y72869D01*
X248819Y72864D01*
X248822Y72859D01*
X248906Y72779D01*
X248990Y72696D01*
X248996Y72693D01*
X249000Y72689D01*
X249017Y72682D01*
X249137Y72616D01*
X252415Y71258D01*
X255916Y67757D01*
X257811Y63182D01*
X257811Y38418D01*
X255916Y33843D01*
X252415Y30342D01*
X247840Y28447D01*
X242888Y28447D01*
G37*
%LPD*%
%LPC*%
G36*
X543116Y28447D02*
X543116Y28447D01*
X538541Y30342D01*
X535040Y33843D01*
X533145Y38418D01*
X533145Y63182D01*
X535040Y67757D01*
X538541Y71258D01*
X542327Y72826D01*
X542427Y72888D01*
X542527Y72947D01*
X542531Y72952D01*
X542536Y72956D01*
X542611Y73046D01*
X542687Y73134D01*
X542689Y73140D01*
X542693Y73145D01*
X542735Y73253D01*
X542779Y73363D01*
X542780Y73370D01*
X542781Y73375D01*
X542782Y73393D01*
X542797Y73529D01*
X542797Y138017D01*
X542783Y138107D01*
X542775Y138198D01*
X542763Y138227D01*
X542758Y138259D01*
X542715Y138340D01*
X542679Y138424D01*
X542653Y138456D01*
X542642Y138477D01*
X542619Y138499D01*
X542574Y138555D01*
X530097Y151032D01*
X530097Y231162D01*
X530078Y231276D01*
X530061Y231392D01*
X530059Y231398D01*
X530058Y231404D01*
X530003Y231507D01*
X529950Y231612D01*
X529945Y231616D01*
X529942Y231622D01*
X529858Y231701D01*
X529774Y231784D01*
X529768Y231788D01*
X529764Y231791D01*
X529747Y231799D01*
X529627Y231865D01*
X527644Y232686D01*
X524786Y235544D01*
X523239Y239279D01*
X523239Y243321D01*
X524786Y247056D01*
X527644Y249914D01*
X531379Y251461D01*
X535421Y251461D01*
X539156Y249914D01*
X542014Y247056D01*
X543561Y243321D01*
X543561Y239279D01*
X542014Y235544D01*
X539156Y232686D01*
X537173Y231865D01*
X537073Y231803D01*
X536973Y231743D01*
X536969Y231739D01*
X536964Y231735D01*
X536889Y231645D01*
X536813Y231556D01*
X536811Y231551D01*
X536807Y231546D01*
X536765Y231437D01*
X536721Y231328D01*
X536720Y231321D01*
X536719Y231316D01*
X536718Y231298D01*
X536703Y231162D01*
X536703Y154083D01*
X536717Y153993D01*
X536725Y153902D01*
X536737Y153873D01*
X536742Y153841D01*
X536785Y153760D01*
X536821Y153676D01*
X536847Y153644D01*
X536858Y153623D01*
X536881Y153601D01*
X536926Y153545D01*
X549403Y141068D01*
X549403Y73108D01*
X549422Y72994D01*
X549439Y72877D01*
X549441Y72872D01*
X549442Y72866D01*
X549497Y72763D01*
X549550Y72658D01*
X549555Y72654D01*
X549558Y72648D01*
X549642Y72568D01*
X549726Y72486D01*
X549732Y72482D01*
X549736Y72479D01*
X549753Y72471D01*
X549873Y72405D01*
X552643Y71258D01*
X556144Y67757D01*
X558039Y63182D01*
X558039Y38418D01*
X556144Y33843D01*
X552643Y30342D01*
X548068Y28447D01*
X543116Y28447D01*
G37*
%LPD*%
%LPC*%
G36*
X493332Y28447D02*
X493332Y28447D01*
X488757Y30342D01*
X485256Y33843D01*
X483361Y38418D01*
X483361Y63182D01*
X485256Y67757D01*
X488757Y71258D01*
X491527Y72405D01*
X491627Y72467D01*
X491727Y72527D01*
X491731Y72531D01*
X491736Y72535D01*
X491811Y72625D01*
X491887Y72714D01*
X491889Y72719D01*
X491893Y72724D01*
X491935Y72833D01*
X491979Y72942D01*
X491980Y72949D01*
X491981Y72954D01*
X491982Y72972D01*
X491997Y73108D01*
X491997Y141068D01*
X504474Y153545D01*
X504527Y153619D01*
X504587Y153688D01*
X504599Y153719D01*
X504618Y153745D01*
X504645Y153832D01*
X504679Y153917D01*
X504683Y153958D01*
X504690Y153980D01*
X504689Y154012D01*
X504697Y154083D01*
X504697Y231162D01*
X504678Y231276D01*
X504661Y231392D01*
X504659Y231398D01*
X504658Y231404D01*
X504603Y231507D01*
X504550Y231612D01*
X504545Y231616D01*
X504542Y231622D01*
X504458Y231701D01*
X504374Y231784D01*
X504368Y231788D01*
X504364Y231791D01*
X504347Y231799D01*
X504227Y231865D01*
X502244Y232686D01*
X499386Y235544D01*
X497839Y239279D01*
X497839Y243321D01*
X499386Y247056D01*
X502244Y249914D01*
X505979Y251461D01*
X510021Y251461D01*
X513756Y249914D01*
X516614Y247056D01*
X518161Y243321D01*
X518161Y239279D01*
X516614Y235544D01*
X513756Y232686D01*
X511773Y231865D01*
X511673Y231803D01*
X511573Y231743D01*
X511569Y231739D01*
X511564Y231735D01*
X511489Y231645D01*
X511413Y231556D01*
X511411Y231551D01*
X511407Y231546D01*
X511365Y231437D01*
X511321Y231328D01*
X511320Y231321D01*
X511319Y231316D01*
X511318Y231298D01*
X511303Y231162D01*
X511303Y151032D01*
X498826Y138555D01*
X498779Y138489D01*
X498769Y138479D01*
X498766Y138473D01*
X498713Y138412D01*
X498701Y138381D01*
X498682Y138355D01*
X498655Y138268D01*
X498621Y138183D01*
X498617Y138142D01*
X498610Y138120D01*
X498611Y138088D01*
X498603Y138017D01*
X498603Y73529D01*
X498622Y73414D01*
X498639Y73298D01*
X498641Y73293D01*
X498642Y73287D01*
X498697Y73184D01*
X498750Y73079D01*
X498755Y73075D01*
X498758Y73069D01*
X498842Y72989D01*
X498926Y72907D01*
X498932Y72903D01*
X498936Y72900D01*
X498953Y72892D01*
X499073Y72826D01*
X502859Y71258D01*
X506360Y67757D01*
X508255Y63182D01*
X508255Y38418D01*
X506360Y33843D01*
X502859Y30342D01*
X498284Y28447D01*
X493332Y28447D01*
G37*
%LPD*%
%LPC*%
G36*
X290079Y358139D02*
X290079Y358139D01*
X286344Y359686D01*
X283486Y362544D01*
X281939Y366279D01*
X281939Y370321D01*
X283486Y374056D01*
X286344Y376914D01*
X288327Y377735D01*
X288427Y377797D01*
X288527Y377857D01*
X288531Y377862D01*
X288536Y377865D01*
X288611Y377954D01*
X288687Y378044D01*
X288689Y378049D01*
X288693Y378054D01*
X288735Y378162D01*
X288779Y378272D01*
X288780Y378279D01*
X288781Y378284D01*
X288782Y378302D01*
X288797Y378439D01*
X288797Y392017D01*
X288783Y392107D01*
X288775Y392198D01*
X288763Y392227D01*
X288758Y392259D01*
X288715Y392340D01*
X288679Y392424D01*
X288653Y392456D01*
X288642Y392477D01*
X288619Y392499D01*
X288574Y392555D01*
X265555Y415574D01*
X265481Y415627D01*
X265412Y415687D01*
X265381Y415699D01*
X265355Y415718D01*
X265268Y415745D01*
X265183Y415779D01*
X265142Y415783D01*
X265120Y415790D01*
X265088Y415789D01*
X265017Y415797D01*
X125632Y415797D01*
X106233Y435196D01*
X106159Y435249D01*
X106090Y435309D01*
X106059Y435321D01*
X106033Y435340D01*
X105946Y435367D01*
X105861Y435401D01*
X105820Y435405D01*
X105798Y435412D01*
X105766Y435411D01*
X105695Y435419D01*
X94008Y435419D01*
X92519Y436908D01*
X92519Y452092D01*
X94008Y453581D01*
X109192Y453581D01*
X110681Y452092D01*
X110681Y440405D01*
X110695Y440315D01*
X110703Y440224D01*
X110715Y440195D01*
X110720Y440163D01*
X110763Y440082D01*
X110799Y439998D01*
X110825Y439966D01*
X110836Y439945D01*
X110859Y439923D01*
X110904Y439867D01*
X128145Y422626D01*
X128219Y422573D01*
X128288Y422513D01*
X128319Y422501D01*
X128345Y422482D01*
X128432Y422455D01*
X128517Y422421D01*
X128558Y422417D01*
X128580Y422410D01*
X128612Y422411D01*
X128683Y422403D01*
X268068Y422403D01*
X270226Y420245D01*
X293245Y397226D01*
X295403Y395068D01*
X295403Y378439D01*
X295422Y378324D01*
X295439Y378208D01*
X295441Y378202D01*
X295442Y378196D01*
X295497Y378093D01*
X295550Y377988D01*
X295555Y377984D01*
X295558Y377978D01*
X295642Y377899D01*
X295726Y377816D01*
X295732Y377812D01*
X295736Y377809D01*
X295753Y377801D01*
X295873Y377735D01*
X297856Y376914D01*
X300714Y374056D01*
X302261Y370321D01*
X302261Y366279D01*
X300714Y362544D01*
X297856Y359686D01*
X294121Y358139D01*
X290079Y358139D01*
G37*
%LPD*%
%LPC*%
G36*
X909900Y625079D02*
X909900Y625079D01*
X901586Y628523D01*
X895223Y634886D01*
X891779Y643200D01*
X891779Y652200D01*
X895223Y660514D01*
X901586Y666877D01*
X909900Y670321D01*
X918900Y670321D01*
X927214Y666877D01*
X933577Y660514D01*
X937021Y652200D01*
X937021Y643200D01*
X933577Y634886D01*
X927214Y628523D01*
X918900Y625079D01*
X909900Y625079D01*
G37*
%LPD*%
%LPC*%
G36*
X173300Y40879D02*
X173300Y40879D01*
X164986Y44323D01*
X158623Y50686D01*
X155179Y59000D01*
X155179Y68000D01*
X158623Y76314D01*
X164986Y82677D01*
X173300Y86121D01*
X182300Y86121D01*
X190614Y82677D01*
X196977Y76314D01*
X200421Y68000D01*
X200421Y59000D01*
X196977Y50686D01*
X190614Y44323D01*
X182300Y40879D01*
X173300Y40879D01*
G37*
%LPD*%
%LPC*%
G36*
X859100Y40879D02*
X859100Y40879D01*
X850786Y44323D01*
X844423Y50686D01*
X840979Y59000D01*
X840979Y68000D01*
X844423Y76314D01*
X850786Y82677D01*
X859100Y86121D01*
X868100Y86121D01*
X876414Y82677D01*
X882777Y76314D01*
X886221Y68000D01*
X886221Y59000D01*
X882777Y50686D01*
X876414Y44323D01*
X868100Y40879D01*
X859100Y40879D01*
G37*
%LPD*%
%LPC*%
G36*
X33600Y625079D02*
X33600Y625079D01*
X25286Y628523D01*
X18923Y634886D01*
X15479Y643200D01*
X15479Y652200D01*
X18923Y660514D01*
X25286Y666877D01*
X33600Y670321D01*
X42600Y670321D01*
X50914Y666877D01*
X57277Y660514D01*
X60721Y652200D01*
X60721Y643200D01*
X57277Y634886D01*
X50914Y628523D01*
X42600Y625079D01*
X33600Y625079D01*
G37*
%LPD*%
%LPC*%
G36*
X874279Y307339D02*
X874279Y307339D01*
X870544Y308886D01*
X867686Y311744D01*
X866139Y315479D01*
X866139Y319521D01*
X866591Y320613D01*
X866608Y320683D01*
X866634Y320749D01*
X866636Y320801D01*
X866648Y320852D01*
X866641Y320924D01*
X866644Y320995D01*
X866629Y321045D01*
X866625Y321097D01*
X866595Y321163D01*
X866575Y321231D01*
X866546Y321274D01*
X866525Y321322D01*
X866476Y321375D01*
X866435Y321434D01*
X866393Y321465D01*
X866358Y321503D01*
X866295Y321538D01*
X866238Y321580D01*
X866188Y321596D01*
X866143Y321622D01*
X866072Y321634D01*
X866004Y321656D01*
X865952Y321656D01*
X865901Y321665D01*
X865830Y321655D01*
X865758Y321654D01*
X865689Y321634D01*
X865657Y321629D01*
X865636Y321619D01*
X865597Y321607D01*
X861811Y320039D01*
X857769Y320039D01*
X854034Y321586D01*
X851176Y324444D01*
X849629Y328179D01*
X849629Y332221D01*
X851176Y335956D01*
X854034Y338814D01*
X857769Y340361D01*
X861811Y340361D01*
X865597Y338793D01*
X865667Y338776D01*
X865734Y338751D01*
X865786Y338748D01*
X865836Y338736D01*
X865908Y338743D01*
X865979Y338740D01*
X866029Y338755D01*
X866081Y338760D01*
X866147Y338789D01*
X866216Y338809D01*
X866258Y338838D01*
X866306Y338860D01*
X866359Y338908D01*
X866418Y338949D01*
X866449Y338991D01*
X866487Y339026D01*
X866522Y339089D01*
X866564Y339146D01*
X866580Y339196D01*
X866606Y339241D01*
X866618Y339312D01*
X866641Y339380D01*
X866640Y339432D01*
X866649Y339484D01*
X866639Y339554D01*
X866638Y339626D01*
X866618Y339695D01*
X866614Y339727D01*
X866603Y339748D01*
X866591Y339787D01*
X866139Y340879D01*
X866139Y344921D01*
X867686Y348656D01*
X870544Y351514D01*
X874279Y353061D01*
X878321Y353061D01*
X882056Y351514D01*
X884914Y348656D01*
X886461Y344921D01*
X886461Y340879D01*
X884914Y337144D01*
X882056Y334286D01*
X878321Y332739D01*
X874279Y332739D01*
X870493Y334307D01*
X870423Y334324D01*
X870356Y334349D01*
X870304Y334352D01*
X870254Y334364D01*
X870182Y334357D01*
X870111Y334360D01*
X870061Y334345D01*
X870009Y334340D01*
X869943Y334311D01*
X869874Y334291D01*
X869832Y334262D01*
X869784Y334240D01*
X869731Y334192D01*
X869672Y334151D01*
X869641Y334109D01*
X869603Y334074D01*
X869568Y334011D01*
X869526Y333954D01*
X869510Y333904D01*
X869484Y333859D01*
X869472Y333788D01*
X869449Y333720D01*
X869450Y333668D01*
X869441Y333616D01*
X869451Y333546D01*
X869452Y333474D01*
X869472Y333405D01*
X869476Y333373D01*
X869487Y333352D01*
X869499Y333313D01*
X869951Y332221D01*
X869951Y328179D01*
X869499Y327087D01*
X869490Y327052D01*
X869487Y327046D01*
X869486Y327034D01*
X869482Y327017D01*
X869456Y326951D01*
X869454Y326899D01*
X869442Y326848D01*
X869449Y326776D01*
X869446Y326705D01*
X869461Y326655D01*
X869465Y326603D01*
X869495Y326537D01*
X869515Y326469D01*
X869544Y326426D01*
X869565Y326378D01*
X869614Y326325D01*
X869655Y326266D01*
X869697Y326235D01*
X869732Y326197D01*
X869795Y326162D01*
X869852Y326120D01*
X869902Y326104D01*
X869947Y326078D01*
X870018Y326066D01*
X870086Y326044D01*
X870138Y326044D01*
X870189Y326035D01*
X870260Y326045D01*
X870332Y326046D01*
X870401Y326066D01*
X870433Y326071D01*
X870454Y326081D01*
X870493Y326093D01*
X874279Y327661D01*
X878321Y327661D01*
X882056Y326114D01*
X884914Y323256D01*
X886461Y319521D01*
X886461Y315479D01*
X884914Y311744D01*
X882056Y308886D01*
X878321Y307339D01*
X874279Y307339D01*
G37*
%LPD*%
%LPC*%
G36*
X48578Y28447D02*
X48578Y28447D01*
X44003Y30342D01*
X40502Y33843D01*
X38607Y38418D01*
X38607Y63182D01*
X40502Y67757D01*
X44003Y71258D01*
X48578Y73153D01*
X53530Y73153D01*
X58105Y71258D01*
X61606Y67757D01*
X63501Y63182D01*
X63501Y38418D01*
X61606Y33843D01*
X58105Y30342D01*
X53530Y28447D01*
X48578Y28447D01*
G37*
%LPD*%
%LPC*%
G36*
X836179Y502919D02*
X836179Y502919D01*
X832444Y504466D01*
X829586Y507324D01*
X828039Y511059D01*
X828039Y530341D01*
X829586Y534076D01*
X832444Y536934D01*
X836179Y538481D01*
X840221Y538481D01*
X843956Y536934D01*
X846814Y534076D01*
X848361Y530341D01*
X848361Y511059D01*
X846814Y507324D01*
X843956Y504466D01*
X840221Y502919D01*
X836179Y502919D01*
G37*
%LPD*%
%LPC*%
G36*
X836179Y579119D02*
X836179Y579119D01*
X832444Y580666D01*
X829586Y583524D01*
X828039Y587259D01*
X828039Y606541D01*
X829586Y610276D01*
X832444Y613134D01*
X836179Y614681D01*
X840221Y614681D01*
X843956Y613134D01*
X846814Y610276D01*
X848361Y606541D01*
X848361Y587259D01*
X846814Y583524D01*
X843956Y580666D01*
X840221Y579119D01*
X836179Y579119D01*
G37*
%LPD*%
%LPC*%
G36*
X836179Y426719D02*
X836179Y426719D01*
X832444Y428266D01*
X829586Y431124D01*
X828039Y434859D01*
X828039Y454141D01*
X829586Y457876D01*
X832444Y460734D01*
X836179Y462281D01*
X840221Y462281D01*
X843956Y460734D01*
X846814Y457876D01*
X848361Y454141D01*
X848361Y434859D01*
X846814Y431124D01*
X843956Y428266D01*
X840221Y426719D01*
X836179Y426719D01*
G37*
%LPD*%
%LPC*%
G36*
X44108Y205819D02*
X44108Y205819D01*
X42619Y207308D01*
X42619Y224492D01*
X44108Y225981D01*
X61292Y225981D01*
X62781Y224492D01*
X62781Y207308D01*
X61292Y205819D01*
X44108Y205819D01*
G37*
%LPD*%
%LPC*%
G36*
X602908Y523319D02*
X602908Y523319D01*
X601419Y524808D01*
X601419Y541992D01*
X602908Y543481D01*
X620092Y543481D01*
X621581Y541992D01*
X621581Y524808D01*
X620092Y523319D01*
X602908Y523319D01*
G37*
%LPD*%
%LPC*%
G36*
X188479Y231139D02*
X188479Y231139D01*
X184744Y232686D01*
X181886Y235544D01*
X180339Y239279D01*
X180339Y243321D01*
X181886Y247056D01*
X184744Y249914D01*
X188479Y251461D01*
X192521Y251461D01*
X196256Y249914D01*
X199114Y247056D01*
X200661Y243321D01*
X200661Y239279D01*
X199114Y235544D01*
X196256Y232686D01*
X192521Y231139D01*
X188479Y231139D01*
G37*
%LPD*%
%LPC*%
G36*
X340879Y231139D02*
X340879Y231139D01*
X337144Y232686D01*
X334286Y235544D01*
X332739Y239279D01*
X332739Y243321D01*
X334286Y247056D01*
X337144Y249914D01*
X340879Y251461D01*
X344921Y251461D01*
X348656Y249914D01*
X351514Y247056D01*
X353061Y243321D01*
X353061Y239279D01*
X351514Y235544D01*
X348656Y232686D01*
X344921Y231139D01*
X340879Y231139D01*
G37*
%LPD*%
%LPC*%
G36*
X607579Y231139D02*
X607579Y231139D01*
X603844Y232686D01*
X600986Y235544D01*
X599439Y239279D01*
X599439Y243321D01*
X600986Y247056D01*
X603844Y249914D01*
X607579Y251461D01*
X611621Y251461D01*
X615356Y249914D01*
X618214Y247056D01*
X619761Y243321D01*
X619761Y239279D01*
X618214Y235544D01*
X615356Y232686D01*
X611621Y231139D01*
X607579Y231139D01*
G37*
%LPD*%
%LPC*%
G36*
X239279Y358139D02*
X239279Y358139D01*
X235544Y359686D01*
X232686Y362544D01*
X231139Y366279D01*
X231139Y370321D01*
X232686Y374056D01*
X235544Y376914D01*
X239279Y378461D01*
X243321Y378461D01*
X247056Y376914D01*
X249914Y374056D01*
X251461Y370321D01*
X251461Y366279D01*
X249914Y362544D01*
X247056Y359686D01*
X243321Y358139D01*
X239279Y358139D01*
G37*
%LPD*%
%LPC*%
G36*
X188479Y358139D02*
X188479Y358139D01*
X184744Y359686D01*
X181886Y362544D01*
X180339Y366279D01*
X180339Y370321D01*
X181886Y374056D01*
X184744Y376914D01*
X188479Y378461D01*
X192521Y378461D01*
X196256Y376914D01*
X199114Y374056D01*
X200661Y370321D01*
X200661Y366279D01*
X199114Y362544D01*
X196256Y359686D01*
X192521Y358139D01*
X188479Y358139D01*
G37*
%LPD*%
%LPC*%
G36*
X163079Y358139D02*
X163079Y358139D01*
X159344Y359686D01*
X156486Y362544D01*
X154939Y366279D01*
X154939Y370321D01*
X156486Y374056D01*
X159344Y376914D01*
X163079Y378461D01*
X167121Y378461D01*
X170856Y376914D01*
X173714Y374056D01*
X175261Y370321D01*
X175261Y366279D01*
X173714Y362544D01*
X170856Y359686D01*
X167121Y358139D01*
X163079Y358139D01*
G37*
%LPD*%
%LPC*%
G36*
X213879Y358139D02*
X213879Y358139D01*
X210144Y359686D01*
X207286Y362544D01*
X205739Y366279D01*
X205739Y370321D01*
X207286Y374056D01*
X210144Y376914D01*
X213879Y378461D01*
X217921Y378461D01*
X221656Y376914D01*
X224514Y374056D01*
X226061Y370321D01*
X226061Y366279D01*
X224514Y362544D01*
X221656Y359686D01*
X217921Y358139D01*
X213879Y358139D01*
G37*
%LPD*%
%LPC*%
G36*
X455179Y231139D02*
X455179Y231139D01*
X451444Y232686D01*
X448586Y235544D01*
X447039Y239279D01*
X447039Y243321D01*
X448586Y247056D01*
X451444Y249914D01*
X455179Y251461D01*
X459221Y251461D01*
X462956Y249914D01*
X465814Y247056D01*
X467361Y243321D01*
X467361Y239279D01*
X465814Y235544D01*
X462956Y232686D01*
X459221Y231139D01*
X455179Y231139D01*
G37*
%LPD*%
%LPC*%
G36*
X609495Y574119D02*
X609495Y574119D01*
X605790Y575654D01*
X602954Y578490D01*
X601419Y582195D01*
X601419Y586205D01*
X602954Y589910D01*
X605790Y592746D01*
X609495Y594281D01*
X613505Y594281D01*
X617210Y592746D01*
X620046Y589910D01*
X621581Y586205D01*
X621581Y582195D01*
X620046Y578490D01*
X617210Y575654D01*
X613505Y574119D01*
X609495Y574119D01*
G37*
%LPD*%
%LPC*%
G36*
X50695Y256619D02*
X50695Y256619D01*
X46990Y258154D01*
X44154Y260990D01*
X42619Y264695D01*
X42619Y268705D01*
X44154Y272410D01*
X46990Y275246D01*
X50695Y276781D01*
X54705Y276781D01*
X58410Y275246D01*
X61246Y272410D01*
X62781Y268705D01*
X62781Y264695D01*
X61246Y260990D01*
X58410Y258154D01*
X54705Y256619D01*
X50695Y256619D01*
G37*
%LPD*%
%LPC*%
G36*
X455394Y587819D02*
X455394Y587819D01*
X452056Y589202D01*
X449502Y591756D01*
X448119Y595094D01*
X448119Y598706D01*
X449502Y602044D01*
X452056Y604598D01*
X455394Y605981D01*
X459006Y605981D01*
X462344Y604598D01*
X464898Y602044D01*
X466281Y598706D01*
X466281Y595094D01*
X464898Y591756D01*
X462344Y589202D01*
X459006Y587819D01*
X455394Y587819D01*
G37*
%LPD*%
%LPC*%
G36*
X353794Y435419D02*
X353794Y435419D01*
X350456Y436802D01*
X347902Y439356D01*
X346519Y442694D01*
X346519Y446306D01*
X347902Y449644D01*
X350456Y452198D01*
X353794Y453581D01*
X357406Y453581D01*
X360744Y452198D01*
X363298Y449644D01*
X364681Y446306D01*
X364681Y442694D01*
X363298Y439356D01*
X360744Y436802D01*
X357406Y435419D01*
X353794Y435419D01*
G37*
%LPD*%
%LPC*%
G36*
X404594Y435419D02*
X404594Y435419D01*
X401256Y436802D01*
X398702Y439356D01*
X397319Y442694D01*
X397319Y446306D01*
X398702Y449644D01*
X401256Y452198D01*
X404594Y453581D01*
X408206Y453581D01*
X411544Y452198D01*
X414098Y449644D01*
X415481Y446306D01*
X415481Y442694D01*
X414098Y439356D01*
X411544Y436802D01*
X408206Y435419D01*
X404594Y435419D01*
G37*
%LPD*%
%LPC*%
G36*
X379194Y435419D02*
X379194Y435419D01*
X375856Y436802D01*
X373302Y439356D01*
X371919Y442694D01*
X371919Y446306D01*
X373302Y449644D01*
X375856Y452198D01*
X379194Y453581D01*
X382806Y453581D01*
X386144Y452198D01*
X388698Y449644D01*
X390081Y446306D01*
X390081Y442694D01*
X388698Y439356D01*
X386144Y436802D01*
X382806Y435419D01*
X379194Y435419D01*
G37*
%LPD*%
%LPC*%
G36*
X125194Y435419D02*
X125194Y435419D01*
X121856Y436802D01*
X119302Y439356D01*
X117919Y442694D01*
X117919Y446306D01*
X119302Y449644D01*
X121856Y452198D01*
X125194Y453581D01*
X128806Y453581D01*
X132144Y452198D01*
X134698Y449644D01*
X136081Y446306D01*
X136081Y442694D01*
X134698Y439356D01*
X132144Y436802D01*
X128806Y435419D01*
X125194Y435419D01*
G37*
%LPD*%
%LPC*%
G36*
X328394Y435419D02*
X328394Y435419D01*
X325056Y436802D01*
X322502Y439356D01*
X321119Y442694D01*
X321119Y446306D01*
X322502Y449644D01*
X325056Y452198D01*
X328394Y453581D01*
X332006Y453581D01*
X335344Y452198D01*
X337898Y449644D01*
X339281Y446306D01*
X339281Y442694D01*
X337898Y439356D01*
X335344Y436802D01*
X332006Y435419D01*
X328394Y435419D01*
G37*
%LPD*%
%LPC*%
G36*
X99794Y587819D02*
X99794Y587819D01*
X96456Y589202D01*
X93902Y591756D01*
X92519Y595094D01*
X92519Y598706D01*
X93902Y602044D01*
X96456Y604598D01*
X99794Y605981D01*
X103406Y605981D01*
X106744Y604598D01*
X109298Y602044D01*
X110681Y598706D01*
X110681Y595094D01*
X109298Y591756D01*
X106744Y589202D01*
X103406Y587819D01*
X99794Y587819D01*
G37*
%LPD*%
%LPC*%
G36*
X404594Y587819D02*
X404594Y587819D01*
X401256Y589202D01*
X398702Y591756D01*
X397319Y595094D01*
X397319Y598706D01*
X398702Y602044D01*
X401256Y604598D01*
X404594Y605981D01*
X408206Y605981D01*
X411544Y604598D01*
X414098Y602044D01*
X415481Y598706D01*
X415481Y595094D01*
X414098Y591756D01*
X411544Y589202D01*
X408206Y587819D01*
X404594Y587819D01*
G37*
%LPD*%
%LPC*%
G36*
X429994Y587819D02*
X429994Y587819D01*
X426656Y589202D01*
X424102Y591756D01*
X422719Y595094D01*
X422719Y598706D01*
X424102Y602044D01*
X426656Y604598D01*
X429994Y605981D01*
X433606Y605981D01*
X436944Y604598D01*
X439498Y602044D01*
X440881Y598706D01*
X440881Y595094D01*
X439498Y591756D01*
X436944Y589202D01*
X433606Y587819D01*
X429994Y587819D01*
G37*
%LPD*%
%LPC*%
G36*
X201394Y587819D02*
X201394Y587819D01*
X198056Y589202D01*
X195502Y591756D01*
X194119Y595094D01*
X194119Y598706D01*
X195502Y602044D01*
X198056Y604598D01*
X201394Y605981D01*
X205006Y605981D01*
X208344Y604598D01*
X210898Y602044D01*
X212281Y598706D01*
X212281Y595094D01*
X210898Y591756D01*
X208344Y589202D01*
X205006Y587819D01*
X201394Y587819D01*
G37*
%LPD*%
%LPC*%
G36*
X175994Y587819D02*
X175994Y587819D01*
X172656Y589202D01*
X170102Y591756D01*
X168719Y595094D01*
X168719Y598706D01*
X170102Y602044D01*
X172656Y604598D01*
X175994Y605981D01*
X179606Y605981D01*
X182944Y604598D01*
X185498Y602044D01*
X186881Y598706D01*
X186881Y595094D01*
X185498Y591756D01*
X182944Y589202D01*
X179606Y587819D01*
X175994Y587819D01*
G37*
%LPD*%
%LPC*%
G36*
X102869Y52323D02*
X102869Y52323D01*
X102869Y73067D01*
X104261Y72846D01*
X106124Y72241D01*
X107869Y71351D01*
X109455Y70200D01*
X110840Y68815D01*
X111991Y67229D01*
X112881Y65484D01*
X113486Y63621D01*
X113793Y61686D01*
X113793Y52323D01*
X102869Y52323D01*
G37*
%LPD*%
%LPC*%
G36*
X102869Y49277D02*
X102869Y49277D01*
X113793Y49277D01*
X113793Y39914D01*
X113486Y37979D01*
X112881Y36116D01*
X111991Y34371D01*
X110840Y32785D01*
X109455Y31400D01*
X107869Y30249D01*
X106124Y29359D01*
X104261Y28754D01*
X102869Y28533D01*
X102869Y49277D01*
G37*
%LPD*%
%LPC*%
G36*
X88899Y52323D02*
X88899Y52323D01*
X88899Y61686D01*
X89206Y63621D01*
X89811Y65484D01*
X90701Y67229D01*
X91852Y68815D01*
X93237Y70200D01*
X94823Y71351D01*
X96568Y72241D01*
X98431Y72846D01*
X99823Y73067D01*
X99823Y52323D01*
X88899Y52323D01*
G37*
%LPD*%
%LPC*%
G36*
X98431Y28754D02*
X98431Y28754D01*
X96568Y29359D01*
X94823Y30249D01*
X93237Y31400D01*
X91852Y32785D01*
X90701Y34371D01*
X89811Y36116D01*
X89206Y37979D01*
X88899Y39914D01*
X88899Y49277D01*
X99823Y49277D01*
X99823Y28533D01*
X98431Y28754D01*
G37*
%LPD*%
%LPC*%
G36*
X865123Y446023D02*
X865123Y446023D01*
X865123Y462166D01*
X865979Y462031D01*
X867500Y461536D01*
X868925Y460810D01*
X870219Y459870D01*
X871350Y458739D01*
X872290Y457445D01*
X873016Y456020D01*
X873511Y454499D01*
X873761Y452920D01*
X873761Y446023D01*
X865123Y446023D01*
G37*
%LPD*%
%LPC*%
G36*
X865123Y598423D02*
X865123Y598423D01*
X865123Y614566D01*
X865979Y614431D01*
X867500Y613936D01*
X868925Y613210D01*
X870219Y612270D01*
X871350Y611139D01*
X872290Y609845D01*
X873016Y608420D01*
X873511Y606899D01*
X873761Y605320D01*
X873761Y598423D01*
X865123Y598423D01*
G37*
%LPD*%
%LPC*%
G36*
X865123Y522223D02*
X865123Y522223D01*
X865123Y538366D01*
X865979Y538231D01*
X867500Y537736D01*
X868925Y537010D01*
X870219Y536070D01*
X871350Y534939D01*
X872290Y533645D01*
X873016Y532220D01*
X873511Y530699D01*
X873761Y529120D01*
X873761Y522223D01*
X865123Y522223D01*
G37*
%LPD*%
%LPC*%
G36*
X865123Y519177D02*
X865123Y519177D01*
X873761Y519177D01*
X873761Y512280D01*
X873511Y510701D01*
X873016Y509180D01*
X872290Y507755D01*
X871350Y506461D01*
X870219Y505330D01*
X868925Y504390D01*
X867500Y503664D01*
X865979Y503169D01*
X865123Y503034D01*
X865123Y519177D01*
G37*
%LPD*%
%LPC*%
G36*
X865123Y442977D02*
X865123Y442977D01*
X873761Y442977D01*
X873761Y436080D01*
X873511Y434501D01*
X873016Y432980D01*
X872290Y431555D01*
X871350Y430261D01*
X870219Y429130D01*
X868925Y428190D01*
X867500Y427464D01*
X865979Y426969D01*
X865123Y426834D01*
X865123Y442977D01*
G37*
%LPD*%
%LPC*%
G36*
X865123Y595377D02*
X865123Y595377D01*
X873761Y595377D01*
X873761Y588480D01*
X873511Y586901D01*
X873016Y585380D01*
X872290Y583955D01*
X871350Y582661D01*
X870219Y581530D01*
X868925Y580590D01*
X867500Y579864D01*
X865979Y579369D01*
X865123Y579234D01*
X865123Y595377D01*
G37*
%LPD*%
%LPC*%
G36*
X853439Y598423D02*
X853439Y598423D01*
X853439Y605320D01*
X853689Y606899D01*
X854184Y608420D01*
X854910Y609845D01*
X855850Y611139D01*
X856981Y612270D01*
X858275Y613210D01*
X859700Y613936D01*
X861221Y614431D01*
X862077Y614566D01*
X862077Y598423D01*
X853439Y598423D01*
G37*
%LPD*%
%LPC*%
G36*
X853439Y446023D02*
X853439Y446023D01*
X853439Y452920D01*
X853689Y454499D01*
X854184Y456020D01*
X854910Y457445D01*
X855850Y458739D01*
X856981Y459870D01*
X858275Y460810D01*
X859700Y461536D01*
X861221Y462031D01*
X862077Y462166D01*
X862077Y446023D01*
X853439Y446023D01*
G37*
%LPD*%
%LPC*%
G36*
X853439Y522223D02*
X853439Y522223D01*
X853439Y529120D01*
X853689Y530699D01*
X854184Y532220D01*
X854910Y533645D01*
X855850Y534939D01*
X856981Y536070D01*
X858275Y537010D01*
X859700Y537736D01*
X861221Y538231D01*
X862077Y538366D01*
X862077Y522223D01*
X853439Y522223D01*
G37*
%LPD*%
%LPC*%
G36*
X861221Y503169D02*
X861221Y503169D01*
X859700Y503664D01*
X858275Y504390D01*
X856981Y505330D01*
X855850Y506461D01*
X854910Y507755D01*
X854184Y509180D01*
X853689Y510701D01*
X853439Y512280D01*
X853439Y519177D01*
X862077Y519177D01*
X862077Y503034D01*
X861221Y503169D01*
G37*
%LPD*%
%LPC*%
G36*
X861221Y426969D02*
X861221Y426969D01*
X859700Y427464D01*
X858275Y428190D01*
X856981Y429130D01*
X855850Y430261D01*
X854910Y431555D01*
X854184Y432980D01*
X853689Y434501D01*
X853439Y436080D01*
X853439Y442977D01*
X862077Y442977D01*
X862077Y426834D01*
X861221Y426969D01*
G37*
%LPD*%
%LPC*%
G36*
X861221Y579369D02*
X861221Y579369D01*
X859700Y579864D01*
X858275Y580590D01*
X856981Y581530D01*
X855850Y582661D01*
X854910Y583955D01*
X854184Y585380D01*
X853689Y586901D01*
X853439Y588480D01*
X853439Y595377D01*
X862077Y595377D01*
X862077Y579234D01*
X861221Y579369D01*
G37*
%LPD*%
%LPC*%
G36*
X585723Y242823D02*
X585723Y242823D01*
X585723Y251346D01*
X586579Y251211D01*
X588100Y250716D01*
X589525Y249990D01*
X590819Y249050D01*
X591950Y247919D01*
X592890Y246625D01*
X593616Y245200D01*
X594111Y243679D01*
X594246Y242823D01*
X585723Y242823D01*
G37*
%LPD*%
%LPC*%
G36*
X433323Y242823D02*
X433323Y242823D01*
X433323Y251346D01*
X434179Y251211D01*
X435700Y250716D01*
X437125Y249990D01*
X438419Y249050D01*
X439550Y247919D01*
X440490Y246625D01*
X441216Y245200D01*
X441711Y243679D01*
X441846Y242823D01*
X433323Y242823D01*
G37*
%LPD*%
%LPC*%
G36*
X319023Y242823D02*
X319023Y242823D01*
X319023Y251346D01*
X319879Y251211D01*
X321400Y250716D01*
X322825Y249990D01*
X324119Y249050D01*
X325250Y247919D01*
X326190Y246625D01*
X326916Y245200D01*
X327411Y243679D01*
X327546Y242823D01*
X319023Y242823D01*
G37*
%LPD*%
%LPC*%
G36*
X611123Y369823D02*
X611123Y369823D01*
X611123Y378346D01*
X611979Y378211D01*
X613500Y377716D01*
X614925Y376990D01*
X616219Y376050D01*
X617350Y374919D01*
X618290Y373625D01*
X619016Y372200D01*
X619511Y370679D01*
X619646Y369823D01*
X611123Y369823D01*
G37*
%LPD*%
%LPC*%
G36*
X700023Y242823D02*
X700023Y242823D01*
X700023Y251346D01*
X700879Y251211D01*
X702400Y250716D01*
X703825Y249990D01*
X705119Y249050D01*
X706250Y247919D01*
X707190Y246625D01*
X707916Y245200D01*
X708411Y243679D01*
X708546Y242823D01*
X700023Y242823D01*
G37*
%LPD*%
%LPC*%
G36*
X344423Y369823D02*
X344423Y369823D01*
X344423Y378346D01*
X345279Y378211D01*
X346800Y377716D01*
X348225Y376990D01*
X349519Y376050D01*
X350650Y374919D01*
X351590Y373625D01*
X352316Y372200D01*
X352811Y370679D01*
X352946Y369823D01*
X344423Y369823D01*
G37*
%LPD*%
%LPC*%
G36*
X877823Y369823D02*
X877823Y369823D01*
X877823Y378346D01*
X878679Y378211D01*
X880200Y377716D01*
X881625Y376990D01*
X882919Y376050D01*
X884050Y374919D01*
X884990Y373625D01*
X885716Y372200D01*
X886211Y370679D01*
X886346Y369823D01*
X877823Y369823D01*
G37*
%LPD*%
%LPC*%
G36*
X166623Y242823D02*
X166623Y242823D01*
X166623Y251346D01*
X167479Y251211D01*
X169000Y250716D01*
X170425Y249990D01*
X171719Y249050D01*
X172850Y247919D01*
X173790Y246625D01*
X174516Y245200D01*
X175011Y243679D01*
X175146Y242823D01*
X166623Y242823D01*
G37*
%LPD*%
%LPC*%
G36*
X332854Y369823D02*
X332854Y369823D01*
X332989Y370679D01*
X333484Y372200D01*
X334210Y373625D01*
X335150Y374919D01*
X336281Y376050D01*
X337575Y376990D01*
X339000Y377716D01*
X340521Y378211D01*
X341377Y378346D01*
X341377Y369823D01*
X332854Y369823D01*
G37*
%LPD*%
%LPC*%
G36*
X421754Y242823D02*
X421754Y242823D01*
X421889Y243679D01*
X422384Y245200D01*
X423110Y246625D01*
X424050Y247919D01*
X425181Y249050D01*
X426475Y249990D01*
X427900Y250716D01*
X429421Y251211D01*
X430277Y251346D01*
X430277Y242823D01*
X421754Y242823D01*
G37*
%LPD*%
%LPC*%
G36*
X155054Y242823D02*
X155054Y242823D01*
X155189Y243679D01*
X155684Y245200D01*
X156410Y246625D01*
X157350Y247919D01*
X158481Y249050D01*
X159775Y249990D01*
X161200Y250716D01*
X162721Y251211D01*
X163577Y251346D01*
X163577Y242823D01*
X155054Y242823D01*
G37*
%LPD*%
%LPC*%
G36*
X166623Y239777D02*
X166623Y239777D01*
X175146Y239777D01*
X175011Y238921D01*
X174516Y237400D01*
X173790Y235975D01*
X172850Y234681D01*
X171719Y233550D01*
X170425Y232610D01*
X169000Y231884D01*
X167479Y231389D01*
X166623Y231254D01*
X166623Y239777D01*
G37*
%LPD*%
%LPC*%
G36*
X319023Y239777D02*
X319023Y239777D01*
X327546Y239777D01*
X327411Y238921D01*
X326916Y237400D01*
X326190Y235975D01*
X325250Y234681D01*
X324119Y233550D01*
X322825Y232610D01*
X321400Y231884D01*
X319879Y231389D01*
X319023Y231254D01*
X319023Y239777D01*
G37*
%LPD*%
%LPC*%
G36*
X852423Y239777D02*
X852423Y239777D01*
X860946Y239777D01*
X860811Y238921D01*
X860316Y237400D01*
X859590Y235975D01*
X858650Y234681D01*
X857519Y233550D01*
X856225Y232610D01*
X854800Y231884D01*
X853279Y231389D01*
X852423Y231254D01*
X852423Y239777D01*
G37*
%LPD*%
%LPC*%
G36*
X700023Y239777D02*
X700023Y239777D01*
X708546Y239777D01*
X708411Y238921D01*
X707916Y237400D01*
X707190Y235975D01*
X706250Y234681D01*
X705119Y233550D01*
X703825Y232610D01*
X702400Y231884D01*
X700879Y231389D01*
X700023Y231254D01*
X700023Y239777D01*
G37*
%LPD*%
%LPC*%
G36*
X574154Y242823D02*
X574154Y242823D01*
X574289Y243679D01*
X574784Y245200D01*
X575510Y246625D01*
X576450Y247919D01*
X577581Y249050D01*
X578875Y249990D01*
X580300Y250716D01*
X581821Y251211D01*
X582677Y251346D01*
X582677Y242823D01*
X574154Y242823D01*
G37*
%LPD*%
%LPC*%
G36*
X307454Y242823D02*
X307454Y242823D01*
X307589Y243679D01*
X308084Y245200D01*
X308810Y246625D01*
X309750Y247919D01*
X310881Y249050D01*
X312175Y249990D01*
X313600Y250716D01*
X315121Y251211D01*
X315977Y251346D01*
X315977Y242823D01*
X307454Y242823D01*
G37*
%LPD*%
%LPC*%
G36*
X688454Y242823D02*
X688454Y242823D01*
X688589Y243679D01*
X689084Y245200D01*
X689810Y246625D01*
X690750Y247919D01*
X691881Y249050D01*
X693175Y249990D01*
X694600Y250716D01*
X696121Y251211D01*
X696977Y251346D01*
X696977Y242823D01*
X688454Y242823D01*
G37*
%LPD*%
%LPC*%
G36*
X877823Y366777D02*
X877823Y366777D01*
X886346Y366777D01*
X886211Y365921D01*
X885716Y364400D01*
X884990Y362975D01*
X884050Y361681D01*
X882919Y360550D01*
X881625Y359610D01*
X880200Y358884D01*
X878679Y358389D01*
X877823Y358254D01*
X877823Y366777D01*
G37*
%LPD*%
%LPC*%
G36*
X433323Y239777D02*
X433323Y239777D01*
X441846Y239777D01*
X441711Y238921D01*
X441216Y237400D01*
X440490Y235975D01*
X439550Y234681D01*
X438419Y233550D01*
X437125Y232610D01*
X435700Y231884D01*
X434179Y231389D01*
X433323Y231254D01*
X433323Y239777D01*
G37*
%LPD*%
%LPC*%
G36*
X866254Y369823D02*
X866254Y369823D01*
X866389Y370679D01*
X866884Y372200D01*
X867610Y373625D01*
X868550Y374919D01*
X869681Y376050D01*
X870975Y376990D01*
X872400Y377716D01*
X873921Y378211D01*
X874777Y378346D01*
X874777Y369823D01*
X866254Y369823D01*
G37*
%LPD*%
%LPC*%
G36*
X599554Y369823D02*
X599554Y369823D01*
X599689Y370679D01*
X600184Y372200D01*
X600910Y373625D01*
X601850Y374919D01*
X602981Y376050D01*
X604275Y376990D01*
X605700Y377716D01*
X607221Y378211D01*
X608077Y378346D01*
X608077Y369823D01*
X599554Y369823D01*
G37*
%LPD*%
%LPC*%
G36*
X585723Y239777D02*
X585723Y239777D01*
X594246Y239777D01*
X594111Y238921D01*
X593616Y237400D01*
X592890Y235975D01*
X591950Y234681D01*
X590819Y233550D01*
X589525Y232610D01*
X588100Y231884D01*
X586579Y231389D01*
X585723Y231254D01*
X585723Y239777D01*
G37*
%LPD*%
%LPC*%
G36*
X873921Y358389D02*
X873921Y358389D01*
X872400Y358884D01*
X870975Y359610D01*
X869681Y360550D01*
X868550Y361681D01*
X867610Y362975D01*
X866884Y364400D01*
X866389Y365921D01*
X866254Y366777D01*
X874777Y366777D01*
X874777Y358254D01*
X873921Y358389D01*
G37*
%LPD*%
%LPC*%
G36*
X581821Y231389D02*
X581821Y231389D01*
X580300Y231884D01*
X578875Y232610D01*
X577581Y233550D01*
X576450Y234681D01*
X575510Y235975D01*
X574784Y237400D01*
X574289Y238921D01*
X574154Y239777D01*
X582677Y239777D01*
X582677Y231254D01*
X581821Y231389D01*
G37*
%LPD*%
%LPC*%
G36*
X429421Y231389D02*
X429421Y231389D01*
X427900Y231884D01*
X426475Y232610D01*
X425181Y233550D01*
X424050Y234681D01*
X423110Y235975D01*
X422384Y237400D01*
X421889Y238921D01*
X421754Y239777D01*
X430277Y239777D01*
X430277Y231254D01*
X429421Y231389D01*
G37*
%LPD*%
%LPC*%
G36*
X315121Y231389D02*
X315121Y231389D01*
X313600Y231884D01*
X312175Y232610D01*
X310881Y233550D01*
X309750Y234681D01*
X308810Y235975D01*
X308084Y237400D01*
X307589Y238921D01*
X307454Y239777D01*
X315977Y239777D01*
X315977Y231254D01*
X315121Y231389D01*
G37*
%LPD*%
%LPC*%
G36*
X162721Y231389D02*
X162721Y231389D01*
X161200Y231884D01*
X159775Y232610D01*
X158481Y233550D01*
X157350Y234681D01*
X156410Y235975D01*
X155684Y237400D01*
X155189Y238921D01*
X155054Y239777D01*
X163577Y239777D01*
X163577Y231254D01*
X162721Y231389D01*
G37*
%LPD*%
%LPC*%
G36*
X696121Y231389D02*
X696121Y231389D01*
X694600Y231884D01*
X693175Y232610D01*
X691881Y233550D01*
X690750Y234681D01*
X689810Y235975D01*
X689084Y237400D01*
X688589Y238921D01*
X688454Y239777D01*
X696977Y239777D01*
X696977Y231254D01*
X696121Y231389D01*
G37*
%LPD*%
%LPC*%
G36*
X848521Y231389D02*
X848521Y231389D01*
X847000Y231884D01*
X845575Y232610D01*
X844281Y233550D01*
X843150Y234681D01*
X842210Y235975D01*
X841484Y237400D01*
X840989Y238921D01*
X840854Y239777D01*
X849377Y239777D01*
X849377Y231254D01*
X848521Y231389D01*
G37*
%LPD*%
%LPC*%
G36*
X54223Y242823D02*
X54223Y242823D01*
X54223Y251265D01*
X55061Y251133D01*
X56570Y250642D01*
X57983Y249922D01*
X59267Y248989D01*
X60389Y247867D01*
X61322Y246583D01*
X62042Y245170D01*
X62533Y243661D01*
X62665Y242823D01*
X54223Y242823D01*
G37*
%LPD*%
%LPC*%
G36*
X613023Y560323D02*
X613023Y560323D01*
X613023Y568765D01*
X613861Y568633D01*
X615370Y568142D01*
X616783Y567422D01*
X618067Y566489D01*
X619189Y565367D01*
X620122Y564083D01*
X620842Y562670D01*
X621333Y561161D01*
X621465Y560323D01*
X613023Y560323D01*
G37*
%LPD*%
%LPC*%
G36*
X601535Y560323D02*
X601535Y560323D01*
X601667Y561161D01*
X602158Y562670D01*
X602878Y564083D01*
X603811Y565367D01*
X604933Y566489D01*
X606217Y567422D01*
X607630Y568142D01*
X609139Y568633D01*
X609977Y568765D01*
X609977Y560323D01*
X601535Y560323D01*
G37*
%LPD*%
%LPC*%
G36*
X42735Y242823D02*
X42735Y242823D01*
X42867Y243661D01*
X43358Y245170D01*
X44078Y246583D01*
X45011Y247867D01*
X46133Y248989D01*
X47417Y249922D01*
X48830Y250642D01*
X50339Y251133D01*
X51177Y251265D01*
X51177Y242823D01*
X42735Y242823D01*
G37*
%LPD*%
%LPC*%
G36*
X54223Y239777D02*
X54223Y239777D01*
X62665Y239777D01*
X62533Y238939D01*
X62042Y237430D01*
X61322Y236017D01*
X60389Y234733D01*
X59267Y233611D01*
X57983Y232678D01*
X56570Y231958D01*
X55061Y231467D01*
X54223Y231335D01*
X54223Y239777D01*
G37*
%LPD*%
%LPC*%
G36*
X613023Y557277D02*
X613023Y557277D01*
X621465Y557277D01*
X621333Y556439D01*
X620842Y554930D01*
X620122Y553517D01*
X619189Y552233D01*
X618067Y551111D01*
X616783Y550178D01*
X615370Y549458D01*
X613861Y548967D01*
X613023Y548835D01*
X613023Y557277D01*
G37*
%LPD*%
%LPC*%
G36*
X50339Y231467D02*
X50339Y231467D01*
X48830Y231958D01*
X47417Y232678D01*
X46133Y233611D01*
X45011Y234733D01*
X44078Y236017D01*
X43358Y237430D01*
X42867Y238939D01*
X42735Y239777D01*
X51177Y239777D01*
X51177Y231335D01*
X50339Y231467D01*
G37*
%LPD*%
%LPC*%
G36*
X609139Y548967D02*
X609139Y548967D01*
X607630Y549458D01*
X606217Y550178D01*
X604933Y551111D01*
X603811Y552233D01*
X602878Y553517D01*
X602158Y554930D01*
X601667Y556439D01*
X601535Y557277D01*
X609977Y557277D01*
X609977Y548835D01*
X609139Y548967D01*
G37*
%LPD*%
%LPC*%
G36*
X382523Y598423D02*
X382523Y598423D01*
X382523Y605856D01*
X383649Y605632D01*
X385301Y604947D01*
X386789Y603953D01*
X388053Y602689D01*
X389047Y601201D01*
X389732Y599549D01*
X389956Y598423D01*
X382523Y598423D01*
G37*
%LPD*%
%LPC*%
G36*
X433323Y446023D02*
X433323Y446023D01*
X433323Y453456D01*
X434449Y453232D01*
X436101Y452547D01*
X437589Y451553D01*
X438853Y450289D01*
X439847Y448801D01*
X440532Y447149D01*
X440756Y446023D01*
X433323Y446023D01*
G37*
%LPD*%
%LPC*%
G36*
X433323Y442977D02*
X433323Y442977D01*
X440756Y442977D01*
X440532Y441851D01*
X439847Y440199D01*
X438853Y438711D01*
X437589Y437447D01*
X436101Y436453D01*
X434449Y435768D01*
X433323Y435544D01*
X433323Y442977D01*
G37*
%LPD*%
%LPC*%
G36*
X422844Y446023D02*
X422844Y446023D01*
X423068Y447149D01*
X423753Y448801D01*
X424747Y450289D01*
X426011Y451553D01*
X427499Y452547D01*
X429151Y453232D01*
X430277Y453456D01*
X430277Y446023D01*
X422844Y446023D01*
G37*
%LPD*%
%LPC*%
G36*
X372044Y598423D02*
X372044Y598423D01*
X372268Y599549D01*
X372953Y601201D01*
X373947Y602689D01*
X375211Y603953D01*
X376699Y604947D01*
X378351Y605632D01*
X379477Y605856D01*
X379477Y598423D01*
X372044Y598423D01*
G37*
%LPD*%
%LPC*%
G36*
X429151Y435768D02*
X429151Y435768D01*
X427499Y436453D01*
X426011Y437447D01*
X424747Y438711D01*
X423753Y440199D01*
X423068Y441851D01*
X422844Y442977D01*
X430277Y442977D01*
X430277Y435544D01*
X429151Y435768D01*
G37*
%LPD*%
%LPC*%
G36*
X431799Y241299D02*
X431799Y241299D01*
X431799Y241301D01*
X431801Y241301D01*
X431801Y241299D01*
X431799Y241299D01*
G37*
%LPD*%
%LPC*%
G36*
X317499Y241299D02*
X317499Y241299D01*
X317499Y241301D01*
X317501Y241301D01*
X317501Y241299D01*
X317499Y241299D01*
G37*
%LPD*%
%LPC*%
G36*
X863599Y520699D02*
X863599Y520699D01*
X863599Y520701D01*
X863601Y520701D01*
X863601Y520699D01*
X863599Y520699D01*
G37*
%LPD*%
%LPC*%
G36*
X876299Y368299D02*
X876299Y368299D01*
X876299Y368301D01*
X876301Y368301D01*
X876301Y368299D01*
X876299Y368299D01*
G37*
%LPD*%
%LPC*%
G36*
X698499Y241299D02*
X698499Y241299D01*
X698499Y241301D01*
X698501Y241301D01*
X698501Y241299D01*
X698499Y241299D01*
G37*
%LPD*%
%LPC*%
G36*
X431799Y444499D02*
X431799Y444499D01*
X431799Y444501D01*
X431801Y444501D01*
X431801Y444499D01*
X431799Y444499D01*
G37*
%LPD*%
%LPC*%
G36*
X863599Y596899D02*
X863599Y596899D01*
X863599Y596901D01*
X863601Y596901D01*
X863601Y596899D01*
X863599Y596899D01*
G37*
%LPD*%
%LPC*%
G36*
X611499Y558799D02*
X611499Y558799D01*
X611499Y558801D01*
X611501Y558801D01*
X611501Y558799D01*
X611499Y558799D01*
G37*
%LPD*%
%LPC*%
G36*
X165099Y241299D02*
X165099Y241299D01*
X165099Y241301D01*
X165101Y241301D01*
X165101Y241299D01*
X165099Y241299D01*
G37*
%LPD*%
%LPC*%
G36*
X863599Y444499D02*
X863599Y444499D01*
X863599Y444501D01*
X863601Y444501D01*
X863601Y444499D01*
X863599Y444499D01*
G37*
%LPD*%
%LPC*%
G36*
X101345Y50799D02*
X101345Y50799D01*
X101345Y50801D01*
X101347Y50801D01*
X101347Y50799D01*
X101345Y50799D01*
G37*
%LPD*%
%LPC*%
G36*
X52699Y241299D02*
X52699Y241299D01*
X52699Y241301D01*
X52701Y241301D01*
X52701Y241299D01*
X52699Y241299D01*
G37*
%LPD*%
%LPC*%
G36*
X584199Y241299D02*
X584199Y241299D01*
X584199Y241301D01*
X584201Y241301D01*
X584201Y241299D01*
X584199Y241299D01*
G37*
%LPD*%
D10*
X101600Y444500D03*
D11*
X127000Y444500D03*
X152400Y444500D03*
X177800Y444500D03*
X203200Y444500D03*
X228600Y444500D03*
X254000Y444500D03*
X279400Y444500D03*
X304800Y444500D03*
X330200Y444500D03*
X355600Y444500D03*
X381000Y444500D03*
X406400Y444500D03*
X431800Y444500D03*
X457200Y444500D03*
X457200Y596900D03*
X431800Y596900D03*
X406400Y596900D03*
X381000Y596900D03*
X355600Y596900D03*
X330200Y596900D03*
X304800Y596900D03*
X279400Y596900D03*
X254000Y596900D03*
X228600Y596900D03*
X203200Y596900D03*
X177800Y596900D03*
X152400Y596900D03*
X127000Y596900D03*
X101600Y596900D03*
D12*
X812800Y589280D02*
X812800Y604520D01*
X838200Y604520D02*
X838200Y589280D01*
X863600Y589280D02*
X863600Y604520D01*
X812800Y528320D02*
X812800Y513080D01*
X838200Y513080D02*
X838200Y528320D01*
X863600Y528320D02*
X863600Y513080D01*
X812800Y452120D02*
X812800Y436880D01*
X838200Y436880D02*
X838200Y452120D01*
X863600Y452120D02*
X863600Y436880D01*
D13*
X326390Y330200D03*
X342900Y317500D03*
X342900Y342900D03*
X165100Y368300D03*
X190500Y368300D03*
X215900Y368300D03*
X241300Y368300D03*
X266700Y368300D03*
X292100Y368300D03*
X317500Y368300D03*
X342900Y368300D03*
X342900Y241300D03*
X317500Y241300D03*
X292100Y241300D03*
X266700Y241300D03*
X241300Y241300D03*
X215900Y241300D03*
X190500Y241300D03*
X165100Y241300D03*
X593090Y330200D03*
X609600Y317500D03*
X609600Y342900D03*
X431800Y368300D03*
X457200Y368300D03*
X482600Y368300D03*
X508000Y368300D03*
X533400Y368300D03*
X558800Y368300D03*
X584200Y368300D03*
X609600Y368300D03*
X609600Y241300D03*
X584200Y241300D03*
X558800Y241300D03*
X533400Y241300D03*
X508000Y241300D03*
X482600Y241300D03*
X457200Y241300D03*
X431800Y241300D03*
X859790Y330200D03*
X876300Y317500D03*
X876300Y342900D03*
X698500Y368300D03*
X723900Y368300D03*
X749300Y368300D03*
X774700Y368300D03*
X800100Y368300D03*
X825500Y368300D03*
X850900Y368300D03*
X876300Y368300D03*
X876300Y241300D03*
X850900Y241300D03*
X825500Y241300D03*
X800100Y241300D03*
X774700Y241300D03*
X749300Y241300D03*
X723900Y241300D03*
X698500Y241300D03*
D14*
X52700Y215900D03*
D15*
X52700Y241300D03*
X52700Y266700D03*
D14*
X611500Y533400D03*
D15*
X611500Y558800D03*
X611500Y584200D03*
D16*
X51054Y60706D02*
X51054Y40894D01*
X101346Y40894D02*
X101346Y60706D01*
X245364Y60706D02*
X245364Y40894D01*
X295402Y40894D02*
X295402Y60706D01*
X345440Y60706D02*
X345440Y40894D01*
X395732Y40894D02*
X395732Y60706D01*
X445770Y60706D02*
X445770Y40894D01*
X495808Y40894D02*
X495808Y60706D01*
X545592Y60706D02*
X545592Y40894D01*
X595630Y40894D02*
X595630Y60706D01*
X645668Y60706D02*
X645668Y40894D01*
X695960Y40894D02*
X695960Y60706D01*
X745998Y60706D02*
X745998Y40894D01*
X796036Y40894D02*
X796036Y60706D01*
D17*
X812800Y596900D02*
X774700Y635000D01*
X355600Y635000D01*
X330200Y609600D01*
X330200Y596900D01*
X558800Y444500D02*
X812800Y444500D01*
X558800Y444500D02*
X495300Y444500D01*
X279400Y571500D02*
X254000Y596900D01*
X368300Y571500D02*
X495300Y444500D01*
X368300Y571500D02*
X279400Y571500D01*
X292100Y584200D02*
X279400Y596900D01*
X292100Y584200D02*
X381000Y584200D01*
X457200Y508000D01*
X774700Y508000D02*
X787400Y520700D01*
X812800Y520700D01*
X774700Y508000D02*
X457200Y508000D01*
X317500Y368300D02*
X330200Y355600D01*
X571500Y355600D02*
X584200Y368300D01*
X596900Y355600D01*
X838200Y355600D02*
X850900Y368300D01*
X317500Y393700D02*
X279400Y431800D01*
X317500Y393700D02*
X317500Y368300D01*
X279400Y431800D02*
X177800Y431800D01*
X165100Y444500D01*
X165100Y558800D01*
X127000Y596900D01*
X330200Y355600D02*
X571500Y355600D01*
X596900Y355600D02*
X838200Y355600D01*
X127000Y419100D02*
X101600Y444500D01*
X127000Y419100D02*
X266700Y419100D01*
X292100Y393700D01*
X292100Y368300D01*
X558800Y368300D02*
X584200Y393700D01*
X800100Y393700D01*
X825500Y368300D01*
X152400Y596900D02*
X127000Y622300D01*
X50800Y622300D01*
X38100Y609600D01*
X38100Y419100D01*
X63500Y393700D01*
X254000Y393700D02*
X266700Y381000D01*
X266700Y368300D01*
X254000Y393700D02*
X63500Y393700D01*
X533400Y381000D02*
X533400Y368300D01*
X533400Y381000D02*
X355600Y558800D01*
X266700Y558800D02*
X228600Y596900D01*
X266700Y558800D02*
X355600Y558800D01*
X279400Y457200D02*
X190500Y457200D01*
X177800Y444500D01*
X295720Y440739D02*
X301039Y435420D01*
X301180Y435420D01*
X330200Y406400D01*
X279541Y457200D02*
X279400Y457200D01*
X279541Y457200D02*
X295720Y441021D01*
X295720Y440739D01*
X330200Y406400D02*
X431800Y406400D01*
X457200Y381000D01*
X457200Y368300D01*
X745998Y187198D02*
X745998Y50800D01*
X745998Y187198D02*
X800100Y241300D01*
X796036Y211836D02*
X796036Y50800D01*
X796036Y211836D02*
X825500Y241300D01*
X774700Y241300D02*
X695960Y162560D01*
X695960Y50800D01*
X645668Y50800D02*
X645668Y137668D01*
X749300Y241300D01*
X345440Y162560D02*
X266700Y241300D01*
X345440Y162560D02*
X345440Y50800D01*
X395732Y137668D02*
X292100Y241300D01*
X395732Y137668D02*
X395732Y50800D01*
X295402Y187198D02*
X241300Y241300D01*
X295402Y187198D02*
X295402Y50800D01*
X245364Y211836D02*
X215900Y241300D01*
X245364Y211836D02*
X245364Y50800D01*
X723900Y241300D02*
X736600Y254000D01*
X901700Y254000D01*
X914400Y266700D01*
X914400Y469900D01*
X889000Y495300D01*
X749300Y495300D01*
X736600Y482600D01*
D18*
X736600Y482600D03*
D17*
X482600Y241300D02*
X482600Y177800D01*
X444500Y139700D01*
X444500Y52070D01*
X445770Y50800D01*
X508000Y152400D02*
X508000Y241300D01*
X508000Y152400D02*
X495300Y139700D01*
X495300Y51308D01*
X495808Y50800D01*
X558800Y177800D02*
X558800Y241300D01*
X558800Y177800D02*
X596900Y139700D01*
X596900Y52070D01*
X595630Y50800D01*
X533400Y152400D02*
X533400Y241300D01*
X533400Y152400D02*
X546100Y139700D01*
X546100Y51308D01*
X545592Y50800D01*
D19*
X177800Y63500D03*
X863600Y63500D03*
X38100Y647700D03*
X914400Y647700D03*
M02*
