M48
;GenerationSoftware,Autodesk,EAGLE,9.6.2*%
;CreationDate,2021-10-08T11:13:55Z*%
FMAT,2
ICI,OFF
METRIC,TZ,000.000
T6C0.350
T5C0.800
T4C1.000
T3C1.016
T2C1.321
T1C3.000
%
G90
M71
T1
X17780Y6350
X86360Y6350
X3810Y64770
X91440Y64770
T2
X79604Y5080
X74600Y5080
X69596Y5080
X64567Y5080
X59563Y5080
X54559Y5080
X49581Y5080
X44577Y5080
X39573Y5080
X34544Y5080
X29540Y5080
X24536Y5080
X10135Y5080
X5105Y5080
T3
X21590Y24130
X53340Y36830
X80010Y36830
X77470Y36830
X74930Y36830
X72390Y36830
X69850Y36830
X87630Y34290
X69850Y24130
X72390Y24130
X74930Y24130
X77470Y24130
X80010Y24130
X82550Y24130
X85090Y24130
X87630Y24130
X87630Y36830
X81280Y59690
X83820Y59690
X86360Y59690
X81280Y52070
X83820Y52070
X86360Y52070
X81280Y44450
X83820Y44450
X86360Y44450
X32639Y33020
X34290Y31750
X34290Y34290
X16510Y36830
X19050Y36830
X21590Y36830
X24130Y36830
X26670Y36830
X29210Y36830
X31750Y36830
X34290Y36830
X34290Y24130
X31750Y24130
X29210Y24130
X26670Y24130
X24130Y24130
X85090Y36830
X19050Y24130
X16510Y24130
X59309Y33020
X60960Y31750
X60960Y34290
X43180Y36830
X45720Y36830
X48260Y36830
X50800Y36830
X82550Y36830
X55880Y36830
X58420Y36830
X60960Y36830
X60960Y24130
X58420Y24130
X55880Y24130
X53340Y24130
X50800Y24130
X48260Y24130
X45720Y24130
X43180Y24130
X85979Y33020
X87630Y31750
T4
X5270Y21590
X5270Y24130
X5270Y26670
X61150Y53340
X61150Y55880
X61150Y58420
T5
X45720Y44450
X43180Y44450
X10160Y59690
X12700Y59690
X15240Y59690
X17780Y59690
X20320Y59690
X22860Y59690
X25400Y59690
X27940Y59690
X30480Y59690
X33020Y59690
X35560Y59690
X38100Y59690
X40640Y59690
X43180Y59690
X45720Y59690
X40640Y44450
X38100Y44450
X35560Y44450
X33020Y44450
X30480Y44450
X27940Y44450
X25400Y44450
X22860Y44450
X20320Y44450
X17780Y44450
X15240Y44450
X12700Y44450
X10160Y44450
T6
X73660Y48260
M30